<?xml version="1.0" encoding="utf-8"?>
<!-- Generator: Adobe Illustrator 16.0.0, SVG Export Plug-In . SVG Version: 6.00 Build 0)  -->
<!DOCTYPE svg PUBLIC "-//W3C//DTD SVG 1.1//EN" "http://www.w3.org/Graphics/SVG/1.1/DTD/svg11.dtd">
<svg version="1.1" id="Layer_1" xmlns="http://www.w3.org/2000/svg" xmlns:xlink="http://www.w3.org/1999/xlink" x="0px" y="0px"
	 width="1500px" height="1053px" viewBox="0 0 1500 1053" enable-background="new 0 0 1500 1053" xml:space="preserve">
<g>
	<path fill="#F7CC7F" d="M1058.807,257.752c-21.166,83.296,29.378,168.283,112.674,189.45
		c83.296,21.167,168.282-29.377,189.45-112.673c21.167-83.296-29.378-168.283-112.674-189.45
		C1164.962,123.912,1079.975,174.457,1058.807,257.752z M1097.304,262.269L1097.304,262.269
		c18.708-62.168,84.27-97.4,146.438-78.693l0,0c62.169,18.708,97.399,84.27,78.692,146.438v0
		c-18.707,62.168-84.27,97.399-146.438,78.692l0,0C1113.828,389.999,1078.597,324.437,1097.304,262.269z"/>
	<path fill="#F7CC7F" d="M950.805,257.994c0.733,3.722,4.102,5.022,12.416,8.32c14.873,5.899,29.754,11.801,44.406,18.214
		c2.306,1.009,4.611,4.603,4.896,7.222c1.694,15.57,2.448,31.246,4.299,46.793c0.574,4.818,0.105,7.38-4.225,10.1
		c-17.307,10.875-34.31,22.235-51.237,33.293c4.231,18.152,25.551,58.95,36.947,70.359c17.952-7.553,36.41-14.993,54.549-23.145
		c5.646-2.537,8.53-2.049,13.235,2.448c10.914,10.434,22.816,19.903,34.839,29.079c4.868,3.716,7.462,6.628,5.884,13.323
		c-4.09,17.352-7.125,34.95-10.922,52.375c-1.021,4.683-0.129,7.612,4.494,9.043c21.754,6.734,43.518,13.439,65.274,20.167
		c5.349,1.654,6.173-2.744,7.508-5.895c6.758-15.939,13.607-31.851,19.825-48.002c2.336-6.064,5.464-8.061,12.054-8.267
		c17.435-0.547,34.835-2.23,53.587-3.556c11.092,16.841,23.338,35.434,35.928,54.546c25.269-8.369,48.027-20.897,69.581-37.469
		c-8.536-20.509-17.074-41.025-24.6-59.105c12.909-16.352,25.2-31.233,36.588-46.777c3.296-4.499,5.878-5.239,10.825-4.153
		c17.164,3.771,34.447,7.005,51.64,10.658c3.718,0.79,6.444,0.934,8.348-3.127c9.62-20.519,17.383-41.571,20.517-64.198
		c0.697-5.044-1.112-7.035-5.268-8.751c-16.725-6.908-33.318-14.136-50.071-20.975c-4.058-1.657-5.757-3.378-6.126-8.329
		c-1.277-17.172-3.298-34.31-5.753-51.357c-0.626-4.355,0.757-6.048,3.821-8.067c17.078-11.248,34.072-22.622,51.532-34.243
		c-8.859-24.872-20.157-47.958-36.342-69.185c-20.921,8.707-41.706,17.357-61.597,25.635c-16.76-13.901-32.986-27.361-50.352-41.764
		c3.076-15.351,6.749-33.011,10.124-50.728c2.77-14.541,4.854-12.628-9.755-18.759c-1.393-0.585-2.574-1.675-3.855-2.531
		c-13.065-3.932-26.131-7.863-39.197-11.795c-3.054-0.346-6.258-0.22-9.133-1.13c-7.48-2.371-11.691-0.67-14.672,7.341
		c-6.209,16.693-13.47,33.005-20.688,49.301c-0.946,2.135-4.052,4.36-6.396,4.657c-15.289,1.935-30.788,2.548-45.916,5.274
		c-7.402,1.333-10.517-0.689-14.168-6.46c-10.359-16.367-21.391-32.307-33.24-50.034c-23.436,12.305-46.298,24.309-69.419,36.449
		c1.817,4.607,2.819,7.275,3.914,9.905c6.754,16.22,13.361,32.504,20.403,48.598c2,4.57,0.98,7.139-2.148,10.857
		c-10.75,12.775-20.678,26.241-31.343,39.091c-1.654,1.993-5.743,3.393-8.335,2.942c-14.199-2.467-28.259-5.718-42.412-8.468
		c-11.45-2.225-15.711-3.011-19.337,0.728L950.805,257.994z M1053.455,256.393c10.617-41.78,36.868-76.924,73.919-98.959
		c37.05-22.036,80.464-28.324,122.243-17.707c41.78,10.617,76.925,36.869,98.96,73.919s28.323,80.464,17.706,122.244
		c-10.617,41.78-36.869,76.924-73.918,98.959c-37.051,22.035-80.465,28.323-122.244,17.706s-76.924-36.869-98.959-73.919
		C1049.125,341.586,1042.838,298.172,1053.455,256.393z"/>
</g>
<path fill="#50BFA5" d="M70.216,473.68c2.402,1.875,5.131,0.893,11.914-1.476c12.133-4.236,24.271-8.475,36.54-12.283
	c1.931-0.6,5.221,0.371,6.77,1.811c9.214,8.564,17.912,17.687,27.21,26.154c2.881,2.625,3.943,4.426,2.744,8.354
	c-4.792,15.702-9.146,31.539-13.611,47.152c12.113,8.796,46.506,22.363,59.423,23.3c6.93-14.024,14.228-28.245,20.957-42.73
	c2.094-4.509,4.102-5.729,9.323-5.471c12.113,0.598,24.317,0.091,36.442-0.657c4.91-0.303,8.015,0.102,10.577,4.996
	c6.639,12.687,14.046,24.968,20.901,37.545c1.842,3.381,3.923,4.691,7.483,3.129c16.75-7.347,33.49-14.717,50.238-22.068
	c4.117-1.807,2.306-4.911,1.461-7.526c-4.276-13.231-8.481-26.494-13.196-39.57c-1.771-4.91-0.92-7.768,2.973-11.356
	c10.3-9.498,19.98-19.667,30.67-30.33c15.589,4.396,32.8,9.248,50.491,14.235c10.945-18.365,18.179-37.938,22.555-59.331
	c-15.964-7.966-31.935-15.936-46.009-22.958c-0.757-16.716-1.116-32.213-2.373-47.638c-0.364-4.464,0.815-6.272,4.39-8.212
	c12.405-6.734,24.601-13.855,36.961-20.676c2.672-1.474,4.403-2.82,3.425-6.287c-4.946-17.517-11.299-34.381-21.291-49.768
	c-2.229-3.43-4.374-3.688-7.799-2.545c-13.788,4.597-27.663,8.931-41.431,13.585c-3.335,1.128-5.272,0.976-8.098-1.837
	c-9.803-9.755-20.039-19.1-30.492-28.161c-2.67-2.314-2.72-4.07-1.92-6.907c4.457-15.808,8.797-31.648,13.291-47.883
	c-18.455-10.446-37.451-18.524-58.438-22.906c-8.126,16.285-16.2,32.464-23.927,47.947c-17.485,0.37-34.415,0.727-52.53,1.109
	c-6.202-10.939-13.256-23.593-20.52-36.125c-5.963-10.286-3.692-10.22-15.785-6.264c-1.154,0.377-2.445,0.337-3.672,0.49
	c-10,4.481-20.001,8.963-30.002,13.443c-2.037,1.396-3.916,3.157-6.14,4.115c-5.788,2.493-7.452,5.74-5.05,12.171
	c5.004,13.401,9.171,27.123,13.354,40.813c0.548,1.793-0.168,4.777-1.435,6.189c-8.267,9.212-17.355,17.733-25.109,27.34
	c-3.793,4.701-6.748,5.11-11.999,3.526c-14.895-4.493-29.974-8.373-46.487-12.908c-7.763,19.792-15.334,39.1-22.992,58.625
	c3.525,1.843,5.536,2.937,7.583,3.958c12.628,6.299,25.2,12.713,37.937,18.784c3.617,1.724,4.349,3.819,4.403,7.722
	c0.188,13.409,1.238,26.805,1.517,40.215c0.043,2.079-1.703,5.079-3.514,6.168c-9.919,5.966-20.166,11.383-30.206,17.154
	c-8.123,4.668-11.123,6.431-11.359,10.607L70.216,473.68z M131.707,418.744c-15.517-30.951-18.051-66.093-7.137-98.95
	c10.914-32.857,33.97-59.498,64.921-75.015c30.951-15.516,66.092-18.051,98.95-7.137s59.499,33.971,75.015,64.921
	c15.517,30.951,18.051,66.092,7.137,98.95c-10.914,32.857-33.97,59.498-64.922,75.015c-30.951,15.516-66.092,18.051-98.949,7.137
	C173.864,472.751,147.223,449.695,131.707,418.744z"/>
<path fill="#F7CC7F" d="M220.304,118.706l4.93-9.051l-4.639-9.204c-0.528-1.048,0.372-2.249,1.522-2.032l10.106,1.906l7.295-7.269
	c0.831-0.828,2.248-0.341,2.397,0.824l1.316,10.229l9.148,4.711c1.042,0.537,1.018,2.039-0.041,2.542l-9.293,4.416l-1.641,10.181
	c-0.187,1.16-1.619,1.601-2.423,0.747l-7.059-7.5l-10.162,1.581C220.604,120.966,219.743,119.736,220.304,118.706z"/>
<path fill="#07345A" d="M758.293,161.597l4.21-6.837l-3.38-1.371c-0.74-0.3-1.097-1.143-0.797-1.882l0,0
	c0.301-0.74,1.143-1.097,1.883-0.796l3.898,1.581l3.764-6.14l-3.611-1.464c-0.738-0.3-1.096-1.143-0.796-1.882l0,0
	c0.301-0.74,1.144-1.096,1.883-0.796l4.129,1.674l4.37-7.032c0.371-0.597,1.119-0.84,1.771-0.576l0.631,0.256
	c0.826,0.335,1.154,1.333,0.688,2.094l-4.065,6.635l5.986,2.428l4.37-7.031c0.372-0.598,1.12-0.841,1.771-0.577l0.689,0.279
	c0.826,0.335,1.154,1.333,0.689,2.094l-4.066,6.635l3.381,1.371c0.74,0.3,1.096,1.143,0.796,1.882l0,0
	c-0.3,0.74-1.143,1.096-1.883,0.796l-3.898-1.581L777,157.52l3.611,1.464c0.739,0.3,1.097,1.143,0.796,1.882l0,0
	c-0.3,0.74-1.144,1.096-1.882,0.796l-4.129-1.674l-4.465,7.251c-0.369,0.601-1.119,0.847-1.773,0.582l-0.736-0.299
	c-0.83-0.336-1.158-1.336-0.689-2.097l4.21-6.837l-5.985-2.427l-4.465,7.251c-0.37,0.601-1.12,0.847-1.773,0.582l-0.738-0.299
	C758.152,163.358,757.824,162.358,758.293,161.597z M773.547,156.12l3.764-6.14l-5.986-2.428l-3.763,6.14L773.547,156.12z"/>
<path fill="#F47458" d="M731.282,280.627l-5.7,30.291c0.478,1.538,1.958,1.935,5.615,2.952c6.541,1.819,13.086,3.64,19.558,5.686
	c1.019,0.322,2.153,1.735,2.392,2.827c1.416,6.494,2.438,13.074,3.921,19.551c0.459,2.007,0.377,3.109-1.327,4.452
	c-6.814,5.368-13.478,10.928-20.122,16.356c2.603,7.468,13.436,23.724,18.759,28.025c7.234-3.996,14.689-7.966,21.975-12.222
	c2.269-1.325,3.508-1.249,5.695,0.437c5.075,3.911,10.523,7.371,16.01,10.702c2.223,1.348,3.448,2.46,3.083,5.356
	c-0.943,7.506-1.433,15.068-2.25,22.592c-0.22,2.022,0.288,3.218,2.304,3.614c9.482,1.862,18.968,3.711,28.451,5.57
	c2.332,0.458,2.48-1.436,2.902-2.825c2.135-7.03,4.308-14.053,6.205-21.148c0.712-2.665,1.941-3.648,4.713-4.032
	c7.332-1.016,14.599-2.509,22.451-3.913c5.439,6.606,11.444,13.901,17.617,21.398c10.285-4.668,19.324-10.98,27.673-18.943
	c-4.524-8.27-9.052-16.542-13.04-23.833c4.71-7.481,9.227-14.314,13.331-21.386c1.188-2.047,2.245-2.475,4.382-2.24
	c7.412,0.818,14.851,1.405,22.27,2.172c1.604,0.166,2.761,0.104,3.382-1.695c3.135-9.091,5.462-18.325,5.766-28.013
	c0.067-2.16-0.786-2.918-2.617-3.455c-7.368-2.162-14.694-4.465-22.071-6.596c-1.788-0.517-2.582-1.167-2.96-3.239
	c-1.313-7.188-2.937-14.329-4.741-21.412c-0.46-1.809,0.048-2.586,1.25-3.576c6.699-5.515,13.358-11.08,20.202-16.77
	c-4.857-10.096-10.665-19.329-18.45-27.557c-8.436,4.616-16.816,9.202-24.837,13.591c-7.698-5.111-15.151-10.061-23.126-15.356
	c0.605-6.616,1.361-14.233,1.986-21.861c0.514-6.261,1.479-5.547-4.961-7.477c-0.614-0.185-1.161-0.591-1.74-0.895
	c-5.69-1.071-11.381-2.142-17.07-3.212c-1.305-0.009-2.651,0.189-3.905-0.066c-3.263-0.664-4.964,0.244-5.86,3.758
	c-1.868,7.323-4.198,14.534-6.511,21.734c-0.304,0.943-1.513,2.022-2.489,2.253c-6.363,1.505-12.875,2.462-19.137,4.293
	c-3.063,0.896-4.469,0.183-6.27-2.087c-5.108-6.44-10.48-12.67-16.278-19.616c-9.335,6.248-18.442,12.343-27.651,18.506
	c0.975,1.862,1.517,2.943,2.098,4.003c3.58,6.54,7.102,13.114,10.798,19.588c1.05,1.838,0.735,2.968-0.417,4.678
	c-3.961,5.875-7.545,12.004-11.466,17.907c-0.608,0.915-2.271,1.69-3.385,1.617c-6.103-0.402-12.182-1.14-18.277-1.664
	C734.477,279.026,732.644,278.887,731.282,280.627z M787.593,306.125c5.095-27.075,31.173-44.894,58.248-39.799l0,0
	c27.075,5.094,44.894,31.173,39.799,58.248l0,0c-5.095,27.075-31.173,44.894-58.247,39.799l0,0
	C800.317,359.278,782.498,333.2,787.593,306.125L787.593,306.125z"/>
<polygon fill="#355389" points="533.235,114.581 551.169,116.745 543.516,102.821 "/>
<g>
	<path fill="#F47458" d="M599.108,269.158c-0.561,6.059,4.648,11.599,10.428,12.61c5.985,1.047,11.319-2.854,13.377-8.368
		c4.062-10.878-7.84-19.458-14.296-12.876c-6.025,6.145-4.119,15.274,2.385,15.277c2.454,0.001,6.404-2.057,4.837-5.032
		c-0.351-0.667-1.34-0.619-1.702,0c-0.789,1.344-0.726,1.393-1.101,1.692c-0.585,0.471-1.398,0.628-2.13,0.616
		c-6.624-0.113-2.22-15.269,5.588-11.598c4.288,2.016,5.552,6.892,4.065,11.147c-1.433,4.098-5.276,7.272-9.721,6.987
		c-5.311-0.341-9.764-5.223-10.108-10.456C600.663,268.103,599.205,268.12,599.108,269.158L599.108,269.158z"/>
</g>
<g>
	<g>
		<path fill="#50BFA5" d="M926.714,44.693l5.362,2.302c0,0,8.953-1.998,9.953-3.68c1-1.682,1.585-5.932,2.836-5.935
			s3.62,0.618,3.958,3.594c0.245,2.161-3.386,8.007-2.947,8.705c0.274,0.437,3.319,1.847,5.56,2.841
			c1.475,0.654,2.462,2.074,2.566,3.687v0.005c0.072,1.09-0.627,2.081-1.676,2.376l-1.633,0.46l0.377,1.665
			c0.279,1.24-0.491,2.473-1.726,2.762l-1.257,0.294l0.312,1.022c0.403,1.316-0.423,2.691-1.771,2.95l-1.096,0.209l0.021,0.288
			c0.09,1.195-0.747,2.26-1.926,2.454l-1.085,0.179l-14.281-6.135c-1.337-0.575-2.544-1.417-3.546-2.477l-4.666-2.99
			c-0.501-0.322-0.693-0.962-0.451-1.507l5.543-12.452C925.411,44.708,926.11,44.434,926.714,44.693z"/>
	</g>
</g>
<path fill="#5184CE" d="M775.989,300.203h-96.912c-9.917,0-17.958,8.041-17.958,17.959v31.752c0,9.918,8.041,17.959,17.958,17.959
	h96.912c9.919,0,17.96-8.041,17.96-17.959v-31.752C793.949,308.243,785.908,300.203,775.989,300.203z"/>
<polygon fill="#466EB6" points="647.605,967.258 544.963,1014.568 544.963,1025.048 910.508,1025.048 910.508,1014.568 
	806.938,967.258 "/>
<rect x="647.605" y="764.474" fill="#466EB6" width="159.397" height="202.87"/>
<path fill="#466EB6" d="M1209.637,828.116V370.648c0-21.736-17.62-39.356-39.356-39.356H283.292
	c-21.736,0-39.357,17.621-39.357,39.356v457.468H1209.637z"/>
<rect x="544.963" y="1014.568" opacity="0.3" fill="#184655" width="365.545" height="10.479"/>
<rect x="647.605" y="943.452" opacity="0.3" fill="#184655" width="159.333" height="23.806"/>
<path fill="#5184CE" d="M243.936,828.116v73.307c0,15.249,10.079,27.61,22.513,27.61h920.677c12.434,0,22.512-12.361,22.512-27.61
	v-73.307H243.936z"/>
<circle fill="#184655" cx="728.31" cy="318.175" r="8.965"/>
<path fill="#CCE6FF" d="M1187.031,808.25V371.87c0-11.438-9.606-20.712-21.458-20.712H287.999c-11.851,0-21.458,9.273-21.458,20.712
	v436.38H1187.031z"/>
<rect x="306.964" y="386.385" fill="#E9FFFF" width="553.259" height="386.052"/>
<rect x="306.964" y="386.385" fill="#5184CE" width="553.259" height="45.2"/>
<rect x="1057.114" y="482.97" opacity="0.6" fill="#9BC1F9" width="37.765" height="292.309"/>
<rect x="1004.375" y="572.131" opacity="0.6" fill="#9BC1F9" width="37.765" height="203.148"/>
<rect x="1110.614" y="546.301" opacity="0.6" fill="#9BC1F9" width="37.765" height="228.978"/>
<rect x="951.635" y="537.296" opacity="0.6" fill="#9BC1F9" width="37.765" height="237.983"/>
<rect x="898.894" y="607.857" opacity="0.6" fill="#9BC1F9" width="37.765" height="167.422"/>
<g>
	<rect x="1057.114" y="550.339" opacity="0.3" fill="#9BC1F9" width="37.765" height="224.94"/>
	<rect x="1004.375" y="618.951" opacity="0.3" fill="#9BC1F9" width="37.765" height="156.328"/>
	<rect x="1110.614" y="599.074" opacity="0.3" fill="#9BC1F9" width="37.765" height="176.205"/>
	<rect x="951.635" y="592.145" opacity="0.3" fill="#9BC1F9" width="37.765" height="183.135"/>
	<rect x="898.894" y="646.443" opacity="0.3" fill="#9BC1F9" width="37.765" height="128.836"/>
</g>
<rect x="326.053" y="450.198" opacity="0.6" fill="#9BC1F9" width="510.659" height="65.543"/>
<rect x="508.033" y="534.356" opacity="0.6" fill="#9BC1F9" width="328.679" height="16.8"/>
<rect x="326.053" y="534.356" fill="#5184CE" width="161.691" height="193.868"/>
<rect x="508.033" y="569.77" opacity="0.6" fill="#9BC1F9" width="328.679" height="16.799"/>
<rect x="508.033" y="676.01" opacity="0.6" fill="#9BC1F9" width="328.679" height="16.8"/>
<rect x="508.033" y="711.424" opacity="0.6" fill="#9BC1F9" width="328.679" height="16.8"/>
<path fill="#F7CC7F" d="M95.226,603.876l306.984-0.553c4.61-0.008,8.354,3.722,8.363,8.333l0.729,404.512
	c0.008,4.61-3.723,8.354-8.333,8.363l-306.984,0.553c-4.61,0.008-8.354-3.723-8.363-8.332L86.894,612.24
	C86.885,607.629,90.616,603.885,95.226,603.876z"/>
<rect x="104.103" y="615.352" transform="matrix(-1 0.0018 -0.0018 -1 499.6553 1625.632)" fill="#FFFFFF" width="289.984" height="395.379"/>
<path fill="#13375B" d="M311.575,597.902c-0.003-1.778-1.447-3.217-3.226-3.214l-121.758,0.219
	c-1.778,0.003-3.217,1.448-3.214,3.227l0.023,12.655l128.198-0.231L311.575,597.902z"/>
<path fill="#13375B" d="M247.442,579.411c-10.605,0.019-19.187,8.632-19.168,19.237s8.632,19.187,19.237,19.168
	c10.605-0.02,19.187-8.632,19.168-19.238C266.66,587.974,258.048,579.392,247.442,579.411z M247.499,610.928
	c-6.801,0.012-12.325-5.491-12.337-12.292c-0.012-6.802,5.492-12.325,12.293-12.337s12.325,5.491,12.337,12.292
	C259.804,605.393,254.301,610.916,247.499,610.928z"/>
<g>
	<path fill="#355389" d="M309.603,594.938c1.157,0.487,1.97,1.63,1.972,2.963l0.022,12.655L183.4,610.788
		c0.016,8.767,7.136,15.862,15.903,15.847l96.448-0.174c8.768-0.016,15.862-7.136,15.846-15.904l-0.022-12.655
		C311.573,596.568,310.76,595.425,309.603,594.938z"/>
	<path fill="#9BC1F9" d="M186.591,594.907L186.591,594.907c-1.112,0.002-2.09,0.567-2.668,1.425
		C184.501,595.474,185.479,594.909,186.591,594.907z"/>
	<path fill="#9BC1F9" d="M183.52,597.175c0.063-0.202,0.144-0.395,0.243-0.578C183.664,596.78,183.583,596.973,183.52,597.175z"/>
</g>
<g>
	<path fill="#184655" d="M360.479,731.726l-41.223,0.075l-0.074-41.223l41.223-0.074L360.479,731.726z M320.937,730.112
		l37.853-0.068l-0.068-37.853l-37.853,0.068L320.937,730.112z"/>
</g>
<g>
	<path fill="#184655" d="M360.602,800.318l-41.223,0.074l-0.074-41.223l41.223-0.075L360.602,800.318z M321.061,798.705
		l37.854-0.068l-0.068-37.853l-37.854,0.068L321.061,798.705z"/>
</g>
<g>
	<path fill="#184655" d="M360.725,868.91l-41.223,0.075l-0.074-41.223l41.223-0.074L360.725,868.91z M321.184,867.296l37.854-0.068
		l-0.068-37.853l-37.854,0.068L321.184,867.296z"/>
</g>
<g>
	<path fill="#184655" d="M360.849,937.502l-41.223,0.075l-0.074-41.224l41.223-0.074L360.849,937.502z M321.308,935.889
		l37.853-0.068l-0.068-37.853l-37.853,0.068L321.308,935.889z"/>
</g>
<rect x="125.496" y="691.61" transform="matrix(-1 0.0018 -0.0018 -1 428.6656 1388.7677)" fill="#9BC1F9" width="176.423" height="5.934"/>
<rect x="125.527" y="708.412" transform="matrix(-1 0.0018 -0.0018 -1 428.757 1422.3721)" fill="#9BC1F9" width="176.422" height="5.934"/>
<rect x="125.556" y="725.215" transform="matrix(-1 0.0018 -0.0018 -1 428.8472 1455.9766)" fill="#9BC1F9" width="176.423" height="5.934"/>
<rect x="125.624" y="762.545" transform="matrix(-1 0.0018 -0.0018 -1 429.0472 1530.6375)" fill="#9BC1F9" width="176.423" height="5.934"/>
<rect x="125.654" y="779.347" transform="matrix(-1 0.0018 -0.0018 -1 429.138 1564.2419)" fill="#9BC1F9" width="176.423" height="5.934"/>
<rect x="125.684" y="796.15" transform="matrix(-1 0.0018 -0.0018 -1 429.2288 1597.8468)" fill="#9BC1F9" width="176.423" height="5.933"/>
<rect x="125.745" y="829.754" transform="matrix(-1 0.0018 -0.0018 -1 429.4103 1665.0557)" fill="#9BC1F9" width="176.423" height="5.933"/>
<rect x="125.775" y="846.557" transform="matrix(-1 0.0018 -0.0018 -1 429.5011 1698.6602)" fill="#9BC1F9" width="176.423" height="5.933"/>
<rect x="125.805" y="863.359" transform="matrix(-1 0.0018 -0.0018 -1 429.5914 1732.2644)" fill="#9BC1F9" width="176.423" height="5.933"/>
<rect x="125.866" y="896.963" transform="matrix(-1 0.0018 -0.0018 -1 429.7734 1799.4733)" fill="#9BC1F9" width="176.422" height="5.933"/>
<rect x="125.896" y="913.766" transform="matrix(-1 0.0018 -0.0018 -1 429.8642 1833.0776)" fill="#9BC1F9" width="176.423" height="5.933"/>
<rect x="125.927" y="930.568" transform="matrix(-1 0.0018 -0.0018 -1 429.955 1866.6821)" fill="#9BC1F9" width="176.423" height="5.933"/>
<rect x="126.005" y="973.984" transform="matrix(-1 0.0018 -0.0018 -1 457.2993 1953.4895)" fill="#9BC1F9" width="203.53" height="5.933"/>
<rect x="126.031" y="988.326" transform="matrix(-1 0.0018 -0.0018 -1 497.5155 1982.1354)" fill="#9BC1F9" width="243.667" height="5.933"/>
<g>
	<polygon fill="#F47458" points="339.663,724.988 326.861,703.024 331.442,700.355 338.873,713.103 351.003,684.002 
		355.897,686.042 	"/>
</g>
<g>
	<polygon fill="#F47458" points="339.788,794.479 326.986,772.516 331.567,769.845 338.998,782.593 351.128,753.493 
		356.022,755.533 	"/>
</g>
<g>
	<polygon fill="#F47458" points="340.033,930.341 327.231,908.378 331.812,905.708 339.243,918.457 351.373,889.355 
		356.268,891.396 	"/>
</g>
<polygon fill="#F47458" points="354.295,837.938 350.604,834.212 340.07,844.65 329.499,834.25 325.821,837.989 336.345,848.343 
	325.858,858.734 329.55,862.46 340.083,852.021 350.654,862.422 354.333,858.684 343.809,848.33 "/>
<path opacity="0.3" fill="#9BC1F9" d="M133.615,878.356c-10.26,0.019-20.205,2.06-29.383,5.929l0.017,9.663
	c8.876-4.354,18.847-6.812,29.382-6.83c37.059-0.067,67.263,30.029,67.33,67.088c0.043,23.744-12.296,44.674-30.916,56.667
	l14.469-0.026c1.039-0.936,2.059-1.899,3.053-2.897c14.323-14.375,22.191-33.467,22.154-53.759
	c-0.036-20.293-7.973-39.356-22.348-53.679C172.999,886.188,153.907,878.32,133.615,878.356z"/>
<path opacity="0.3" fill="#9BC1F9" d="M133.652,898.953c-10.792,0.019-20.864,3.144-29.379,8.52l0.01,5.261
	c8.302-5.9,18.439-9.38,29.376-9.4c28.118-0.05,51.035,22.784,51.085,50.902c0.051,28.118-22.784,51.035-50.901,51.085
	c-10.938,0.021-21.087-3.424-29.411-9.294l0.01,5.261c8.534,5.346,18.618,8.434,29.409,8.414
	c30.533-0.055,55.33-24.94,55.274-55.474C189.071,923.693,164.186,898.897,133.652,898.953z"/>
<g>
	<g>
		<g>
			<path fill="#50BFA5" d="M626.315,140.366l-5.595,21.825l17.127-9.62l51.159-18.865l-37.7-1.045c0,0-19.55,2.343-20.689,3.151
				C629.477,136.619,626.315,140.366,626.315,140.366z"/>
			<polygon fill="#96D9C9" points="611.404,125 689.007,133.706 626.315,140.366 			"/>
			<polygon fill="#96D9C9" points="648.572,165.656 630.208,146.908 689.007,133.706 			"/>
		</g>
		<g>
			<g>
				<path fill="#9BC1F9" d="M508.719,207.154c0.445-1.737,0.996-3.479,1.638-5.179c0.59-1.564,1.271-3.13,2.024-4.652l1.648,0.815
					c-0.726,1.468-1.382,2.978-1.952,4.486c-0.618,1.637-1.149,3.314-1.577,4.987c-0.126,0.491-0.244,0.985-0.355,1.479
					l-1.795-0.401C508.467,208.168,508.591,207.651,508.719,207.154z M518.843,187.167c2.399-3.038,5.176-5.975,8.254-8.729
					l1.226,1.371c-3,2.684-5.704,5.542-8.036,8.497L518.843,187.167z M577.181,190.448c-0.099-0.08-0.195-0.161-0.292-0.243
					l1.196-1.397c0.083,0.071,0.168,0.142,0.239,0.201c0.001,0,0.048,0.031,0.177,0.08c0.962,0.363,3.577,0.674,5.147-0.025
					c1.32-0.587,2.449-1.595,3.354-2.996l1.544,0.998c-1.086,1.682-2.522,2.954-4.15,3.678c-2.179,0.969-5.337,0.521-6.544,0.065
					C577.566,190.702,577.346,190.583,577.181,190.448z M536.602,171.124c3.266-2.168,6.76-4.179,10.385-5.978l0.817,1.648
					c-3.557,1.764-6.983,3.736-10.185,5.861L536.602,171.124z M571.592,175.331c0.205-1.752,0.645-3.529,1.305-5.282
					c0.356-0.942,0.782-1.894,1.267-2.829l1.632,0.846c-0.452,0.872-0.849,1.757-1.178,2.632c-0.609,1.612-1.013,3.243-1.2,4.846
					c-0.133,1.139-0.149,2.3-0.048,3.454l-1.832,0.161C571.425,177.881,571.443,176.593,571.592,175.331z M581.474,167.081
					l-0.218-0.138l0.974-1.56l0.237,0.15c3.549,2.275,6.295,5.678,7.536,9.335l-1.742,0.591
					C587.152,172.189,584.679,169.135,581.474,167.081z M558.624,161.84c2.101-0.377,5.917-0.988,7.87-0.849
					c1.516,0.108,2.899,0.258,4.228,0.458l-0.273,1.818c-1.282-0.193-2.618-0.337-4.086-0.442c-1.28-0.091-3.982,0.208-7.414,0.824
					L558.624,161.84z M581.636,157.664c2.971-2.742,6.338-5.03,10.005-6.802l0.8,1.656c-3.504,1.693-6.72,3.879-9.559,6.497
					L581.636,157.664z"/>
			</g>
			<g>
				<path fill="#9BC1F9" d="M603.474,149.094c1.984-0.299,3.967-0.433,5.895-0.398l0.033-1.838c-2.03-0.037-4.116,0.104-6.201,0.418
					L603.474,149.094z"/>
			</g>
		</g>
	</g>
	<g>
		<path fill="#A34B3D" d="M466.658,176.453c1.107,0.046,4.141,1.061,8.578,9.446c5.665,10.707,13.946,43.052,13.946,43.052
			l-24.718,9.205l-3.175-6.751l-5.23-51.975C456.06,179.43,466.352,176.44,466.658,176.453z"/>
		<path fill="#B75742" d="M433.984,171.791c7.068,0.01,24.557,2.072,32.674,4.665c0,0,5.962,51.25-5.368,90.194
			c-2.537,8.718,2.097,36.138,2.097,36.138l-73.239-0.966c0,0,8.676-66.29,5.408-76.997s-3.347-48.024-3.347-48.024
			s0.502-0.078,16.455-2.835C416.105,172.678,426.439,171.781,433.984,171.791z"/>
		<path fill="#F7A491" d="M425.451,397.91c0,0,1.621,18.701,4.599,23.88c2.979,5.179-0.156,13.982-0.313,15.191
			c-0.156,1.208-6.271,2.935-15.993,1.899s-9.565-3.28-8.781-6.905c0.784-3.625,5.958-8.286,6.272-11.739
			c0.313-3.453-2.979-15.881-2.979-15.881L425.451,397.91z"/>
		<path fill="#E0973F" d="M455.124,287.352c0,0,50.557-2.808,61.848,4.03c11.29,6.837-8.021,40.395-8.021,40.395
			s-35.18-1.621-104.087,2.355c-16.317,0.941-17.724-42.546-14.672-46.145C393.242,284.388,455.124,287.352,455.124,287.352z"/>
		<path fill="#DD513A" d="M412.531,440.331c-10.01-1.066-8.772-5.984-7.965-9.717c0.505-2.337,3.377-5.092,5.089-7.699
			c0.895,0.713,2.351,1.971,6.698,3.255c4.514,1.333,10.703-1.305,14.645-2.958c1.406,5.23,1.47,11.901,1.338,12.913
			C432.175,437.369,422.541,441.398,412.531,440.331z"/>
		<path fill="#F7CC7F" d="M418.057,323.521c2.02,15.285,12.021,91.375,12.021,91.375l-23.205,2.877
			c0,0-28.537-99.316-27.073-114.507c1.463-15.191,12.145-16.469,12.145-16.469S412.71,283.06,418.057,323.521z"/>
		<path fill="#F7A491" d="M391.412,182.497c6.848-2.569,10.198,59.131,11.121,84.527c12.126,1.167,33.263,0.009,38.526-0.386
			c2.475-0.186,8.182-2.276,10.644-2.599c2.523-0.331,4.81-0.502,6.05-0.287c0.455,0.079,13.095,5.248,14.177,6.382
			c1.341,1.406,4.966,4.952,4.354,6.485c-0.611,1.534-6.972-4.272-6.972-4.272l-3.108-1.744c3.87,3.78,11.25,8.759,10.187,10.572
			c-1.037,1.768-7.694-3.284-12.44-6.728c4.07,3.677,9.126,10.255,7.961,11.28c-1.047,0.922-6.798-6.694-12.945-8.888
			c-2.278-0.813-4.548,1.438-6.34,1.71c-1.317,0.2-3.35,0.625-4.642,0.259l-6.655-1.887c-2.267,0.205-2.324,1.546-4.613,2.033
			c-2.658,0.566-7.019,1.162-10.403,1.988c-19.491,4.762-25.992,6.974-31.96,6.97C376.276,287.902,375.229,188.568,391.412,182.497z
			"/>
		<path fill="#A34B3D" d="M378.416,240.423c-1.282-26.013-1.095-58.076,13.487-63.547c5.754-2.158,15.897,10.82,14.073,64.075
			C398.192,241.594,386.763,242.111,378.416,240.423z"/>
		<path fill="#F7A491" d="M495.732,416.046c0,0-3.351,5.918-0.714,10.88c2.637,4.962,16.472,12.262,17.915,14.953
			c1.441,2.69,0.876,4.594,0.876,4.594l-41.084-10.072l3.149-12.384l3.842-8.558L495.732,416.046z"/>
		<path fill="#DD513A" d="M497.137,429.574c0,0-11.548,2-16.129-1.652c-4.58-3.652-4.272-4.323-5.962-3.695
			c-1.085,0.403-2.738,5.335-3.781,8.807c-0.555,1.848,0.557,3.783,2.43,4.246l42.781,10.572c3.25,0.625,5.4-1.404,3.213-4.011
			c-1.5-1.788-3.379-3.174-4.416-4.108C512.087,436.862,497.137,429.574,497.137,429.574z"/>
		<path fill="#F7CC7F" d="M491.706,299.335c3.268-6.877,10.701-15.832,23.779-10.439c12.474,5.144,15.821,17.786,11.886,30.731
			c-3.935,12.945-29.844,89.044-30.747,99.507l-20.687,0.137c0,0,3.76-60.256,4.682-74.821
			C481.506,330.437,486.05,311.239,491.706,299.335z"/>
		<path fill="#184655" d="M525.288,229.246h-69.149c-1.83,0-3.478,1.109-4.172,2.808l-21.292,52.106h-38.122
			c-1.066,0-1.931,0.866-1.931,1.935l0,0c0,1.069,0.864,1.935,1.931,1.935h108.5c2.984,0,5.689-1.756,6.91-4.487l21.439-47.92
			C530.741,232.629,528.559,229.246,525.288,229.246z"/>
		<path fill="#FFFFFF" d="M488.058,259.587c-0.467,2.341-2.501,3.906-4.544,3.496c-2.042-0.41-3.32-2.64-2.853-4.98
			c0.468-2.34,2.502-3.905,4.544-3.496C487.248,255.018,488.525,257.247,488.058,259.587z"/>
		<g>
			<path fill="#0E2E35" d="M450.418,109.195c-2.084-0.702-4.136-1.494-6.117-2.45c-2.239-1.08-5.142-2.345-6.975-2.628
				c-3.859-0.596-10.489-0.198-14.15,3.773c-4.562,4.948-12.666,0.894-11.033,26.808c1.848,29.333,18.158,26.113,18.554,25.616
				c0.396-0.496,14.546-18.765,14.546-18.765s4.947,10.822,4.947,10.425C450.189,151.592,475.452,117.626,450.418,109.195z"/>
			<path fill="#F7A491" d="M438.037,162.481l1.408,10.481c0,0,3.153,15.1-0.904,18.011c-4.058,2.911-17.255-18.441-17.255-18.441
				l1.394-26.558L438.037,162.481z"/>
			<path fill="#F47458" d="M422.229,154.581c3.351,9.059,11.335,14.627,17.001,16.787l-1.194-8.886l-15.357-16.507L422.229,154.581z
				"/>
			<path fill="#F7A491" d="M437.203,117.073c8.598-1.388,16.31,5.527,16.095,14.134c-0.093,3.742-0.401,8.413-1.177,13.443
				c-1.87,12.099-10.125,22.753-15.583,21.801c-5.458-0.951-19.191-11.388-16.773-28.605
				C421.258,127.216,428.18,118.53,437.203,117.073z"/>
			<path fill="#F7A491" d="M423.553,139.901c-0.461,2.66-2.592,4.511-4.76,4.133c-2.168-0.378-3.553-2.841-3.092-5.501
				c0.461-2.661,2.592-4.511,4.76-4.133S424.013,137.24,423.553,139.901z"/>
			<path fill="#0E2E35" d="M420.46,134.399c0,0,6.599,1.64,9.048-2.605c2.449-4.245,11.206-13.404,22.338-9.606
				s-9.796-9.234-10.687-9.234c-0.891,0-11.577-0.075-11.577-0.075s-8.238,6.777-8.535,7.521s-2.671,8.861-2.671,8.861
				L420.46,134.399z"/>
		</g>
		<path fill="#FFFFFF" d="M432.534,152.109l12.007,2.295c0,0-1.146,4.523-6.455,3.667
			C431.612,157.027,432.534,152.109,432.534,152.109z"/>
	</g>
</g>
<g>
	<path fill="#F7A491" d="M572.226,978.877c0,0-2.197,15.331-5.979,20.278c-1.269,1.66-3.588,3.76-5.108,6.762
		c-2.369,4.671-1.06,11.626,0.688,15.456c0.896,1.966-0.063,1.96,1.979,2.594c6.048,1.876,12.482-1.283,15.057-7.108
		c1.438-3.254,2.7-7.594,2.954-13.063c0.646-13.92,4.951-20.998,4.951-20.998L572.226,978.877z"/>
	<path fill="#F7A491" d="M638.373,985.889c0,0,1.357,17.287,0.255,22.906c-0.589,3.008-3.874,9.2-2.367,12.031
		c1.507,2.832,3.229,3.539,3.229,3.539l39.046,0.633c2.127,0.034,0.721-1.343-0.994-2.61c-2.807-2.076-5.072-3.448-14.039-7.81
		c-0.584-0.285-2.714-1.646-3.482-2.118c-1.946-1.195-3.902-3.077-5.584-4.962c-2.804-3.139-3.048-18.362-3.048-18.362
		L638.373,985.889z"/>
	<path fill="#E25A44" d="M668.891,756.101c0,0,4.917,28.068,1.689,46.469c-3.228,18.401-18.724,188.965-18.724,188.965l-17.22,0.977
		c0,0-3.61-71.248-2.963-81.156c0.646-9.909,5.755-26.49,5.755-26.49l-1.714-57.525l21.729-75.571L668.891,756.101z"/>
	<path fill="#F47458" d="M618.281,750.198c0,0-13.558,20.524-16.787,37.509c-3.228,16.986,2.37,69.187-3.84,91.445
		c-3.363,12.049-16.104,30.657-18.04,46.227c-1.938,15.57-9.536,56.355-9.536,56.355l17.212,3.431l40.001-101.858l31.376-92.064
		l8.039-47.415L618.281,750.198z"/>
	<path fill="#F7CC7F" d="M580.034,1013.795c-9.38,1.72-15.622-3.799-18.87-7.93c-2.384,4.68-3.547,11.663-1.793,15.508
		c1.544,3.387,6.059,3.289,9.612,3.422c3.758,0.141,6.666-1.959,8.529-5.25C578.384,1018.008,579.281,1016.094,580.034,1013.795z"/>
	<path fill="#F7CC7F" d="M660.017,1012.457c-10.327,2.664-17.961,0.853-22.23-0.879c-1.102,3.139-2.562,7.077-1.787,9.348
		c0.948,2.779,2.299,3.408,3.49,3.439c9.432,0.249,34.551,0.588,41.743,0.683c1.004,0.014,1.558-1.167,0.912-1.942
		C680.361,1020.963,660.785,1012.93,660.017,1012.457z"/>
	<path fill="#F38B80" d="M730.693,707.618c0.719-1.53-6.866-3.612-7.111-5.26c-0.243-1.648,9.924-0.72,10.435-2.092
		c0.939-2.529-11.074-1.702-10.716-2.893c0.358-1.19,12.706-2.654,11.617-4.874c-1.088-2.22-12.645,2.852-12.828,1.404
		c-0.183-1.45,11.172-3.751,11.296-6.872c0.067-1.668-18.907,6.394-20.895,5.276c-1.989-1.117,3.14-8.46,1.604-9.788
		c-1.538-1.328-8.196,14.028-9.399,14.477c-1.199,0.447-27.237,8.319-36.09,9.624c-0.748-2.998-7.405-19.494-8.045-22.322
		c-5.198,2.942-11.821-0.599-17.143,2.022c2.678,9.445,8.691,40.553,11.095,41.954c7.317,4.265,45.814-16.071,52.177-19.67
		c6.37-3.603,9.623-1.883,13.771-2.799C724.61,704.891,729.975,709.147,730.693,707.618z"/>
	<path fill="#0E2E35" d="M662.19,615.98c1.937-8.803,3.833-17.661-1.271-27.332c-4.131-7.826-11.273-12.329-19.54-13.31
		c-23.42-2.779-18.414,19.085-51.146,23.817c-10.171,1.471-19.62,2.885-28.112,7.943c-15.334,9.134-21.123,23.786-10.953,47.656
		c24.901,58.45,84.483,7.658,93.571-2.679C653.758,641.817,660.944,621.646,662.19,615.98z"/>
	<path fill="#F7CC7F" d="M625.331,643.765c0,0-11.826,1.342-18.899,9.037c-7.073,7.694,11.433,69.542,12.719,79.335
		c1.287,9.793-12.299,36.896-12.299,36.896s46.179,9.179,58.183,1.252c0,0,1.054-75.689-0.232-82.684
		c-1.286-6.995-12.003-35.442-14.575-38.24C647.654,646.562,625.331,643.765,625.331,643.765z"/>
	<path fill="#F7A491" d="M631.283,619.921c0,0-0.093,0.526-0.26,1.419c-0.797,4.291-3.866,18.521-5.94,22.434
		c-2.505,4.728,8.58,19.808,19.251,17.967c3.176-0.548-2.686-13.855-2.404-15.265c0.54-2.699,1.27-6.379,2.019-10.154
		c0.422-2.129,0.85-4.288,1.251-6.317c1.141-5.766,2.072-10.482,2.072-10.482L631.283,619.921z"/>
	<path opacity="0.5" fill="#F47458" d="M631.023,621.341c0.167-0.894,0.26-1.419,0.26-1.419l15.989-0.398
		c0,0-0.932,4.716-2.072,10.482c-0.4,2.018-0.825,4.164-1.244,6.281c-2.469-0.362-5.048-1.56-7.634-3.819
		c-2.82-2.463-4.668-5.423-5.783-8.583C630.736,622.876,630.9,622.006,631.023,621.341z"/>
	<path fill="#F7A491" d="M640.9,581.919c0,0-6.521,0.904-11.244,7.002c-4.725,6.098-9.816,24.954,1.919,35.206
		c11.735,10.252,23.331-1.353,25.05-13.656C658.344,598.167,657.997,581.476,640.9,581.919z"/>
	<path fill="#F7A491" d="M660.046,607.434c-0.74,2.966-2.684,4.97-4.341,4.476c-1.657-0.494-2.4-3.3-1.661-6.266
		c0.74-2.967,2.684-4.97,4.342-4.476C660.043,601.662,660.786,604.467,660.046,607.434z"/>
	<path fill="#0E2E35" d="M648.144,581.974c0,0-15.324,17.593-22.527,18.421c-7.202,0.829-8.148,10.357-8.148,10.357
		s2.575-21.956,9.706-26.189C634.305,580.328,648.144,581.974,648.144,581.974z"/>
	<path fill="#F7A491" d="M627.971,604.667c0.585,3.184-0.592,6.105-2.631,6.522c-2.039,0.418-4.167-1.825-4.752-5.009
		c-0.587-3.184,0.592-6.104,2.631-6.522C625.258,599.24,627.386,601.483,627.971,604.667z"/>
	<path fill="#184655" d="M627.752,693.958l49.518,7.244c1.488,0.218,2.519,1.601,2.301,3.089l-9.665,66.062
		c-0.218,1.489-1.602,2.519-3.09,2.301L617.3,765.41c-1.489-0.217-2.519-1.601-2.301-3.09l9.664-66.062
		C624.88,694.77,626.264,693.74,627.752,693.958z"/>
	<path fill="#13375B" d="M664.688,697.171c0.044-0.302-0.166-0.582-0.467-0.626l-20.655-3.022c-0.302-0.044-0.583,0.165-0.626,0.466
		l-0.314,2.147l21.748,3.182L664.688,697.171z"/>
	<path fill="#13375B" d="M654.275,692.424c-1.8-0.263-3.471,0.982-3.735,2.781c-0.263,1.799,0.982,3.471,2.781,3.734
		c1.799,0.264,3.471-0.981,3.735-2.78C657.319,694.359,656.074,692.688,654.275,692.424z M653.492,697.771
		c-1.153-0.169-1.952-1.241-1.783-2.395c0.168-1.154,1.241-1.952,2.394-1.784c1.154,0.169,1.953,1.241,1.784,2.395
		C655.719,697.141,654.646,697.939,653.492,697.771z"/>
	<path fill="#355389" d="M664.427,696.619c0.185,0.112,0.292,0.326,0.261,0.552l-0.314,2.147l-21.748-3.182
		c-0.218,1.488,0.812,2.87,2.3,3.087l16.36,2.393c1.487,0.218,2.87-0.812,3.088-2.299l0.314-2.147
		C664.719,696.945,664.611,696.73,664.427,696.619z"/>
	<path fill="#FFFFFF" d="M649.288,616.566l-11.144-0.059c0,0,0.233,4.234,5.134,4.401
		C649.252,621.113,649.288,616.566,649.288,616.566z"/>
	<path fill="#F7A491" d="M593.012,710.851l17.942,1.833c0,0-0.293,15.228,0.015,16.978c0,0,30.682,8.505,43.505,10.813
		c0,0,5.839-3.31,8.201-4.361c2.362-1.052,8.711-2.2,10.115-2.384c1.404-0.184,0.925,1.354-0.281,1.892
		c-1.207,0.537-4.326,2.007-5.21,3.807c0,0,2.532,0.277,3.873-0.32c1.339-0.597,3.186-1.861,3.215-2.517
		c0.029-0.655,0.333-2.235,0.773-2.15c0.113,0.021,0.262,0.541,0.412,1.083c0.144,0.515,0.295,1.044,0.42,1.564
		c0.225,0.934,0.485,2.298,0.584,2.911c0.229,1.398-0.625,5.256-0.745,6.625c-0.22,2.501-0.934,3.612-2.255,4.25
		c-2.129,0.742-4.381,1.215-7.711,1.559c-6.103,0.631-11.713-1.125-14.16-1.4c-2.447-0.274-41.517-4.15-41.517-4.15
		s-15.53-2.235-16.561-4.908C592.598,739.303,593.012,710.851,593.012,710.851z"/>
	<path fill="#F7CC7F" d="M608.599,650.565c0,0-5.663,2.685-10.641,14.283c-4.731,11.021-6.121,66.022-6.121,66.022l18.768-3.128
		l9.538-25.645c6.796-15.349,5.042-33.22-4.862-46.773C612.641,651.708,610.206,649.524,608.599,650.565z"/>
</g>
<rect x="904.541" y="386.346" opacity="0.6" fill="#9BC1F9" width="79.66" height="79.661"/>
<rect x="998.295" y="386.346" opacity="0.6" fill="#9BC1F9" width="155.404" height="10.824"/>
<rect x="998.295" y="409.292" opacity="0.6" fill="#9BC1F9" width="104.876" height="10.824"/>
<rect x="998.295" y="432.237" opacity="0.6" fill="#9BC1F9" width="139.593" height="10.824"/>
<g>
	<path fill="#F7A491" d="M1207.176,650.797c-3.256-2.647-28.438,8.402-28.12,12.249c0.32,3.847-17.571,41.136-17.571,41.136
		l-30.918-24.652l-0.013,0.008c-0.273-0.892-3.204-10.479-3.347-12.195c-0.149-1.799-5.374-4.947-7.801-4.484
		c-2.426,0.464,2.075,3.507,2.37,4.066c0.806,1.52-2.305,2.091-2.305,2.091s-8.829-2.831-9.019-5.714
		c-0.19-2.883-6.228,5.041-5.519,6.144c0.692,1.078,15.119,12.702,17.198,15.225c0,0,39.991,45.717,42.839,46.913
		c2.498,1.049,11.406-14.706,19.822-25.165C1193.21,695.96,1217.351,659.07,1207.176,650.797z"/>
	<path fill="#F48C7F" d="M1287.867,986.956c0,0,5.496,5.362,5.62,7.33c0.126,1.968,0.487,23.05-1.755,25.018
		c-2.244,1.969-8.834,3.364-6.716,5.578c1.602,1.673,13.921,1.315,22.085,0.865c2.383-0.131,5.371-19.146,6.314-21.939
		c1.371-4.06,4.705-13.202,3.459-16.031c-0.607-1.378-3.512-4.211-7.606-6.856c-4.306-2.781-8.426-8.973-8.426-8.973
		L1287.867,986.956z"/>
	<path fill="#F7A491" d="M1230.94,999.442c0,0,4.919,13.893,4.925,13.928c0.365,2.202,1.806,7.64,1.806,9.641
		c0,7.517-33.9-6.382-26.303-9.713c0.688-0.301,2.846-2.71,3.071-5.268c0.348-3.942-2.855-8.886-2.855-8.886L1230.94,999.442z"/>
	<g>
		<path fill="#50BFA5" d="M1177.762,740.744c0,0-2.473,24.905-2.473,25.276c0,40.288-7.986,118.983-6.467,126.558
			c3.705,18.475,43.583,112.719,43.583,112.719l21.553-2.576l-23.135-113.887l5.384-44.368l14.625-89.777L1177.762,740.744z"/>
		<path fill="#96D9C9" d="M1250.096,762.772l4.089,23.605l11.064,97.149l42.139,94.947c0,0-5.928,13.816-14.673,15.756
			l-67.064-97.483l-41.66-124.737l1.463-27.712L1250.096,762.772z"/>
	</g>
	<path fill="#B75742" d="M1169.165,681.445l29.888,3.051c0,0,1.37-24.501,1.37-36.188c0-14.179-1.208-32.442-2.921-32.049
		c-4.806,1.103-11.277,3.756-15.131,9.051C1169.037,643.629,1169.165,681.445,1169.165,681.445z"/>
	<path fill="#F47458" d="M1183.847,645.807c-0.625,4.323-12.114,121.853-12.114,121.853c54.418,26.282,84.443,4.682,84.443,4.682
		s-1.779-82.531,0.354-93.764c1.411-7.432,3.173-56.818-1.644-58.201c-6.181-1.775-13.267-3.66-20.991-4.462
		c-6.593-0.684-32.206-1.081-36.788,0.458C1197.107,616.373,1186.48,627.626,1183.847,645.807z"/>
	<path fill="#F47458" d="M1309.002,980.787c0,0-12.666,35.661-17.623,37.382c-1.316,0.457-7.633,1.617-8.824,4.41
		c-0.359,0.842,0,3.652,0,3.652h26.398c0,0,3.339-15.712,4.659-22.616c0,0,6.987-16.868,6.211-18.4
		C1319.047,983.682,1309.002,980.787,1309.002,980.787z"/>
	<path fill="#F47458" d="M1239.6,1025.49l-3.883-12.263c0,0-8.153,3.448-12.23,2.874c-4.075-0.575-12.034-2.874-12.034-2.874
		c-16.271,5.354-29.601,7.954-27.176,12.263l0,0H1239.6z"/>
	<g>
		<path fill="#F7A491" d="M1164.972,731.584c-0.124-0.052-0.566-0.399-0.821-0.61c0.968-11.514,0.793-22.672-2.821-26.444
			c0.087-0.181,0.878-1.86,1.702-3.601c4.188,3.24,6.178,11.845,5.396,25.814c-0.053,0.96-0.328,1.694-0.552,2.893
			C1166.663,730.97,1165.562,731.832,1164.972,731.584z"/>
	</g>
	<path fill="#F7A491" d="M1226.621,593.196l3.507,23.119c0,0-12.81,27.527-20.456,25.14c-6.416-2.003-2.47-26.359-2.47-26.359
		s3.498-13.08,2.449-19.626C1208.602,588.923,1226.621,593.196,1226.621,593.196z"/>
	<path fill="#F47458" d="M1209.651,595.469c-1.05-6.545,16.97-2.273,16.97-2.273l0.29,1.917c-0.527,1.283-1.171,2.381-1.954,3.223
		c-4.023,4.331-10.315,6.933-15.754,7.129C1209.746,601.936,1210.081,598.153,1209.651,595.469z"/>
	<g>
		<path fill="#F7A491" d="M1229.576,560.489c0.51-0.185,4.082,26.331-2.697,33.626c-6.78,7.296-19.99,9.684-24.729,3.938
			c-5.24-6.355-4.977-34.854,5.563-42.359C1218.256,548.188,1229.576,560.489,1229.576,560.489z"/>
		<path fill="#0E2E35" d="M1211.728,541.51c8.147,1.662,13.425,6.641,15.364,8.763c3.699,0.437,8.729,2.481,13.92,11.079
			c6.385,10.571,1.67,22.283-5.763,28.029c-7.432,5.746-7.328,12.383-7.328,12.383l-1.176-3.433
			c-0.866-2.601-1.221-5.359-0.93-8.087c0.174-1.637,0.524-3.407,1.201-4.862c1.788-3.837-3.84-6.387-5.417-9.58
			c-1.216-2.458-1.274-8.082-3.188-12.146l-2.286-3.103c0,0-5.273-4.104-10.434-2.946
			C1200.531,558.766,1201.273,539.378,1211.728,541.51z"/>
		
			<ellipse transform="matrix(-0.9999 -0.017 0.017 -0.9999 2440.5889 1181.9434)" fill="#F7A491" cx="1225.328" cy="580.579" rx="3.383" ry="5.858"/>
	</g>
	<path fill="#FFFFFF" d="M1210.936,587.996l-10.22-0.529c0,0,0.035,3.894,4.522,4.256
		C1210.71,592.165,1210.936,587.996,1210.936,587.996z"/>
	<g>
		<path fill="#0E2E35" d="M1127.311,648.447c2.4-2.458,4.64-4.993,6.723-7.583l44.606,43.559c2.741,2.677,1.798,8.09-2.108,12.089
			c-3.906,4-9.295,5.071-12.036,2.394l-44.605-43.559C1122.43,653.203,1124.91,650.904,1127.311,648.447z"/>
		
			<ellipse transform="matrix(-0.6987 0.7154 -0.7154 -0.6987 2182.6372 217.7691)" opacity="0.6" fill="#C5DDF9" cx="1045.46" cy="568.507" rx="112.505" ry="113.204"/>
		<path fill="#FFFFFF" d="M1126.579,646.41c-18.507,19.677-43.819,32.53-71.63,35.059L932.918,557.43
			c0.023-0.234,0.04-0.467,0.066-0.701c3.037-28.321,16.211-53.08,35.493-71.022L1126.579,646.41z"/>
		<path fill="#FFFFFF" d="M1044.495,455.531l112.852,114.708c-0.055,3.471-0.259,6.968-0.637,10.488
			c-1.72,16.029-6.691,30.914-14.174,44.071L990.13,469.884C1006.358,460.758,1024.953,455.595,1044.495,455.531z"/>
		<path fill="#184655" d="M956.595,659.502c50.566,49.383,131.347,48.678,180.426-1.577s47.872-131.028-2.694-180.412
			c-50.566-49.384-131.347-48.678-180.426,1.577C904.821,529.344,906.028,610.118,956.595,659.502z M966.854,648.996
			c-44.729-43.683-45.796-115.13-2.383-159.583c43.413-44.453,114.866-45.077,159.595-1.395s45.796,115.13,2.383,159.583
			C1083.037,692.054,1011.584,692.678,966.854,648.996z"/>
		<path opacity="0.5" fill="#50BFA5" d="M961.988,653.979c47.497,46.387,123.375,45.724,169.476-1.481s44.968-123.076-2.53-169.463
			s-123.375-45.724-169.477,1.481C913.356,531.721,914.489,607.592,961.988,653.979z M966.854,648.996
			c-44.729-43.683-45.796-115.13-2.383-159.583c43.413-44.453,114.866-45.077,159.595-1.395s45.796,115.13,2.383,159.583
			C1083.037,692.054,1011.584,692.678,966.854,648.996z"/>
		<path fill="#184655" d="M1317.175,839.606l6.932-7.19c6.927-7.185,6.718-18.626-0.467-25.553l-128.78-124.854
			c-7.186-6.928-18.625-6.718-25.553,0.467l-6.933,7.19c-6.928,7.186-6.719,18.625,0.468,25.553l128.778,124.854
			C1298.807,847,1310.247,846.791,1317.175,839.606z"/>
	</g>
	<path fill="#F8A492" d="M1310.072,768.904c0.033-0.252,0.037-0.504,0.013-0.757c-0.802-8.14-7.56-76.486-8.697-79.391
		c-1.027-2.624-31.336-45.972-31.336-45.972l-14.897,20.295l29.148,38.881c0.654,2.471,11.17,48.608,11.17,48.608
		s2.156,8.41,3.121,13.447c-0.439,1.213-0.873,2.36-1.256,3.301c-0.965,2.01-2.104,3.66-3.141,5.047
		c-1.303,1.746-3.457,5.562-3.723,6.583c-0.308,1.187-0.864,3.654-1.18,5.142c-0.315,1.489-0.746,3.223-0.819,4.031
		c-0.044,0.492-0.55,1.473-0.94,2.165c-0.582,1.032,0.41,2.25,1.535,1.876c1.059-0.352,1.883-1.723,2.391-2.577
		c1.435-2.411,2.199-6.813,2.557-6.58c0.355,0.232,1.613,7.702,1.812,8.546c0.199,0.844,1.706,9.518,2.558,11.103
		c0.851,1.585,1.977,1.32,2.275,0.327c0.257-0.854-0.939-12.989-0.939-12.989s-0.149-1.548,0.528-1.064
		c0.678,0.484,1.787,11.5,2.258,13.111c0.472,1.612,1.546,2.467,2.458,1.171c1.11-1.576-0.798-13.26-0.798-13.26
		s-0.214-1.469,0.414-1.332s1.413,9.525,1.901,10.337c0.488,0.812,1.721,1.104,2.309-0.25c0.692-1.595-1.101-12.011-1.101-12.011
		s0.088-0.829,0.479-0.554c0.391,0.275,1.633,8.23,2.443,8.967c0.68,0.619,1.246,0.019,1.246,0.019
		c1.485-1.014-0.793-8.581-0.771-12.344s-1.722-7.991-1.201-12.471C1309.922,770.028,1310.014,769.338,1310.072,768.904z"/>
	<path fill="#F47458" d="M1293.73,670.239l-25.891,17.383c0,0-14.592-21.714-22.426-29.444c-9.811-9.685,3.575-39.35,9.898-37.672
		C1269.452,624.26,1293.73,670.239,1293.73,670.239z"/>
</g>
<rect x="58.736" y="1023.372" fill="#0E2E35" width="1288.272" height="7.688"/>
</svg>
