<?xml version="1.0" encoding="utf-8"?>
<!-- Generator: Adobe Illustrator 16.0.0, SVG Export Plug-In . SVG Version: 6.00 Build 0)  -->
<!DOCTYPE svg PUBLIC "-//W3C//DTD SVG 1.1//EN" "http://www.w3.org/Graphics/SVG/1.1/DTD/svg11.dtd">
<svg version="1.1" id="Layer_1" xmlns="http://www.w3.org/2000/svg" xmlns:xlink="http://www.w3.org/1999/xlink" x="0px" y="0px"
	 width="1500px" height="1053px" viewBox="1622.92 0 1500 1053" enable-background="new 1622.92 0 1500 1053" xml:space="preserve">
<g>
	<path fill="#F7CC7F" d="M2180.326,295.333l1.94-3.56l-1.825-3.62c-0.208-0.412,0.146-0.885,0.598-0.799l3.976,0.749l2.869-2.857
		c0.328-0.326,0.883-0.134,0.942,0.323l0.518,4.024l3.6,1.853c0.408,0.21,0.399,0.801-0.02,0.999l-3.653,1.737l-0.646,4.004
		c-0.072,0.456-0.637,0.629-0.953,0.294l-2.775-2.95l-3.997,0.622C2180.446,296.221,2180.106,295.738,2180.326,295.333z"/>
	<path fill="#07345A" d="M2391.918,312.201l1.653-2.688l-1.326-0.54c-0.292-0.119-0.433-0.45-0.314-0.741l0,0
		c0.116-0.291,0.449-0.431,0.738-0.313l1.535,0.623l1.479-2.415l-1.419-0.575c-0.291-0.118-0.431-0.45-0.313-0.741l0,0
		c0.118-0.291,0.448-0.43,0.741-0.313l1.624,0.658l1.718-2.766c0.146-0.234,0.44-0.331,0.697-0.227l0.248,0.1
		c0.325,0.132,0.453,0.524,0.271,0.824l-1.6,2.609l2.354,0.955l1.722-2.765c0.146-0.236,0.44-0.332,0.694-0.228l0.271,0.11
		c0.324,0.132,0.455,0.524,0.271,0.823l-1.6,2.609l1.328,0.54c0.291,0.118,0.432,0.449,0.313,0.74l0,0
		c-0.117,0.291-0.449,0.431-0.741,0.313l-1.53-0.622l-1.458,2.423l1.42,0.576c0.292,0.119,0.431,0.449,0.313,0.74l0,0
		c-0.117,0.291-0.451,0.431-0.739,0.313l-1.625-0.659l-1.756,2.851c-0.146,0.237-0.44,0.333-0.699,0.23l-0.289-0.118
		c-0.325-0.132-0.455-0.525-0.268-0.826l1.654-2.688l-2.355-0.954l-1.756,2.852c-0.146,0.236-0.439,0.333-0.697,0.228l-0.291-0.117
		C2391.861,312.894,2391.732,312.5,2391.918,312.201z M2397.916,310.047l1.479-2.415l-2.354-0.955l-1.479,2.414L2397.916,310.047z"
		/>
	<polygon fill="#355389" points="2303.401,293.71 2310.455,294.561 2307.445,289.085 	"/>
	<g>
		<path fill="#F47458" d="M2329.31,354.505c-0.223,2.382,1.829,4.561,4.101,4.958c2.354,0.412,4.451-1.122,5.262-3.291
			c1.598-4.277-3.084-7.653-5.622-5.063c-2.37,2.416-1.62,6.006,0.937,6.007c0.966,0,2.52-0.809,1.902-1.979
			c-0.136-0.263-0.524-0.243-0.669,0c-0.311,0.528-0.284,0.548-0.433,0.665c-0.229,0.187-0.549,0.247-0.838,0.243
			c-2.604-0.045-0.873-6.006,2.197-4.563c1.688,0.793,2.185,2.711,1.6,4.385c-0.564,1.612-2.074,2.859-3.824,2.747
			c-2.088-0.132-3.84-2.052-3.975-4.112C2329.922,354.089,2329.348,354.097,2329.31,354.505L2329.31,354.505z"/>
	</g>
	<g>
		<g>
			<path fill="#50BFA5" d="M2458.154,266.223l2.109,0.905c0,0,3.523-0.786,3.917-1.448c0.394-0.66,0.623-2.332,1.114-2.333
				c0.492-0.001,1.422,0.243,1.555,1.414c0.098,0.85-1.33,3.149-1.157,3.423c0.107,0.172,1.304,0.727,2.187,1.118
				c0.58,0.257,0.971,0.815,1.008,1.449v0.003c0.029,0.429-0.244,0.817-0.656,0.934l-0.645,0.182l0.149,0.655
				c0.107,0.488-0.194,0.972-0.679,1.086l-0.496,0.116l0.124,0.401c0.157,0.517-0.168,1.058-0.696,1.16l-0.433,0.082l0.009,0.114
				c0.035,0.471-0.293,0.888-0.758,0.965l-0.426,0.07l-5.617-2.413c-0.525-0.226-1.003-0.558-1.393-0.975l-1.837-1.176
				c-0.196-0.126-0.272-0.377-0.178-0.593l2.179-4.896C2457.644,266.229,2457.919,266.122,2458.154,266.223z"/>
		</g>
	</g>
	<path fill="#5184CE" d="M2398.876,366.714h-38.116c-3.9,0-7.063,3.162-7.063,7.064v12.487c0,3.9,3.162,7.063,7.063,7.063h38.116
		c3.899,0,7.065-3.162,7.065-7.063v-12.487C2405.941,369.876,2402.775,366.714,2398.876,366.714z"/>
	<polygon fill="#466EB6" points="2348.384,629.066 2308.014,647.673 2308.014,651.796 2451.781,651.796 2451.781,647.673 
		2411.048,629.066 	"/>
	<rect x="2348.384" y="549.311" fill="#466EB6" width="62.689" height="79.789"/>
	<path fill="#466EB6" d="M2569.426,574.343V394.419c0-8.547-6.926-15.478-15.477-15.478h-348.849
		c-8.55,0-15.479,6.931-15.479,15.478v179.922L2569.426,574.343L2569.426,574.343z"/>
	<rect x="2308.014" y="647.673" opacity="0.3" fill="#184655" enable-background="new    " width="143.768" height="4.121"/>
	<rect x="2348.384" y="619.703" opacity="0.3" fill="#184655" enable-background="new    " width="62.664" height="9.363"/>
	<path fill="#5184CE" d="M2189.621,574.343v28.829c0,5.998,3.964,10.86,8.854,10.86h362.099c4.89,0,8.855-4.862,8.855-10.86v-28.829
		H2189.621z"/>
	<circle fill="#184655" cx="2380.123" cy="373.783" r="3.527"/>
	<path fill="#CCE6FF" d="M2560.537,566.529V394.9c0-4.499-3.777-8.146-8.439-8.146h-345.146c-4.661,0-8.438,3.647-8.438,8.146
		v171.629H2560.537L2560.537,566.529z"/>
	<rect x="2214.41" y="400.608" fill="#E9FFFF" width="217.596" height="151.835"/>
	<rect x="2214.41" y="400.608" fill="#5184CE" width="217.596" height="17.778"/>
	<rect x="2509.441" y="438.595" opacity="0.6" fill="#9BC1F9" enable-background="new    " width="14.854" height="114.966"/>
	<rect x="2488.699" y="473.664" opacity="0.6" fill="#9BC1F9" enable-background="new    " width="14.852" height="79.898"/>
	<rect x="2530.484" y="463.504" opacity="0.6" fill="#9BC1F9" enable-background="new    " width="14.852" height="90.058"/>
	<rect x="2467.957" y="459.962" opacity="0.6" fill="#9BC1F9" enable-background="new    " width="14.854" height="93.6"/>
	<rect x="2447.212" y="487.714" opacity="0.6" fill="#9BC1F9" enable-background="new    " width="14.855" height="65.847"/>
	<g>
		<rect x="2509.441" y="465.092" opacity="0.3" fill="#9BC1F9" enable-background="new    " width="14.854" height="88.47"/>
		<rect x="2488.699" y="492.077" opacity="0.3" fill="#9BC1F9" enable-background="new    " width="14.852" height="61.484"/>
		<rect x="2530.484" y="484.259" opacity="0.3" fill="#9BC1F9" enable-background="new    " width="14.852" height="69.303"/>
		<rect x="2467.957" y="481.534" opacity="0.3" fill="#9BC1F9" enable-background="new    " width="14.854" height="72.027"/>
		<rect x="2447.212" y="502.891" opacity="0.3" fill="#9BC1F9" enable-background="new    " width="14.855" height="50.67"/>
	</g>
	<rect x="2221.918" y="425.707" opacity="0.6" fill="#9BC1F9" enable-background="new    " width="200.838" height="25.779"/>
	<rect x="2293.491" y="458.807" opacity="0.6" fill="#9BC1F9" enable-background="new    " width="129.269" height="6.607"/>
	<rect x="2221.918" y="458.807" fill="#5184CE" width="63.593" height="76.247"/>
	<rect x="2293.491" y="472.734" opacity="0.6" fill="#9BC1F9" enable-background="new    " width="129.269" height="6.605"/>
	<rect x="2293.491" y="514.519" opacity="0.6" fill="#9BC1F9" enable-background="new    " width="129.269" height="6.607"/>
	<rect x="2293.491" y="528.446" opacity="0.6" fill="#9BC1F9" enable-background="new    " width="129.269" height="6.607"/>
	<path fill="#F7CC7F" d="M2131.135,486.149l120.736-0.218c1.813-0.002,3.285,1.463,3.289,3.277l0.288,159.094
		c0.001,1.813-1.467,3.285-3.278,3.289l-120.738,0.218c-1.812,0.004-3.284-1.466-3.289-3.278l-0.284-159.093
		C2127.854,487.623,2129.323,486.152,2131.135,486.149z"/>
	
		<rect x="2134.625" y="490.661" transform="matrix(-1 0.0018 -0.0018 -1 4384.3159 1132.8905)" fill="#FFFFFF" width="114.051" height="155.501"/>
	<path fill="#13375B" d="M2216.225,483.798c0-0.699-0.57-1.266-1.271-1.264l-47.886,0.087c-0.699,0.001-1.266,0.57-1.264,1.27
		l0.009,4.977l50.42-0.091L2216.225,483.798z"/>
	<path fill="#13375B" d="M2191.001,476.526c-4.171,0.007-7.547,3.396-7.538,7.566c0.007,4.171,3.394,7.544,7.563,7.539
		c4.173-0.007,7.549-3.396,7.54-7.565C2198.559,479.893,2195.171,476.519,2191.001,476.526z M2191.024,488.922
		c-2.675,0.006-4.85-2.16-4.855-4.833c-0.003-2.676,2.161-4.85,4.837-4.854c2.676-0.003,4.847,2.16,4.852,4.836
		C2195.862,486.745,2193.698,488.916,2191.024,488.922z"/>
	<g>
		<path fill="#355389" d="M2215.448,482.632c0.456,0.191,0.776,0.641,0.776,1.166l0.009,4.977l-50.42,0.092
			c0.006,3.447,2.805,6.24,6.254,6.233l37.931-0.07c3.451-0.005,6.239-2.806,6.234-6.255l-0.008-4.977
			C2216.225,483.273,2215.904,482.823,2215.448,482.632z"/>
		<path fill="#9BC1F9" d="M2167.068,482.621L2167.068,482.621c-0.438,0-0.823,0.223-1.05,0.561
			C2166.245,482.843,2166.631,482.621,2167.068,482.621z"/>
		<path fill="#9BC1F9" d="M2165.861,483.513c0.023-0.08,0.055-0.156,0.094-0.228
			C2165.916,483.357,2165.885,483.434,2165.861,483.513z"/>
	</g>
	<g>
		<path fill="#184655" d="M2235.458,536.432l-16.212,0.029l-0.031-16.211l16.213-0.03L2235.458,536.432z M2219.906,535.796
			l14.888-0.026l-0.026-14.888l-14.888,0.028L2219.906,535.796z"/>
	</g>
	<g>
		<path fill="#184655" d="M2235.506,563.408l-16.213,0.028l-0.029-16.211l16.213-0.029L2235.506,563.408z M2219.955,562.775
			l14.888-0.028l-0.026-14.889l-14.891,0.028L2219.955,562.775z"/>
	</g>
	<g>
		<path fill="#184655" d="M2235.555,590.387l-16.212,0.028l-0.03-16.213l16.213-0.028L2235.555,590.387z M2220.004,589.751
			l14.888-0.028l-0.026-14.886l-14.889,0.026L2220.004,589.751z"/>
	</g>
	<g>
		<path fill="#184655" d="M2235.604,617.363l-16.212,0.029l-0.031-16.214l16.214-0.028L2235.604,617.363z M2220.053,616.729
			l14.885-0.028l-0.023-14.887l-14.889,0.027L2220.053,616.729z"/>
	</g>
	
		<rect x="2143.041" y="520.654" transform="matrix(-1 0.0018 -0.0018 -1 4356.4121 1039.6891)" fill="#9BC1F9" width="69.387" height="2.336"/>
	
		<rect x="2143.052" y="527.263" transform="matrix(-1 0.0018 -0.0018 -1 4356.4453 1052.9072)" fill="#9BC1F9" width="69.386" height="2.336"/>
	
		<rect x="2143.064" y="533.87" transform="matrix(-1 0.0018 -0.0018 -1 4356.4751 1066.1504)" fill="#9BC1F9" width="69.387" height="2.334"/>
	
		<rect x="2143.09" y="548.552" transform="matrix(-1 0.0018 -0.0018 -1 4356.5542 1095.5127)" fill="#9BC1F9" width="69.387" height="2.333"/>
	
		<rect x="2143.102" y="555.161" transform="matrix(-1 0.0018 -0.0018 -1 4356.5962 1108.7007)" fill="#9BC1F9" width="69.387" height="2.334"/>
	
		<rect x="2143.114" y="561.769" transform="matrix(-1 0.0018 -0.0018 -1 4356.6104 1122.0084)" fill="#9BC1F9" width="69.387" height="2.334"/>
	
		<rect x="2143.138" y="574.986" transform="matrix(-1 0.0018 -0.0018 -1 4356.7041 1148.3518)" fill="#9BC1F9" width="69.387" height="2.335"/>
	
		<rect x="2143.149" y="581.595" transform="matrix(-1 0.0018 -0.0018 -1 4356.7544 1161.5078)" fill="#9BC1F9" width="69.385" height="2.334"/>
	
		<rect x="2143.162" y="588.202" transform="matrix(-1 0.0018 -0.0018 -1 4356.7695 1174.8131)" fill="#9BC1F9" width="69.387" height="2.333"/>
	
		<rect x="2143.184" y="601.42" transform="matrix(-1 0.0018 -0.0018 -1 4356.8452 1201.22)" fill="#9BC1F9" width="69.387" height="2.334"/>
	
		<rect x="2143.197" y="608.028" transform="matrix(-1 0.0018 -0.0018 -1 4356.875 1214.4644)" fill="#9BC1F9" width="69.388" height="2.332"/>
	
		<rect x="2143.208" y="614.636" transform="matrix(-1 0.0018 -0.0018 -1 4356.9106 1227.6802)" fill="#9BC1F9" width="69.389" height="2.333"/>
	
		<rect x="2143.241" y="631.712" transform="matrix(-1 0.0018 -0.0018 -1 4367.6533 1261.8662)" fill="#9BC1F9" width="80.048" height="2.332"/>
	
		<rect x="2143.251" y="637.352" transform="matrix(-1 0.0018 -0.0018 -1 4383.4912 1273.0598)" fill="#9BC1F9" width="95.835" height="2.332"/>
	<g>
		<polygon fill="#F47458" points="2227.272,533.78 2222.236,525.143 2224.037,524.093 2226.961,529.107 2231.73,517.661 
			2233.654,518.465 		"/>
	</g>
	<g>
		<polygon fill="#F47458" points="2227.321,561.11 2222.286,552.474 2224.086,551.424 2227.011,556.438 2231.779,544.993 
			2233.706,545.796 		"/>
	</g>
	<g>
		<polygon fill="#F47458" points="2227.416,614.546 2222.38,605.909 2224.183,604.857 2227.105,609.872 2231.876,598.426 
			2233.801,599.229 		"/>
	</g>
	<polygon fill="#F47458" points="2233.026,578.203 2231.575,576.739 2227.431,580.843 2223.273,576.754 2221.826,578.225 
		2225.965,582.297 2221.843,586.384 2223.293,587.849 2227.438,583.743 2231.594,587.833 2233.041,586.364 2228.901,582.292 	"/>
	<path opacity="0.3" fill="#9BC1F9" enable-background="new    " d="M2146.233,594.102c-4.034,0.006-7.946,0.81-11.557,2.331
		l0.007,3.799c3.49-1.709,7.413-2.679,11.556-2.685c14.575-0.025,26.454,11.81,26.48,26.386c0.018,9.338-4.837,17.568-12.16,22.286
		l5.692-0.009c0.408-0.368,0.809-0.748,1.2-1.141c5.634-5.652,8.728-13.162,8.713-21.143c-0.015-7.981-3.136-15.479-8.791-21.112
		C2161.722,597.182,2154.213,594.087,2146.233,594.102z"/>
	<path opacity="0.3" fill="#9BC1F9" enable-background="new    " d="M2146.248,602.202c-4.246,0.006-8.207,1.235-11.555,3.35
		l0.005,2.069c3.265-2.32,7.25-3.688,11.554-3.698c11.057-0.018,20.071,8.962,20.09,20.021c0.02,11.059-8.961,20.071-20.021,20.093
		c-4.301,0.006-8.293-1.349-11.565-3.656l0.003,2.068c3.356,2.104,7.324,3.316,11.567,3.309
		c12.009-0.022,21.761-9.808,21.739-21.815C2168.044,611.932,2158.256,602.179,2146.248,602.202z"/>
	<g>
		<g>
			<g>
				<path fill="#50BFA5" d="M2340.01,303.852l-2.201,8.583l6.736-3.784l20.12-7.419l-14.827-0.412c0,0-7.688,0.922-8.136,1.239
					C2341.253,302.377,2340.01,303.852,2340.01,303.852z"/>
				<polygon fill="#96D9C9" points="2334.146,297.807 2364.665,301.232 2340.01,303.852 				"/>
				<polygon fill="#96D9C9" points="2348.764,313.798 2341.541,306.425 2364.665,301.232 				"/>
			</g>
			<g>
				<g>
					<path fill="#9BC1F9" d="M2293.761,330.118c0.173-0.683,0.391-1.368,0.644-2.037c0.232-0.614,0.498-1.23,0.795-1.83l0.648,0.321
						c-0.284,0.577-0.543,1.171-0.767,1.764c-0.245,0.645-0.453,1.304-0.62,1.962c-0.051,0.192-0.097,0.388-0.142,0.582
						l-0.704-0.158C2293.66,330.518,2293.709,330.314,2293.761,330.118z M2297.741,322.257c0.943-1.194,2.036-2.35,3.246-3.432
						l0.483,0.538c-1.181,1.056-2.245,2.18-3.161,3.342L2297.741,322.257z M2320.687,323.548c-0.04-0.03-0.078-0.063-0.117-0.095
						l0.471-0.549c0.034,0.027,0.065,0.055,0.096,0.078c0,0,0.019,0.012,0.068,0.032c0.379,0.143,1.409,0.266,2.024-0.01
						c0.519-0.231,0.963-0.627,1.319-1.178l0.607,0.393c-0.428,0.661-0.992,1.162-1.632,1.446c-0.857,0.381-2.1,0.206-2.574,0.027
						C2320.838,323.648,2320.751,323.6,2320.687,323.548z M2304.725,315.948c1.285-0.853,2.66-1.644,4.086-2.351l0.321,0.647
						c-1.399,0.694-2.746,1.47-4.005,2.305L2304.725,315.948z M2318.486,317.602c0.082-0.688,0.254-1.388,0.515-2.078
						c0.138-0.37,0.306-0.744,0.498-1.112l0.642,0.333c-0.18,0.343-0.336,0.692-0.464,1.035c-0.24,0.634-0.397,1.276-0.472,1.906
						c-0.052,0.448-0.059,0.905-0.019,1.358l-0.72,0.063C2318.421,318.605,2318.428,318.098,2318.486,317.602z M2322.374,314.358
						l-0.087-0.054l0.385-0.613l0.093,0.059c1.396,0.895,2.477,2.233,2.964,3.671l-0.687,0.232
						C2324.607,316.367,2323.635,315.166,2322.374,314.358z M2313.388,312.297c0.824-0.149,2.325-0.389,3.094-0.334
						c0.597,0.042,1.141,0.102,1.665,0.18l-0.107,0.715c-0.508-0.076-1.03-0.132-1.607-0.174c-0.505-0.036-1.568,0.082-2.917,0.325
						L2313.388,312.297z M2322.438,310.655c1.168-1.08,2.493-1.979,3.936-2.676l0.314,0.651c-1.378,0.667-2.645,1.526-3.761,2.556
						L2322.438,310.655z"/>
				</g>
				<g>
					<path fill="#9BC1F9" d="M2331.026,307.283c0.78-0.118,1.561-0.17,2.318-0.157l0.015-0.723c-0.8-0.015-1.619,0.041-2.44,0.165
						L2331.026,307.283z"/>
				</g>
			</g>
		</g>
		<g>
			<path fill="#A34B3D" d="M2277.216,318.044c0.437,0.018,1.631,0.417,3.375,3.715c2.229,4.21,5.484,16.932,5.484,16.932
				l-9.721,3.621l-1.249-2.656l-2.057-20.441C2273.05,319.215,2277.098,318.039,2277.216,318.044z"/>
			<path fill="#B75742" d="M2264.367,316.21c2.778,0.004,9.657,0.815,12.849,1.835c0,0,2.345,20.156-2.109,35.474
				c-0.997,3.427,0.825,14.212,0.825,14.212l-28.804-0.381c0,0,3.411-26.071,2.125-30.283c-1.285-4.211-1.315-18.887-1.315-18.887
				s0.196-0.031,6.473-1.115C2257.335,316.558,2261.399,316.207,2264.367,316.21z"/>
			<path fill="#F7A491" d="M2261.012,405.142c0,0,0.638,7.356,1.809,9.392c1.171,2.037-0.062,5.499-0.124,5.975
				c-0.061,0.476-2.467,1.153-6.29,0.746c-3.823-0.407-3.761-1.29-3.455-2.715c0.311-1.427,2.346-3.257,2.469-4.617
				c0.122-1.358-1.173-6.245-1.173-6.245L2261.012,405.142z"/>
			<path fill="#E0973F" d="M2272.683,361.66c0,0,19.883-1.104,24.321,1.584c4.441,2.689-3.153,15.888-3.153,15.888
				s-13.836-0.638-40.937,0.925c-6.418,0.372-6.971-16.731-5.771-18.147C2248.344,360.495,2272.683,361.66,2272.683,361.66z"/>
			<path fill="#DD513A" d="M2255.93,421.826c-3.937-0.419-3.45-2.354-3.133-3.821c0.199-0.92,1.329-2.002,2.003-3.029
				c0.351,0.281,0.925,0.775,2.632,1.28c1.776,0.525,4.212-0.514,5.762-1.164c0.552,2.058,0.578,4.681,0.526,5.078
				C2263.655,420.662,2259.867,422.247,2255.93,421.826z"/>
			<path fill="#F7CC7F" d="M2258.103,375.886c0.795,6.011,4.729,35.937,4.729,35.937l-9.128,1.131c0,0-11.223-39.061-10.646-45.035
				c0.576-5.974,4.776-6.478,4.776-6.478S2256,359.971,2258.103,375.886z"/>
			<path fill="#F7A491" d="M2247.625,320.421c2.691-1.01,4.011,23.256,4.373,33.244c4.77,0.459,13.08,0.005,15.152-0.15
				c0.973-0.075,3.218-0.896,4.186-1.023c0.991-0.131,1.892-0.198,2.379-0.114c0.18,0.032,5.15,2.064,5.574,2.51
				c0.528,0.553,1.955,1.949,1.713,2.551c-0.238,0.603-2.74-1.681-2.74-1.681l-1.223-0.685c1.522,1.487,4.424,3.445,4.006,4.157
				c-0.408,0.696-3.026-1.292-4.893-2.645c1.601,1.445,3.59,4.033,3.131,4.435c-0.411,0.363-2.674-2.632-5.092-3.496
				c-0.895-0.32-1.787,0.566-2.494,0.673c-0.515,0.079-1.315,0.247-1.824,0.102l-2.617-0.742c-0.892,0.081-0.913,0.609-1.814,0.8
				c-1.045,0.222-2.76,0.457-4.09,0.781c-7.668,1.874-10.225,2.743-12.572,2.742
				C2241.672,361.876,2241.259,322.809,2247.625,320.421z"/>
			<path fill="#A34B3D" d="M2242.513,343.203c-0.505-10.231-0.433-22.841,5.306-24.993c2.262-0.849,6.251,4.256,5.533,25.201
				C2250.291,343.663,2245.796,343.867,2242.513,343.203z"/>
			<path fill="#F7A491" d="M2288.654,412.274c0,0-1.32,2.328-0.282,4.279c1.036,1.951,6.478,4.823,7.046,5.882
				c0.565,1.057,0.342,1.806,0.342,1.806l-16.157-3.961l1.238-4.869l1.513-3.367L2288.654,412.274z"/>
			<path fill="#DD513A" d="M2289.205,417.595c0,0-4.542,0.788-6.344-0.65c-1.801-1.436-1.682-1.701-2.345-1.451
				c-0.426,0.158-1.076,2.097-1.489,3.462c-0.218,0.728,0.223,1.489,0.958,1.671l16.824,4.156c1.278,0.246,2.124-0.552,1.265-1.577
				c-0.59-0.701-1.329-1.249-1.737-1.616C2295.084,420.463,2289.205,417.595,2289.205,417.595z"/>
			<path fill="#F7CC7F" d="M2287.069,366.374c1.284-2.705,4.208-6.227,9.351-4.106c4.906,2.022,6.223,6.995,4.674,12.085
				c-1.548,5.091-11.735,35.022-12.09,39.136l-8.138,0.053c0,0,1.479-23.698,1.842-29.426
				C2283.058,378.606,2284.845,371.055,2287.069,366.374z"/>
			<path fill="#184655" d="M2300.277,338.808h-27.197c-0.721,0-1.368,0.436-1.641,1.104l-8.374,20.494h-14.994
				c-0.418,0-0.758,0.34-0.758,0.761l0,0c0,0.42,0.34,0.76,0.758,0.76h42.673c1.173,0,2.237-0.69,2.718-1.764l8.432-18.847
				C2302.422,340.139,2301.562,338.808,2300.277,338.808z"/>
			<path fill="#FFFFFF" d="M2285.635,350.74c-0.184,0.92-0.984,1.537-1.787,1.375c-0.804-0.162-1.306-1.039-1.123-1.959
				c0.185-0.919,0.984-1.534,1.788-1.374C2285.315,348.943,2285.818,349.819,2285.635,350.74z"/>
			<g>
				<path fill="#0E2E35" d="M2270.83,291.591c-0.818-0.275-1.624-0.587-2.406-0.963c-0.881-0.424-2.021-0.922-2.741-1.033
					c-1.519-0.234-4.127-0.078-5.568,1.483c-1.793,1.946-4.98,0.352-4.338,10.543c0.729,11.537,7.143,10.27,7.298,10.074
					c0.155-0.195,5.721-7.379,5.721-7.379s1.945,4.256,1.945,4.099C2270.74,308.266,2280.676,294.907,2270.83,291.591z"/>
				<path fill="#F7A491" d="M2265.961,312.548l0.555,4.123c0,0,1.239,5.938-0.356,7.083c-1.597,1.145-6.785-7.253-6.785-7.253
					l0.545-10.445L2265.961,312.548z"/>
				<path fill="#F47458" d="M2259.744,309.442c1.318,3.563,4.459,5.752,6.688,6.603l-0.472-3.496l-6.041-6.492L2259.744,309.442z"/>
				<path fill="#F7A491" d="M2265.634,294.689c3.381-0.545,6.413,2.174,6.328,5.56c-0.036,1.472-0.156,3.309-0.461,5.287
					c-0.737,4.758-3.982,8.948-6.13,8.575c-2.146-0.375-7.547-4.479-6.598-11.25
					C2259.361,298.679,2262.084,295.262,2265.634,294.689z"/>
				<path fill="#F7A491" d="M2260.266,303.667c-0.182,1.046-1.021,1.775-1.873,1.626s-1.398-1.118-1.217-2.164
					c0.183-1.046,1.022-1.774,1.872-1.625C2259.9,301.653,2260.444,302.622,2260.266,303.667z"/>
				<path fill="#0E2E35" d="M2259.048,301.505c0,0,2.596,0.644,3.56-1.025c0.962-1.67,4.408-5.271,8.785-3.778
					c4.379,1.494-3.854-3.631-4.203-3.631c-0.351,0-4.554-0.029-4.554-0.029s-3.24,2.665-3.356,2.957
					c-0.117,0.292-1.052,3.485-1.052,3.485L2259.048,301.505z"/>
			</g>
			<path fill="#FFFFFF" d="M2263.797,308.469l4.721,0.903c0,0-0.45,1.779-2.538,1.442
				C2263.434,310.404,2263.797,308.469,2263.797,308.469z"/>
		</g>
	</g>
	<g>
		<path fill="#F7A491" d="M2318.735,633.636c0,0-0.861,6.031-2.351,7.974c-0.497,0.655-1.411,1.481-2.01,2.661
			c-0.93,1.836-0.415,4.57,0.271,6.08c0.353,0.77-0.023,0.769,0.778,1.021c2.379,0.735,4.91-0.507,5.924-2.797
			c0.563-1.28,1.06-2.987,1.159-5.139c0.254-5.475,1.948-8.258,1.948-8.258L2318.735,633.636z"/>
		<path fill="#F7A491" d="M2344.752,636.393c0,0,0.534,6.799,0.1,9.011c-0.231,1.182-1.523,3.619-0.931,4.73
			c0.593,1.114,1.271,1.392,1.271,1.392l15.357,0.25c0.834,0.014,0.284-0.529-0.393-1.026c-1.102-0.816-1.995-1.356-5.52-3.074
			c-0.23-0.109-1.068-0.646-1.37-0.831c-0.766-0.47-1.534-1.212-2.194-1.953c-1.105-1.232-1.201-7.22-1.201-7.22L2344.752,636.393z"
			/>
		<path fill="#E25A44" d="M2356.754,546.02c0,0,1.934,11.037,0.666,18.273c-1.271,7.238-7.365,74.32-7.365,74.32l-6.772,0.385
			c0,0-1.42-28.022-1.164-31.918c0.255-3.897,2.263-10.419,2.263-10.419l-0.674-22.624l8.545-29.722L2356.754,546.02z"/>
		<path fill="#F47458" d="M2336.852,543.697c0,0-5.334,8.071-6.604,14.752c-1.269,6.68,0.933,27.21-1.51,35.966
			c-1.321,4.736-6.333,12.055-7.096,18.179c-0.762,6.124-3.75,22.167-3.75,22.167l6.771,1.347l15.731-40.06l12.34-36.209
			l3.162-18.648L2336.852,543.697z"/>
		<path fill="#F7CC7F" d="M2321.808,647.37c-3.688,0.675-6.144-1.496-7.421-3.12c-0.938,1.84-1.396,4.589-0.706,6.101
			c0.608,1.331,2.382,1.292,3.781,1.344c1.479,0.056,2.621-0.771,3.354-2.064C2321.159,649.024,2321.512,648.272,2321.808,647.37z"
			/>
		<path fill="#F7CC7F" d="M2353.265,646.844c-4.062,1.045-7.064,0.332-8.742-0.348c-0.435,1.234-1.008,2.784-0.703,3.677
			c0.371,1.092,0.903,1.342,1.373,1.353c3.708,0.098,13.587,0.231,16.416,0.269c0.396,0.004,0.613-0.46,0.36-0.764
			C2361.266,650.188,2353.566,647.027,2353.265,646.844z"/>
		<path fill="#F38B80" d="M2381.063,526.95c0.282-0.602-2.702-1.422-2.798-2.068c-0.096-0.649,3.901-0.284,4.103-0.822
			c0.371-0.997-4.354-0.669-4.213-1.138s4.995-1.046,4.568-1.917c-0.429-0.872-4.973,1.123-5.047,0.552
			c-0.07-0.57,4.396-1.474,4.446-2.701c0.025-0.658-7.437,2.514-8.22,2.075c-0.783-0.44,1.233-3.328,0.629-3.852
			c-0.602-0.521-3.221,5.519-3.696,5.693c-0.47,0.178-10.71,3.272-14.193,3.786c-0.293-1.178-2.912-7.668-3.164-8.778
			c-2.044,1.156-4.647-0.236-6.74,0.795c1.053,3.714,3.417,15.949,4.363,16.5c2.876,1.678,18.019-6.321,20.521-7.738
			c2.504-1.416,3.786-0.741,5.415-1.1C2378.669,525.878,2380.777,527.551,2381.063,526.95z"/>
		<path fill="#0E2E35" d="M2354.12,490.909c0.762-3.462,1.509-6.946-0.501-10.751c-1.623-3.077-4.434-4.848-7.686-5.233
			c-9.21-1.094-7.24,7.505-20.115,9.366c-4,0.578-7.717,1.135-11.057,3.124c-6.029,3.594-8.307,9.357-4.307,18.745
			c9.794,22.987,33.226,3.011,36.801-1.056C2350.801,501.069,2353.629,493.137,2354.12,490.909z"/>
		<path fill="#F7CC7F" d="M2339.623,501.836c0,0-4.65,0.527-7.433,3.553c-2.782,3.027,4.496,27.353,5.002,31.204
			c0.506,3.852-4.837,14.511-4.837,14.511s18.161,3.61,22.884,0.492c0,0,0.415-29.768-0.092-32.518
			c-0.506-2.751-4.722-13.941-5.733-15.04C2348.403,502.936,2339.623,501.836,2339.623,501.836z"/>
		<path fill="#F7A491" d="M2341.965,492.458c0,0-0.038,0.207-0.104,0.559c-0.314,1.687-1.521,7.284-2.336,8.823
			c-0.985,1.858,3.373,7.789,7.572,7.066c1.249-0.216-1.057-5.45-0.947-6.005c0.213-1.061,0.5-2.509,0.795-3.994
			c0.166-0.836,0.333-1.687,0.492-2.483c0.449-2.267,0.814-4.122,0.814-4.122L2341.965,492.458z"/>
		<path opacity="0.5" fill="#F47458" enable-background="new    " d="M2341.862,493.018c0.064-0.353,0.103-0.559,0.103-0.559
			l6.287-0.156c0,0-0.365,1.855-0.814,4.122c-0.157,0.795-0.324,1.639-0.488,2.47c-0.972-0.143-1.986-0.612-3.004-1.5
			c-1.107-0.97-1.835-2.134-2.272-3.378C2341.749,493.619,2341.813,493.278,2341.862,493.018z"/>
		<path fill="#F7A491" d="M2345.746,477.512c0,0-2.564,0.357-4.423,2.755c-1.857,2.397-3.859,9.814,0.756,13.846
			c4.615,4.031,9.176-0.533,9.852-5.371C2352.606,483.903,2352.47,477.337,2345.746,477.512z"/>
		<path fill="#F7A491" d="M2353.275,487.548c-0.291,1.167-1.056,1.954-1.707,1.761c-0.65-0.194-0.943-1.298-0.652-2.464
			c0.29-1.167,1.056-1.956,1.707-1.762C2353.274,485.277,2353.566,486.379,2353.275,487.548z"/>
		<path fill="#0E2E35" d="M2348.597,477.534c0,0-6.029,6.918-8.862,7.245c-2.831,0.326-3.204,4.073-3.204,4.073
			s1.014-8.636,3.819-10.3C2343.152,476.886,2348.597,477.534,2348.597,477.534z"/>
		<path fill="#F7A491" d="M2340.66,486.459c0.232,1.251-0.232,2.399-1.033,2.564c-0.803,0.165-1.64-0.717-1.869-1.97
			c-0.23-1.251,0.233-2.399,1.034-2.565C2339.594,484.325,2340.432,485.208,2340.66,486.459z"/>
		<path fill="#184655" d="M2340.574,521.577l19.477,2.851c0.585,0.085,0.99,0.628,0.904,1.213l-3.8,25.983
			c-0.087,0.586-0.631,0.99-1.216,0.905l-19.476-2.85c-0.585-0.084-0.991-0.631-0.903-1.216l3.799-25.98
			C2339.445,521.896,2339.989,521.493,2340.574,521.577z"/>
		<path fill="#13375B" d="M2355.102,522.841c0.018-0.12-0.065-0.229-0.183-0.245l-8.125-1.189c-0.117-0.019-0.229,0.065-0.245,0.183
			l-0.124,0.845l8.554,1.25L2355.102,522.841z"/>
		<path fill="#13375B" d="M2351.007,520.975c-0.708-0.104-1.365,0.385-1.468,1.094c-0.105,0.707,0.386,1.363,1.092,1.467
			c0.707,0.104,1.367-0.385,1.469-1.094C2352.204,521.736,2351.714,521.079,2351.007,520.975z M2350.697,523.077
			c-0.452-0.067-0.767-0.489-0.7-0.942c0.067-0.455,0.488-0.767,0.942-0.701c0.453,0.065,0.768,0.489,0.7,0.939
			C2351.574,522.829,2351.153,523.143,2350.697,523.077z"/>
		<path fill="#355389" d="M2354.998,522.625c0.075,0.044,0.116,0.128,0.104,0.216l-0.123,0.844l-8.554-1.25
			c-0.087,0.584,0.319,1.129,0.903,1.214l6.434,0.94c0.586,0.086,1.131-0.32,1.217-0.905l0.123-0.844
			C2355.114,522.753,2355.073,522.668,2354.998,522.625z"/>
		<path fill="#FFFFFF" d="M2349.045,491.139l-4.384-0.021c0,0,0.091,1.665,2.021,1.729
			C2349.029,492.928,2349.045,491.139,2349.045,491.139z"/>
		<path fill="#F7A491" d="M2326.911,528.222l7.058,0.721c0,0-0.115,5.989,0.005,6.679c0,0,12.067,3.344,17.11,4.252
			c0,0,2.297-1.303,3.227-1.714c0.929-0.415,3.424-0.867,3.977-0.938c0.554-0.074,0.366,0.532-0.109,0.743
			c-0.475,0.213-1.701,0.79-2.051,1.496c0,0,0.996,0.111,1.524-0.124s1.255-0.732,1.265-0.991c0.012-0.257,0.131-0.878,0.305-0.845
			c0.044,0.008,0.102,0.212,0.161,0.427c0.058,0.201,0.116,0.411,0.165,0.613c0.088,0.369,0.19,0.904,0.23,1.145
			c0.09,0.552-0.246,2.067-0.294,2.608c-0.086,0.982-0.367,1.42-0.887,1.671c-0.835,0.292-1.723,0.477-3.032,0.612
			c-2.4,0.249-4.608-0.443-5.57-0.551c-0.961-0.107-16.326-1.631-16.326-1.631s-6.108-0.879-6.516-1.932
			C2326.749,539.411,2326.911,528.222,2326.911,528.222z"/>
		<path fill="#F7CC7F" d="M2333.04,504.51c0,0-2.227,1.058-4.184,5.619c-1.86,4.334-2.408,25.967-2.408,25.967l7.383-1.231
			l3.752-10.087c2.672-6.036,1.981-13.064-1.911-18.396C2334.632,504.961,2333.674,504.101,2333.04,504.51z"/>
	</g>
	<rect x="2449.436" y="400.594" opacity="0.6" fill="#9BC1F9" enable-background="new    " width="31.331" height="31.331"/>
	<rect x="2486.309" y="400.594" opacity="0.6" fill="#9BC1F9" enable-background="new    " width="61.119" height="4.257"/>
	<rect x="2486.309" y="409.619" opacity="0.6" fill="#9BC1F9" enable-background="new    " width="41.246" height="4.256"/>
	<rect x="2486.309" y="418.642" opacity="0.6" fill="#9BC1F9" enable-background="new    " width="54.902" height="4.258"/>
	<g>
		<path fill="#F7A491" d="M2568.462,504.604c-1.281-1.041-11.188,3.304-11.06,4.816c0.125,1.514-6.912,16.179-6.912,16.179
			l-12.158-9.695l-0.006,0.004c-0.107-0.352-1.26-4.123-1.317-4.798c-0.059-0.708-2.111-1.945-3.067-1.761
			c-0.955,0.181,0.814,1.377,0.93,1.597c0.318,0.6-0.903,0.823-0.903,0.823s-3.473-1.114-3.548-2.247
			c-0.074-1.135-2.451,1.982-2.17,2.416c0.27,0.424,5.943,4.997,6.763,5.988c0,0,15.729,17.981,16.85,18.452
			c0.982,0.411,4.485-5.785,7.795-9.897C2562.969,522.363,2572.463,507.857,2568.462,504.604z"/>
		<path fill="#F48C7F" d="M2600.197,636.813c0,0,2.162,2.109,2.209,2.885c0.051,0.772,0.191,9.063-0.69,9.838
			c-0.881,0.773-3.474,1.322-2.642,2.195c0.631,0.656,5.477,0.516,8.686,0.339c0.939-0.052,2.113-7.531,2.484-8.629
			c0.539-1.598,1.852-5.193,1.36-6.306c-0.239-0.541-1.38-1.654-2.991-2.694c-1.693-1.095-3.314-3.531-3.314-3.531L2600.197,636.813
			z"/>
		<path fill="#F7A491" d="M2577.81,641.725c0,0,1.933,5.463,1.935,5.478c0.145,0.865,0.711,3.004,0.711,3.79
			c0,2.958-13.333-2.509-10.347-3.818c0.271-0.117,1.12-1.067,1.208-2.071c0.135-1.55-1.123-3.495-1.123-3.495L2577.81,641.725z"/>
		<g>
			<path fill="#50BFA5" d="M2556.893,539.979c0,0-0.975,9.793-0.975,9.938c0,15.845-3.139,46.797-2.542,49.776
				c1.458,7.266,17.141,44.331,17.141,44.331l8.478-1.013l-9.099-44.791l2.116-17.449l5.754-35.311L2556.893,539.979z"/>
			<path fill="#96D9C9" d="M2585.341,548.643l1.608,9.284l4.352,38.207l16.572,37.344c0,0-2.332,5.434-5.771,6.195l-26.376-38.339
				l-16.385-49.061l0.576-10.896L2585.341,548.643z"/>
		</g>
		<path fill="#B75742" d="M2553.512,516.656l11.756,1.2c0,0,0.538-9.637,0.538-14.231c0-5.577-0.476-12.761-1.149-12.606
			c-1.891,0.433-4.437,1.477-5.951,3.56C2553.459,501.784,2553.512,516.656,2553.512,516.656z"/>
		<path fill="#F47458" d="M2559.285,502.642c-0.246,1.699-4.765,47.922-4.765,47.922c21.404,10.339,33.21,1.843,33.21,1.843
			s-0.697-32.459,0.142-36.877c0.556-2.922,1.247-22.348-0.648-22.892c-2.431-0.698-5.217-1.438-8.253-1.754
			c-2.596-0.268-12.666-0.425-14.471,0.18C2564.5,491.063,2560.322,495.489,2559.285,502.642z"/>
		<path fill="#F47458" d="M2608.511,634.387c0,0-4.982,14.025-6.933,14.701c-0.52,0.18-3.003,0.637-3.472,1.735
			c-0.14,0.33,0,1.436,0,1.436h10.384c0,0,1.313-6.179,1.83-8.894c0,0,2.748-6.634,2.445-7.236
			C2612.458,635.524,2608.511,634.387,2608.511,634.387z"/>
		<path fill="#F47458" d="M2581.213,651.968l-1.527-4.824c0,0-3.206,1.356-4.809,1.132c-1.604-0.227-4.734-1.132-4.734-1.132
			c-6.398,2.105-11.643,3.131-10.689,4.824l0,0H2581.213z"/>
		<g>
			<path fill="#F7A491" d="M2551.862,536.377c-0.05-0.021-0.224-0.157-0.323-0.241c0.38-4.528,0.311-8.918-1.109-10.399
				c0.035-0.073,0.346-0.733,0.67-1.418c1.646,1.276,2.431,4.66,2.123,10.152c-0.021,0.38-0.129,0.669-0.218,1.141
				C2552.527,536.135,2552.094,536.474,2551.862,536.377z"/>
		</g>
		<path fill="#F7A491" d="M2576.107,481.948l1.378,9.092c0,0-5.036,10.826-8.043,9.888c-2.522-0.789-0.972-10.368-0.972-10.368
			s1.375-5.144,0.963-7.719C2569.021,480.267,2576.107,481.948,2576.107,481.948z"/>
		<path fill="#F47458" d="M2569.434,482.841c-0.412-2.574,6.674-0.894,6.674-0.894l0.113,0.753
			c-0.205,0.505-0.459,0.938-0.767,1.269c-1.584,1.704-4.058,2.725-6.195,2.803C2569.473,485.384,2569.604,483.897,2569.434,482.841
			z"/>
		<g>
			<path fill="#F7A491" d="M2577.27,469.083c0.201-0.073,1.606,10.356-1.061,13.226c-2.665,2.87-7.861,3.809-9.726,1.548
				c-2.062-2.499-1.958-13.708,2.187-16.66C2572.818,464.246,2577.27,469.083,2577.27,469.083z"/>
			<path fill="#0E2E35" d="M2570.25,461.619c3.203,0.655,5.281,2.613,6.044,3.448c1.454,0.171,3.432,0.975,5.474,4.356
				c2.512,4.157,0.658,8.763-2.266,11.024c-2.924,2.26-2.883,4.87-2.883,4.87l-0.463-1.35c-0.34-1.022-0.48-2.107-0.366-3.179
				c0.069-0.645,0.208-1.342,0.47-1.915c0.706-1.508-1.508-2.512-2.129-3.767c-0.477-0.966-0.498-3.179-1.251-4.775l-0.9-1.221
				c0,0-2.073-1.615-4.103-1.159C2565.848,468.406,2566.139,460.78,2570.25,461.619z"/>
			
				<ellipse transform="matrix(0.9999 0.0171 -0.0171 0.9999 8.5168 -43.8899)" fill="#F7A491" cx="2575.545" cy="477.01" rx="1.33" ry="2.305"/>
		</g>
		<path fill="#FFFFFF" d="M2569.939,479.903l-4.021-0.209c0,0,0.015,1.532,1.78,1.674
			C2569.85,481.541,2569.939,479.903,2569.939,479.903z"/>
		<g>
			<path fill="#0E2E35" d="M2537.051,503.678c0.941-0.966,1.824-1.964,2.644-2.983l17.544,17.133
				c1.078,1.052,0.706,3.181-0.83,4.755c-1.535,1.573-3.656,1.993-4.732,0.941l-17.543-17.131
				C2535.129,505.55,2536.106,504.645,2537.051,503.678z"/>
			
				<ellipse transform="matrix(0.6987 -0.7154 0.7154 0.6987 416.8552 1934.2559)" opacity="0.6" fill="#C5DDF9" enable-background="new    " cx="2504.857" cy="472.22" rx="44.248" ry="44.522"/>
			<path fill="#FFFFFF" d="M2536.762,502.877c-7.279,7.738-17.231,12.795-28.17,13.79l-47.994-48.785
				c0.008-0.094,0.014-0.184,0.025-0.278c1.194-11.137,6.377-20.874,13.959-27.931L2536.762,502.877z"/>
			<path fill="#FFFFFF" d="M2504.479,427.804l44.385,45.114c-0.021,1.365-0.101,2.741-0.25,4.125
				c-0.677,6.306-2.633,12.16-5.573,17.335l-59.943-60.929C2489.479,429.859,2496.794,427.829,2504.479,427.804z"/>
			<path fill="#184655" d="M2469.909,508.025c19.889,19.423,51.657,19.145,70.959-0.62c19.304-19.764,18.827-51.533-1.058-70.955
				c-19.889-19.424-51.66-19.145-70.961,0.62C2449.547,456.835,2450.019,488.603,2469.909,508.025z M2473.94,503.896
				c-17.591-17.185-18.009-45.281-0.937-62.765c17.075-17.483,45.179-17.729,62.771-0.551c17.589,17.181,18.012,45.281,0.937,62.765
				C2519.639,520.828,2491.535,521.075,2473.94,503.896z"/>
			<path opacity="0.5" fill="#50BFA5" enable-background="new    " d="M2472.027,505.853c18.682,18.245,48.523,17.984,66.654-0.581
				c18.133-18.565,17.688-48.407-0.993-66.649c-18.683-18.243-48.524-17.985-66.653,0.582
				C2452.902,457.771,2453.348,487.608,2472.027,505.853z M2473.94,503.896c-17.591-17.185-18.009-45.281-0.937-62.765
				c17.075-17.483,45.179-17.729,62.771-0.551c17.589,17.181,18.012,45.281,0.937,62.765
				C2519.639,520.828,2491.535,521.075,2473.94,503.896z"/>
			<path fill="#184655" d="M2611.723,578.86l2.727-2.828c2.723-2.824,2.642-7.325-0.184-10.049l-50.646-49.106
				c-2.828-2.723-7.327-2.643-10.051,0.185l-2.729,2.829c-2.725,2.825-2.642,7.324,0.186,10.049l50.648,49.105
				C2604.499,581.769,2608.998,581.688,2611.723,578.86z"/>
		</g>
		<path fill="#F8A492" d="M2608.931,551.055c0.011-0.101,0.013-0.2,0.005-0.3c-0.315-3.2-2.976-30.079-3.422-31.223
			c-0.402-1.033-12.324-18.083-12.324-18.083l-5.859,7.983l11.465,15.292c0.258,0.972,4.393,19.116,4.393,19.116
			s0.848,3.307,1.227,5.288c-0.172,0.478-0.343,0.929-0.492,1.3c-0.381,0.791-0.827,1.439-1.239,1.983
			c-0.512,0.688-1.356,2.188-1.462,2.588c-0.121,0.468-0.341,1.438-0.464,2.022c-0.125,0.586-0.293,1.271-0.321,1.588
			c-0.019,0.192-0.217,0.578-0.369,0.851c-0.233,0.406,0.158,0.884,0.601,0.738c0.415-0.139,0.743-0.679,0.94-1.015
			c0.563-0.947,0.864-2.679,1.004-2.587c0.142,0.093,0.635,3.029,0.717,3.36c0.074,0.334,0.668,3.745,1.003,4.369
			c0.335,0.621,0.779,0.519,0.895,0.127c0.101-0.336-0.369-5.109-0.369-5.109s-0.06-0.609,0.208-0.418s0.704,4.522,0.887,5.158
			c0.187,0.635,0.609,0.969,0.969,0.46c0.436-0.621-0.314-5.215-0.314-5.215s-0.084-0.578,0.162-0.525
			c0.248,0.055,0.559,3.748,0.747,4.067c0.194,0.318,0.68,0.434,0.907-0.098c0.272-0.628-0.432-4.725-0.432-4.725
			s0.035-0.326,0.189-0.218c0.155,0.106,0.643,3.237,0.959,3.526c0.27,0.241,0.492,0.008,0.492,0.008
			c0.582-0.399-0.312-3.375-0.304-4.854c0.01-1.481-0.677-3.144-0.472-4.905C2608.869,551.495,2608.906,551.225,2608.931,551.055z"
			/>
		<path fill="#F47458" d="M2602.502,512.249l-10.183,6.837c0,0-5.739-8.54-8.82-11.58c-3.857-3.81,1.404-15.478,3.894-14.817
			C2592.955,494.164,2602.502,512.249,2602.502,512.249z"/>
	</g>
	<rect x="2116.782" y="651.136" fill="#0E2E35" width="506.672" height="3.024"/>
</g>
<g>
	<path d="M1750.608,732.404l9.37-34.255h8.578l9.318,34.255h-3.966l-2.429-8.677h-14.478l-2.429,8.677H1750.608z M1757.846,720.21
		h12.79l-5.104-18.69h-2.577L1757.846,720.21z"/>
	<path d="M1791.41,732.9c-2.61,0-4.661-0.439-6.146-1.314c-1.487-0.875-2.538-2.289-3.15-4.238
		c-0.611-1.946-0.915-4.527-0.915-7.733c0-3.007,0.338-5.428,1.016-7.264c0.676-1.834,1.776-3.164,3.297-3.99
		c1.521-0.825,3.503-1.238,5.948-1.238c0.563,0,1.246,0.041,2.057,0.124s1.645,0.182,2.507,0.297
		c0.856,0.117,1.601,0.224,2.229,0.322l-0.15,3.173c-0.563-0.065-1.207-0.13-1.933-0.199c-0.728-0.065-1.438-0.124-2.133-0.172
		c-0.695-0.049-1.273-0.076-1.733-0.076c-1.887,0-3.348,0.297-4.39,0.895c-1.041,0.594-1.769,1.543-2.181,2.851
		c-0.415,1.304-0.62,3.066-0.62,5.278c0,2.415,0.183,4.337,0.544,5.776c0.364,1.438,1.058,2.471,2.083,3.098
		c1.024,0.628,2.544,0.942,4.563,0.942c0.46,0,1.046-0.027,1.759-0.075c0.71-0.051,1.438-0.105,2.181-0.176
		c0.744-0.063,1.395-0.113,1.958-0.147l0.101,3.173c-0.664,0.1-1.423,0.199-2.282,0.299c-0.858,0.098-1.702,0.189-2.526,0.272
		C1792.665,732.858,1791.971,732.9,1791.41,732.9z"/>
	<path d="M1812.729,732.9c-2.613,0-4.661-0.439-6.149-1.314c-1.485-0.875-2.536-2.289-3.147-4.238
		c-0.611-1.946-0.919-4.527-0.919-7.733c0-3.007,0.34-5.428,1.018-7.264c0.677-1.834,1.777-3.164,3.296-3.99
		c1.521-0.825,3.504-1.238,5.95-1.238c0.561,0,1.246,0.041,2.057,0.124s1.644,0.182,2.503,0.297c0.86,0.117,1.604,0.224,2.23,0.322
		l-0.146,3.173c-0.563-0.065-1.209-0.13-1.935-0.199c-0.727-0.065-1.438-0.124-2.132-0.172c-0.695-0.049-1.272-0.076-1.734-0.076
		c-1.886,0-3.349,0.297-4.389,0.895c-1.04,0.594-1.769,1.543-2.182,2.851c-0.415,1.304-0.621,3.066-0.621,5.278
		c0,2.415,0.183,4.337,0.547,5.776c0.361,1.438,1.056,2.471,2.082,3.098c1.023,0.628,2.544,0.942,4.563,0.942
		c0.462,0,1.048-0.027,1.759-0.075c0.71-0.051,1.439-0.105,2.181-0.176c0.744-0.063,1.396-0.113,1.959-0.147l0.098,3.173
		c-0.66,0.1-1.42,0.199-2.279,0.299c-0.859,0.098-1.702,0.189-2.528,0.272C1813.982,732.858,1813.289,732.9,1812.729,732.9z"/>
	<path d="M1833.647,732.9c-2.478,0-4.438-0.479-5.875-1.437c-1.439-0.959-2.472-2.381-3.099-4.264
		c-0.629-1.885-0.941-4.229-0.941-7.041c0-3.139,0.428-5.658,1.288-7.558c0.858-1.9,2.063-3.29,3.618-4.165
		c1.553-0.875,3.388-1.314,5.504-1.314c3.304,0,5.801,0.916,7.486,2.75c1.687,1.835,2.528,4.786,2.528,8.849l-0.2,2.929h-16.309
		c0.032,2.575,0.514,4.526,1.438,5.848c0.926,1.321,2.596,1.982,5.009,1.982c0.925,0,1.941-0.024,3.048-0.076
		c1.106-0.048,2.206-0.106,3.297-0.171c1.092-0.066,2.016-0.132,2.777-0.2l0.099,3.024c-0.792,0.132-1.76,0.266-2.901,0.396
		c-1.141,0.132-2.303,0.24-3.494,0.323C1835.729,732.858,1834.639,732.9,1833.647,732.9z M1827.648,718.524h12.642
		c0-3.04-0.487-5.163-1.462-6.369c-0.976-1.207-2.537-1.809-4.684-1.809c-2.083,0-3.688,0.626-4.811,1.882
		C1828.213,713.486,1827.648,715.582,1827.648,718.524z"/>
	<path d="M1857.641,732.9c-0.761,0-1.677-0.049-2.751-0.148c-1.073-0.099-2.141-0.224-3.197-0.371c-1.059-0.149-2-0.289-2.826-0.421
		l0.199-3.32c0.826,0.097,1.759,0.214,2.799,0.344c1.043,0.133,2.059,0.24,3.05,0.321c0.991,0.085,1.785,0.126,2.381,0.126
		c1.354,0,2.479-0.126,3.37-0.372s1.569-0.667,2.034-1.265c0.46-0.596,0.693-1.439,0.693-2.526c0-0.827-0.173-1.474-0.521-1.935
		c-0.347-0.464-0.991-0.843-1.933-1.142c-0.942-0.298-2.306-0.576-4.09-0.841c-1.852-0.301-3.396-0.671-4.636-1.118
		c-1.24-0.443-2.157-1.113-2.752-2.004c-0.596-0.894-0.892-2.165-0.892-3.819c0-1.851,0.43-3.305,1.288-4.362
		c0.858-1.057,1.975-1.81,3.348-2.257c1.37-0.444,2.799-0.668,4.286-0.668c0.927,0,1.942,0.048,3.05,0.148
		c1.107,0.1,2.191,0.224,3.247,0.371c1.057,0.148,1.966,0.29,2.727,0.423l-0.1,3.321c-0.794-0.13-1.719-0.255-2.776-0.371
		s-2.114-0.217-3.171-0.3c-1.061-0.079-1.982-0.124-2.778-0.124c-0.991,0-1.882,0.107-2.678,0.324
		c-0.793,0.216-1.42,0.588-1.882,1.115c-0.465,0.526-0.695,1.271-0.695,2.229c0,0.728,0.166,1.315,0.496,1.759
		c0.33,0.447,0.96,0.819,1.885,1.116c0.924,0.297,2.263,0.595,4.015,0.891c2.049,0.334,3.694,0.746,4.934,1.242
		c1.239,0.493,2.139,1.188,2.702,2.083c0.56,0.892,0.84,2.147,0.84,3.766c0,2.907-0.858,4.934-2.575,6.074
		C1863.012,732.332,1860.648,732.9,1857.641,732.9z"/>
	<path d="M1880.743,732.9c-0.762,0-1.679-0.049-2.753-0.148c-1.073-0.099-2.141-0.224-3.195-0.371
		c-1.059-0.149-2.001-0.289-2.828-0.421l0.2-3.32c0.826,0.097,1.761,0.214,2.801,0.344c1.04,0.133,2.058,0.24,3.049,0.321
		c0.992,0.085,1.784,0.126,2.379,0.126c1.354,0,2.479-0.126,3.371-0.372c0.894-0.246,1.571-0.667,2.033-1.265
		c0.464-0.596,0.694-1.439,0.694-2.526c0-0.827-0.172-1.474-0.52-1.935c-0.348-0.464-0.991-0.843-1.935-1.142
		c-0.939-0.298-2.304-0.576-4.088-0.841c-1.853-0.301-3.397-0.671-4.637-1.118c-1.239-0.443-2.157-1.113-2.751-2.004
		c-0.598-0.894-0.892-2.165-0.892-3.819c0-1.851,0.428-3.305,1.289-4.362c0.856-1.057,1.972-1.81,3.346-2.257
		c1.37-0.444,2.801-0.668,4.287-0.668c0.927,0,1.941,0.048,3.05,0.148c1.105,0.1,2.189,0.224,3.246,0.371
		c1.059,0.148,1.969,0.29,2.728,0.423l-0.101,3.321c-0.793-0.13-1.719-0.255-2.775-0.371c-1.059-0.116-2.116-0.217-3.174-0.3
		c-1.058-0.079-1.982-0.124-2.776-0.124c-0.991,0-1.882,0.107-2.677,0.324c-0.793,0.216-1.423,0.588-1.883,1.115
		c-0.464,0.526-0.693,1.271-0.693,2.229c0,0.728,0.165,1.315,0.495,1.759c0.328,0.447,0.958,0.819,1.883,1.116
		s2.264,0.595,4.017,0.891c2.048,0.334,3.693,0.746,4.934,1.242c1.239,0.493,2.139,1.188,2.701,2.083
		c0.561,0.892,0.843,2.147,0.843,3.766c0,2.907-0.86,4.934-2.578,6.074C1886.113,732.332,1883.751,732.9,1880.743,732.9z"/>
	<path d="M1905.628,732.9c-2.773,0-4.934-0.479-6.47-1.437c-1.536-0.959-2.61-2.412-3.223-4.364
		c-0.612-1.948-0.915-4.41-0.915-7.388c0-2.84,0.338-5.187,1.016-7.038c0.678-1.85,1.793-3.238,3.348-4.165
		c1.553-0.926,3.636-1.387,6.244-1.387c2.644,0,4.743,0.461,6.297,1.387c1.554,0.927,2.668,2.313,3.347,4.165
		c0.675,1.852,1.016,4.198,1.016,7.038c0,2.978-0.306,5.438-0.916,7.388c-0.611,1.949-1.687,3.405-3.223,4.364
		C1910.611,732.422,1908.437,732.9,1905.628,732.9z M1905.628,729.58c1.917,0,3.354-0.339,4.313-1.017
		c0.959-0.679,1.593-1.742,1.909-3.196c0.313-1.457,0.468-3.338,0.468-5.652c0-2.281-0.196-4.099-0.592-5.455
		c-0.399-1.354-1.076-2.329-2.034-2.925c-0.959-0.595-2.313-0.892-4.064-0.892c-1.72,0-3.065,0.297-4.041,0.892
		c-0.977,0.596-1.661,1.571-2.058,2.925c-0.396,1.356-0.595,3.174-0.595,5.455c0,2.314,0.155,4.195,0.471,5.652
		c0.313,1.454,0.948,2.518,1.908,3.196C1902.272,729.241,1903.711,729.58,1905.628,729.58z"/>
	<path d="M1938.646,732.9c-2.279,0-4.015-0.644-5.204-1.934c-1.191-1.288-1.787-3.173-1.787-5.651c0-1.618,0.28-2.939,0.843-3.965
		c0.562-1.026,1.412-1.811,2.552-2.357c1.143-0.544,2.554-0.885,4.24-1.016l7.633-0.743v-2.134c0-1.683-0.371-2.873-1.115-3.567
		c-0.744-0.696-1.843-1.041-3.297-1.041c-0.825,0-1.81,0.031-2.949,0.097c-1.139,0.068-2.271,0.151-3.396,0.248
		c-1.122,0.1-2.116,0.199-2.974,0.298l-0.2-2.927c0.795-0.162,1.752-0.328,2.877-0.493c1.123-0.166,2.297-0.306,3.521-0.423
		c1.223-0.117,2.347-0.173,3.373-0.173c1.883,0,3.421,0.29,4.608,0.867c1.189,0.578,2.06,1.454,2.602,2.627
		c0.545,1.174,0.819,2.671,0.819,4.485v12.541c0.065,0.729,0.355,1.259,0.869,1.588c0.511,0.332,1.165,0.544,1.956,0.646
		l-0.15,3.024c-0.727,0-1.387-0.04-1.982-0.126c-0.596-0.08-1.158-0.205-1.687-0.371c-0.43-0.165-0.833-0.362-1.215-0.596
		c-0.378-0.23-0.75-0.51-1.114-0.844c-0.627,0.269-1.43,0.547-2.404,0.844s-2.016,0.554-3.123,0.771
		C1940.834,732.793,1939.735,732.9,1938.646,732.9z M1939.291,729.679c0.891,0,1.816-0.082,2.773-0.248
		c0.96-0.165,1.867-0.364,2.727-0.596c0.861-0.229,1.57-0.443,2.135-0.645v-8.081l-7.19,0.694c-1.487,0.133-2.553,0.564-3.197,1.289
		c-0.643,0.728-0.968,1.769-0.968,3.126c0,1.384,0.314,2.475,0.943,3.27C1937.141,729.282,1938.066,729.679,1939.291,729.679z"/>
	<path d="M1958.425,732.404v-35.545h3.816v35.545H1958.425z"/>
	<path d="M1969.978,732.404v-35.545h3.817v35.545H1969.978z"/>
	<path d="M1990.002,732.9c-2.478,0-4.437-0.479-5.874-1.437c-1.438-0.959-2.472-2.381-3.098-4.264
		c-0.63-1.885-0.942-4.229-0.942-7.041c0-3.139,0.429-5.658,1.289-7.558c0.858-1.9,2.064-3.29,3.617-4.165
		c1.557-0.875,3.389-1.314,5.505-1.314c3.304,0,5.801,0.916,7.485,2.75c1.686,1.835,2.529,4.786,2.529,8.849l-0.2,2.929h-16.308
		c0.032,2.575,0.511,4.526,1.437,5.848s2.595,1.982,5.008,1.982c0.926,0,1.94-0.024,3.048-0.076
		c1.108-0.048,2.207-0.106,3.298-0.171c1.091-0.066,2.017-0.132,2.777-0.2l0.099,3.024c-0.794,0.132-1.762,0.266-2.899,0.396
		c-1.143,0.132-2.308,0.24-3.498,0.323C1992.084,732.858,1990.994,732.9,1990.002,732.9z M1984.006,718.524h12.64
		c0-3.04-0.485-5.163-1.461-6.369c-0.977-1.207-2.539-1.809-4.685-1.809c-2.081,0-3.685,0.626-4.811,1.882
		C1984.567,713.486,1984.006,715.582,1984.006,718.524z"/>
	<path d="M2018.211,732.404v-21.466h-3.123v-3.321h3.123v-2.182c0-2.379,0.216-4.229,0.645-5.551
		c0.43-1.322,1.141-2.239,2.133-2.751c0.991-0.514,2.296-0.771,3.916-0.771c0.396,0,0.939,0.017,1.634,0.051
		c0.696,0.031,1.372,0.073,2.033,0.125c0.661,0.048,1.125,0.106,1.39,0.175l-0.051,3.221c-0.593-0.031-1.313-0.059-2.156-0.075
		c-0.842-0.018-1.527-0.023-2.058-0.023c-0.925,0-1.651,0.155-2.183,0.468c-0.525,0.316-0.899,0.888-1.113,1.711
		c-0.215,0.828-0.322,1.985-0.322,3.473v2.13h7.138v3.321h-7.138v21.466H2018.211L2018.211,732.404z"/>
	<path d="M2041.164,732.9c-2.117,0-3.735-0.43-4.857-1.287c-1.125-0.86-1.893-2.199-2.306-4.017
		c-0.415-1.817-0.621-4.165-0.621-7.039v-12.94h3.819v12.94c0,2.179,0.106,3.914,0.32,5.204c0.215,1.291,0.686,2.223,1.414,2.802
		c0.726,0.579,1.816,0.867,3.27,0.867c1.455,0,2.777-0.198,3.968-0.596c1.188-0.396,2.148-0.794,2.875-1.19v-20.027h3.816v24.787
		h-3.816v-1.734c-1.06,0.593-2.207,1.112-3.445,1.56C2044.358,732.678,2042.882,732.9,2041.164,732.9z"/>
	<path d="M2060.004,732.404v-24.787h3.816v1.735c0.563-0.331,1.264-0.659,2.106-0.992c0.844-0.33,1.745-0.619,2.702-0.864
		c0.96-0.248,1.885-0.374,2.777-0.374c2.278,0,4.021,0.405,5.23,1.215c1.205,0.809,2.039,2.106,2.503,3.892
		c0.464,1.786,0.694,4.134,0.694,7.041v13.137h-3.865v-12.991c0-2.146-0.127-3.864-0.371-5.155
		c-0.249-1.289-0.747-2.223-1.487-2.801c-0.745-0.578-1.877-0.868-3.397-0.868c-0.828,0-1.679,0.091-2.554,0.275
		c-0.877,0.18-1.695,0.41-2.454,0.692c-0.76,0.281-1.389,0.554-1.885,0.819v20.026H2060.004L2060.004,732.404z"/>
	<path d="M2085.187,732.404v-3.469l13.682-17.849h-13.682v-3.47h18.39v3.47l-13.681,17.849h13.681v3.469H2085.187z"/>
	<path d="M2109.228,702.165v-4.463h3.82v4.463H2109.228z M2109.228,732.404v-24.787h3.82v24.787H2109.228z"/>
	<path d="M2129.703,732.9c-2.775,0-4.934-0.479-6.468-1.437c-1.538-0.959-2.612-2.412-3.225-4.364
		c-0.61-1.948-0.916-4.41-0.916-7.388c0-2.84,0.338-5.187,1.017-7.038c0.677-1.85,1.792-3.238,3.348-4.165
		c1.552-0.926,3.635-1.387,6.244-1.387c2.644,0,4.741,0.461,6.298,1.387c1.553,0.927,2.667,2.313,3.346,4.165
		c0.677,1.852,1.014,4.198,1.014,7.038c0,2.978-0.304,5.438-0.914,7.388c-0.612,1.949-1.687,3.405-3.222,4.364
		C2134.686,732.422,2132.514,732.9,2129.703,732.9z M2129.703,729.58c1.917,0,3.355-0.339,4.314-1.017
		c0.958-0.679,1.592-1.742,1.907-3.196c0.313-1.457,0.473-3.338,0.473-5.652c0-2.281-0.199-4.099-0.597-5.455
		c-0.397-1.354-1.076-2.329-2.032-2.925c-0.961-0.595-2.313-0.892-4.065-0.892c-1.721,0-3.067,0.297-4.041,0.892
		c-0.975,0.596-1.661,1.571-2.059,2.925c-0.396,1.356-0.594,3.174-0.594,5.455c0,2.314,0.155,4.195,0.471,5.652
		c0.313,1.454,0.949,2.518,1.908,3.196C2126.35,729.241,2127.786,729.58,2129.703,729.58z"/>
	<path d="M2146.411,732.404v-24.787h3.817v1.735c0.561-0.331,1.263-0.659,2.106-0.992c0.843-0.33,1.744-0.619,2.702-0.864
		c0.96-0.248,1.883-0.374,2.777-0.374c2.278,0,4.021,0.405,5.23,1.215c1.205,0.809,2.039,2.106,2.502,3.892
		c0.465,1.786,0.695,4.134,0.695,7.041v13.137h-3.866v-12.991c0-2.146-0.125-3.864-0.371-5.155
		c-0.248-1.289-0.745-2.223-1.487-2.801c-0.743-0.578-1.875-0.868-3.396-0.868c-0.828,0-1.679,0.091-2.553,0.275
		c-0.878,0.18-1.695,0.41-2.454,0.692c-0.762,0.281-1.391,0.554-1.886,0.819v20.026H2146.411L2146.411,732.404z"/>
	<path d="M2173.082,702.165v-4.463h3.816v4.463H2173.082z M2173.082,732.404v-24.787h3.816v24.787H2173.082z"/>
	<path d="M2203.073,732.952c-1.72,0-3.083-0.266-4.092-0.795c-1.008-0.53-1.727-1.446-2.154-2.754
		c-0.431-1.305-0.644-3.146-0.644-5.524v-12.94h-3.521v-3.321h3.521v-7.586H2200v7.586h7.782v3.321H2200v11.798
		c0,1.755,0.072,3.118,0.224,4.093c0.147,0.975,0.468,1.659,0.967,2.056c0.493,0.396,1.271,0.595,2.33,0.595
		c0.328,0,0.757-0.015,1.287-0.049c0.529-0.032,1.067-0.075,1.612-0.124c0.543-0.049,1.031-0.09,1.462-0.127l0.248,3.225
		c-0.729,0.1-1.587,0.214-2.579,0.348C2204.56,732.883,2203.734,732.952,2203.073,732.952z"/>
	<path d="M2221.119,732.9c-2.481,0-4.437-0.479-5.875-1.437c-1.438-0.959-2.473-2.381-3.101-4.264
		c-0.627-1.885-0.94-4.229-0.94-7.041c0-3.139,0.427-5.658,1.287-7.558c0.861-1.9,2.065-3.29,3.619-4.165
		c1.555-0.875,3.389-1.314,5.504-1.314c3.303,0,5.801,0.916,7.486,2.75c1.687,1.835,2.529,4.786,2.529,8.849l-0.198,2.929h-16.312
		c0.032,2.575,0.514,4.526,1.439,5.848c0.925,1.321,2.592,1.982,5.007,1.982c0.926,0,1.941-0.024,3.049-0.076
		c1.107-0.048,2.205-0.106,3.295-0.171c1.091-0.066,2.017-0.132,2.777-0.2l0.1,3.024c-0.795,0.132-1.759,0.266-2.901,0.396
		c-1.14,0.132-2.307,0.24-3.495,0.323C2223.201,732.858,2222.11,732.9,2221.119,732.9z M2215.119,718.524h12.643
		c0-3.04-0.488-5.163-1.463-6.369c-0.975-1.207-2.536-1.809-4.686-1.809c-2.081,0-3.686,0.626-4.808,1.882
		C2215.682,713.486,2215.119,715.582,2215.119,718.524z"/>
	<path d="M2237.377,732.404v-24.787h3.82v1.735c0.792-0.461,1.865-0.95,3.221-1.463c1.354-0.51,2.659-0.768,3.915-0.768
		c1.652,0,2.984,0.199,3.992,0.596c1.009,0.398,1.827,1.041,2.454,1.934c0.66-0.362,1.47-0.743,2.429-1.14
		c0.961-0.396,1.993-0.727,3.099-0.991c1.107-0.265,2.189-0.396,3.248-0.396c2.247,0,3.972,0.389,5.18,1.166
		c1.209,0.775,2.042,2.056,2.505,3.84c0.463,1.787,0.695,4.166,0.695,7.139v13.137h-3.82v-12.991c0-2.146-0.123-3.864-0.371-5.155
		c-0.247-1.289-0.733-2.223-1.462-2.801c-0.728-0.578-1.836-0.868-3.321-0.868c-1.322,0-2.618,0.197-3.893,0.596
		c-1.271,0.396-2.254,0.795-2.947,1.191c0.231,0.857,0.387,1.924,0.47,3.194c0.081,1.273,0.123,2.588,0.123,3.943v12.889h-3.816
		v-12.789c0-2.247-0.116-4.021-0.346-5.328c-0.232-1.308-0.719-2.247-1.463-2.826c-0.743-0.578-1.858-0.866-3.346-0.866
		c-1.256,0-2.494,0.196-3.719,0.595c-1.224,0.396-2.166,0.795-2.823,1.19v20.026h-3.823V732.404z"/>
	<path d="M2278.823,743.362v-35.745h3.816v1.786c0.529-0.33,1.198-0.668,2.01-1.016c0.809-0.348,1.677-0.646,2.602-0.892
		c0.926-0.248,1.818-0.374,2.678-0.374c3.138,0,5.436,1.001,6.89,3.001c1.453,1.998,2.183,5.196,2.183,9.592
		c0,3.238-0.374,5.827-1.117,7.758c-0.745,1.935-1.917,3.32-3.52,4.164c-1.605,0.843-3.678,1.266-6.222,1.266
		c-1.025,0-2.058-0.067-3.1-0.199c-1.04-0.131-1.842-0.248-2.403-0.348v11.009h-3.816V743.362z M2287.944,729.53
		c1.786,0,3.197-0.332,4.239-0.991c1.039-0.661,1.776-1.71,2.206-3.148c0.428-1.439,0.644-3.328,0.644-5.676
		c0-3.338-0.495-5.692-1.486-7.064c-0.991-1.371-2.38-2.06-4.164-2.06c-0.795,0-1.611,0.101-2.453,0.3
		c-0.845,0.196-1.646,0.439-2.406,0.719c-0.762,0.279-1.389,0.569-1.884,0.868v16.557c0.528,0.066,1.305,0.166,2.331,0.296
		C2285.996,729.465,2286.986,729.53,2287.944,729.53z"/>
	<path d="M2314.517,732.9c-2.774,0-4.932-0.479-6.471-1.437c-1.535-0.959-2.608-2.412-3.221-4.364
		c-0.611-1.948-0.916-4.41-0.916-7.388c0-2.84,0.338-5.187,1.015-7.038c0.679-1.85,1.793-3.238,3.35-4.165
		c1.553-0.926,3.634-1.387,6.243-1.387c2.644,0,4.743,0.461,6.298,1.387c1.553,0.927,2.668,2.313,3.346,4.165
		c0.676,1.852,1.016,4.198,1.016,7.038c0,2.978-0.307,5.438-0.915,7.388c-0.613,1.949-1.688,3.405-3.223,4.364
		C2319.5,732.422,2317.326,732.9,2314.517,732.9z M2314.517,729.58c1.916,0,3.355-0.339,4.313-1.017
		c0.961-0.679,1.595-1.742,1.909-3.196c0.314-1.457,0.471-3.338,0.471-5.652c0-2.281-0.197-4.099-0.594-5.455
		c-0.398-1.354-1.076-2.329-2.033-2.925c-0.96-0.595-2.313-0.892-4.065-0.892c-1.721,0-3.066,0.297-4.04,0.892
		c-0.977,0.596-1.663,1.571-2.058,2.925c-0.396,1.356-0.595,3.174-0.595,5.455c0,2.314,0.153,4.195,0.472,5.652
		c0.313,1.454,0.947,2.518,1.906,3.196C2311.161,729.241,2312.6,729.58,2314.517,729.58z"/>
	<path d="M2331.224,732.404v-24.787h3.819v3.321c0.627-0.427,1.421-0.898,2.379-1.411c0.959-0.512,2.016-1.001,3.172-1.463
		c1.157-0.464,2.313-0.794,3.471-0.993v3.916c-1.123,0.231-2.266,0.537-3.422,0.919c-1.156,0.379-2.223,0.785-3.197,1.212
		c-0.975,0.431-1.775,0.812-2.405,1.142v18.145H2331.224L2331.224,732.404z"/>
	<path d="M2353.831,732.9c-2.282,0-4.018-0.644-5.206-1.934c-1.191-1.288-1.787-3.173-1.787-5.651c0-1.618,0.28-2.939,0.843-3.965
		c0.562-1.026,1.413-1.811,2.553-2.357c1.142-0.544,2.554-0.885,4.24-1.016l7.633-0.743v-2.134c0-1.683-0.372-2.873-1.116-3.567
		c-0.742-0.696-1.841-1.041-3.296-1.041c-0.826,0-1.811,0.031-2.949,0.097c-1.141,0.068-2.271,0.151-3.395,0.248
		c-1.125,0.1-2.116,0.199-2.977,0.298l-0.196-2.927c0.791-0.162,1.748-0.328,2.874-0.493c1.126-0.166,2.296-0.306,3.52-0.423
		c1.222-0.117,2.349-0.173,3.373-0.173c1.882,0,3.421,0.29,4.609,0.867c1.19,0.578,2.057,1.454,2.602,2.627
		c0.548,1.174,0.819,2.671,0.819,4.485v12.541c0.066,0.729,0.355,1.259,0.867,1.588c0.513,0.332,1.167,0.544,1.958,0.646
		l-0.147,3.024c-0.728,0-1.389-0.04-1.985-0.126c-0.596-0.08-1.157-0.205-1.684-0.371c-0.431-0.165-0.836-0.362-1.215-0.596
		c-0.382-0.23-0.753-0.51-1.115-0.844c-0.63,0.269-1.431,0.547-2.405,0.844s-2.017,0.554-3.125,0.771
		C2356.02,732.793,2354.919,732.9,2353.831,732.9z M2354.475,729.679c0.893,0,1.819-0.082,2.773-0.248
		c0.962-0.165,1.871-0.364,2.728-0.596c0.858-0.229,1.568-0.443,2.133-0.645v-8.081l-7.189,0.694
		c-1.486,0.133-2.552,0.564-3.196,1.289c-0.644,0.728-0.968,1.769-0.968,3.126c0,1.384,0.313,2.475,0.943,3.27
		C2352.324,729.282,2353.25,729.679,2354.475,729.679z"/>
	<path d="M2373.313,732.404v-24.787h3.82v1.735c0.561-0.331,1.263-0.659,2.105-0.992c0.843-0.33,1.741-0.619,2.703-0.864
		c0.961-0.248,1.887-0.374,2.776-0.374c2.28,0,4.023,0.405,5.229,1.215c1.209,0.809,2.042,2.106,2.506,3.892
		c0.463,1.786,0.693,4.134,0.693,7.041v13.137h-3.865v-12.991c0-2.146-0.125-3.864-0.373-5.155
		c-0.248-1.289-0.744-2.223-1.487-2.801c-0.742-0.578-1.876-0.868-3.395-0.868c-0.825,0-1.679,0.091-2.554,0.275
		c-0.879,0.18-1.697,0.41-2.456,0.692c-0.761,0.281-1.39,0.554-1.884,0.819v20.026H2373.313L2373.313,732.404z"/>
	<path d="M2408.762,732.9c-2.479,0-4.436-0.479-5.874-1.437c-1.438-0.959-2.473-2.381-3.1-4.264c-0.626-1.885-0.94-4.229-0.94-7.041
		c0-3.139,0.428-5.658,1.288-7.558c0.858-1.9,2.064-3.29,3.62-4.165c1.553-0.875,3.386-1.314,5.501-1.314
		c3.307,0,5.802,0.916,7.487,2.75c1.685,1.835,2.527,4.786,2.527,8.849l-0.197,2.929h-16.311c0.033,2.575,0.511,4.526,1.438,5.848
		c0.924,1.321,2.593,1.982,5.006,1.982c0.926,0,1.942-0.024,3.051-0.076c1.107-0.048,2.203-0.106,3.294-0.171
		c1.091-0.066,2.018-0.132,2.777-0.2l0.1,3.024c-0.796,0.132-1.762,0.266-2.901,0.396c-1.14,0.132-2.305,0.24-3.496,0.323
		C2410.842,732.858,2409.755,732.9,2408.762,732.9z M2402.764,718.524h12.639c0-3.04-0.486-5.163-1.462-6.369
		c-0.974-1.207-2.536-1.809-4.684-1.809c-2.084,0-3.687,0.626-4.808,1.882C2403.324,713.486,2402.764,715.582,2402.764,718.524z"/>
	<path d="M2430.426,732.9c-2.281,0-4.016-0.644-5.205-1.934c-1.19-1.288-1.788-3.173-1.788-5.651c0-1.618,0.283-2.939,0.847-3.965
		c0.558-1.026,1.411-1.811,2.554-2.357c1.14-0.544,2.551-0.885,4.237-1.016l7.634-0.743v-2.134c0-1.683-0.373-2.873-1.114-3.567
		c-0.744-0.696-1.842-1.041-3.297-1.041c-0.824,0-1.809,0.031-2.947,0.097c-1.141,0.068-2.275,0.151-3.398,0.248
		c-1.123,0.1-2.113,0.199-2.973,0.298l-0.201-2.927c0.795-0.162,1.753-0.328,2.878-0.493c1.123-0.166,2.3-0.306,3.521-0.423
		s2.348-0.173,3.37-0.173c1.886,0,3.42,0.29,4.61,0.867c1.191,0.578,2.057,1.454,2.604,2.627c0.547,1.174,0.82,2.671,0.82,4.485
		v12.541c0.063,0.729,0.354,1.259,0.865,1.588c0.51,0.332,1.166,0.544,1.959,0.646l-0.15,3.024c-0.727,0-1.388-0.04-1.983-0.126
		c-0.595-0.08-1.157-0.205-1.687-0.371c-0.43-0.165-0.834-0.362-1.215-0.596c-0.379-0.23-0.749-0.51-1.115-0.844
		c-0.627,0.269-1.428,0.547-2.402,0.844c-0.977,0.297-2.018,0.554-3.125,0.771C2432.616,732.793,2431.518,732.9,2430.426,732.9z
		 M2431.07,729.679c0.891,0,1.817-0.082,2.774-0.248c0.959-0.165,1.868-0.364,2.728-0.596c0.858-0.229,1.568-0.443,2.132-0.645
		v-8.081l-7.19,0.694c-1.484,0.133-2.551,0.564-3.193,1.289c-0.646,0.728-0.969,1.769-0.969,3.126c0,1.384,0.314,2.475,0.943,3.27
		C2428.922,729.282,2429.848,729.679,2431.07,729.679z"/>
	<path d="M2449.906,732.404v-24.787h3.818v1.735c0.795-0.461,1.868-0.95,3.224-1.463c1.353-0.51,2.659-0.768,3.916-0.768
		c1.65,0,2.981,0.199,3.989,0.596c1.01,0.398,1.828,1.041,2.453,1.934c0.662-0.362,1.472-0.743,2.432-1.14
		c0.956-0.396,1.988-0.727,3.098-0.991c1.107-0.265,2.189-0.396,3.246-0.396c2.25,0,3.975,0.389,5.183,1.166
		c1.204,0.775,2.038,2.056,2.502,3.84c0.462,1.787,0.693,4.166,0.693,7.139v13.137h-3.816v-12.991c0-2.146-0.122-3.864-0.371-5.155
		c-0.248-1.289-0.734-2.223-1.462-2.801s-1.836-0.868-3.322-0.868c-1.324,0-2.619,0.197-3.892,0.596
		c-1.272,0.396-2.255,0.795-2.95,1.191c0.23,0.857,0.39,1.924,0.473,3.194c0.08,1.273,0.123,2.588,0.123,3.943v12.889h-3.816
		v-12.789c0-2.247-0.117-4.021-0.346-5.328c-0.233-1.308-0.721-2.247-1.462-2.826c-0.747-0.578-1.861-0.866-3.349-0.866
		c-1.256,0-2.495,0.196-3.718,0.595c-1.222,0.396-2.165,0.795-2.825,1.19v20.026h-3.82V732.404z"/>
	<path d="M2500.128,732.9c-2.478,0-4.438-0.479-5.875-1.437c-1.438-0.959-2.472-2.381-3.098-4.264
		c-0.63-1.885-0.943-4.229-0.943-7.041c0-3.139,0.431-5.658,1.291-7.558c0.856-1.9,2.063-3.29,3.617-4.165
		c1.554-0.875,3.388-1.314,5.503-1.314c3.305,0,5.801,0.916,7.486,2.75c1.684,1.835,2.528,4.786,2.528,8.849l-0.198,2.929h-16.311
		c0.031,2.575,0.513,4.526,1.438,5.848c0.924,1.321,2.594,1.982,5.009,1.982c0.923,0,1.941-0.024,3.047-0.076
		c1.106-0.048,2.206-0.106,3.297-0.171c1.091-0.066,2.015-0.132,2.774-0.2l0.1,3.024c-0.795,0.132-1.759,0.266-2.898,0.396
		c-1.142,0.132-2.309,0.24-3.496,0.323C2502.211,732.858,2501.118,732.9,2500.128,732.9z M2494.129,718.524h12.642
		c0-3.04-0.487-5.163-1.463-6.369c-0.974-1.207-2.536-1.809-4.687-1.809c-2.081,0-3.684,0.626-4.807,1.882
		C2494.69,713.486,2494.129,715.582,2494.129,718.524z"/>
	<path d="M2516.387,732.404v-24.787h3.818v1.735c0.561-0.331,1.266-0.659,2.105-0.992c0.843-0.33,1.744-0.619,2.701-0.864
		c0.959-0.248,1.887-0.374,2.778-0.374c2.279,0,4.021,0.405,5.231,1.215c1.204,0.809,2.037,2.106,2.502,3.892
		c0.461,1.786,0.695,4.134,0.695,7.041v13.137h-3.867v-12.991c0-2.146-0.125-3.864-0.371-5.155c-0.25-1.289-0.746-2.223-1.488-2.801
		c-0.744-0.578-1.878-0.868-3.395-0.868c-0.826,0-1.68,0.091-2.554,0.275c-0.876,0.18-1.694,0.41-2.454,0.692
		c-0.764,0.281-1.388,0.554-1.885,0.819v20.026H2516.387L2516.387,732.404z"/>
	<path d="M2551.043,732.952c-1.72,0-3.082-0.266-4.09-0.795c-1.01-0.53-1.729-1.446-2.155-2.754
		c-0.433-1.305-0.646-3.146-0.646-5.524v-12.94h-3.521v-3.321h3.521v-7.586h3.815v7.586h7.784v3.321h-7.784v11.798
		c0,1.755,0.074,3.118,0.224,4.093c0.146,0.975,0.472,1.659,0.967,2.056c0.494,0.396,1.271,0.595,2.33,0.595
		c0.33,0,0.761-0.015,1.288-0.049c0.53-0.032,1.066-0.075,1.61-0.124c0.545-0.049,1.033-0.09,1.463-0.127l0.248,3.225
		c-0.727,0.1-1.587,0.214-2.578,0.348C2552.527,732.883,2551.703,732.952,2551.043,732.952z"/>
	<path d="M2569.084,732.9c-2.474,0-4.432-0.479-5.871-1.437c-1.438-0.959-2.473-2.381-3.099-4.264
		c-0.628-1.885-0.941-4.229-0.941-7.041c0-3.139,0.429-5.658,1.288-7.558c0.859-1.9,2.065-3.29,3.62-4.165
		c1.552-0.875,3.388-1.314,5.501-1.314c3.307,0,5.803,0.916,7.488,2.75c1.684,1.835,2.525,4.786,2.525,8.849l-0.195,2.929h-16.311
		c0.033,2.575,0.513,4.526,1.436,5.848c0.926,1.321,2.596,1.982,5.008,1.982c0.927,0,1.941-0.024,3.051-0.076
		c1.105-0.048,2.203-0.106,3.293-0.171c1.094-0.066,2.017-0.132,2.777-0.2l0.1,3.024c-0.795,0.132-1.761,0.266-2.902,0.396
		c-1.139,0.132-2.305,0.24-3.491,0.323C2571.168,732.858,2570.08,732.9,2569.084,732.9z M2563.09,718.524h12.642
		c0-3.04-0.491-5.163-1.466-6.369c-0.974-1.207-2.537-1.809-4.684-1.809c-2.082,0-3.686,0.626-4.809,1.882
		C2563.648,713.486,2563.09,715.582,2563.09,718.524z"/>
	<path d="M2596.551,732.404v-35.545h3.816v35.545H2596.551z"/>
	<path d="M2607.804,702.165v-4.463h3.815v4.463H2607.804z M2607.804,732.404v-24.787h3.815v24.787H2607.804z"/>
	<path d="M2618.758,732.404v-24.787h3.816v1.735c0.795-0.461,1.867-0.95,3.225-1.463c1.354-0.51,2.662-0.768,3.915-0.768
		c1.651,0,2.983,0.199,3.993,0.596c1.008,0.398,1.822,1.041,2.453,1.934c0.66-0.362,1.469-0.743,2.429-1.14
		c0.957-0.396,1.989-0.727,3.097-0.991c1.109-0.265,2.191-0.396,3.248-0.396c2.246,0,3.973,0.389,5.183,1.166
		c1.204,0.775,2.038,2.056,2.503,3.84c0.46,1.787,0.694,4.166,0.694,7.139v13.137h-3.818v-12.991c0-2.146-0.124-3.864-0.371-5.155
		c-0.247-1.289-0.736-2.223-1.462-2.801c-0.729-0.578-1.836-0.868-3.324-0.868c-1.321,0-2.617,0.197-3.891,0.596
		c-1.271,0.396-2.254,0.795-2.949,1.191c0.23,0.857,0.389,1.924,0.471,3.194c0.082,1.273,0.125,2.588,0.125,3.943v12.889h-3.816
		v-12.789c0-2.247-0.117-4.021-0.348-5.328c-0.232-1.308-0.717-2.247-1.463-2.826c-0.744-0.578-1.86-0.866-3.346-0.866
		c-1.256,0-2.496,0.196-3.717,0.595c-1.223,0.396-2.166,0.795-2.827,1.19v20.026h-3.819V732.404z"/>
	<path d="M2660.203,702.165v-4.463h3.816v4.463H2660.203z M2660.203,732.404v-24.787h3.816v24.787H2660.203z"/>
	<path d="M2679.291,732.952c-1.721,0-3.084-0.266-4.09-0.795c-1.008-0.53-1.729-1.446-2.156-2.754
		c-0.431-1.305-0.645-3.146-0.645-5.524v-12.94h-3.521v-3.321h3.521v-7.586h3.816v7.586h7.782v3.321h-7.782v11.798
		c0,1.755,0.076,3.118,0.225,4.093c0.146,0.975,0.471,1.659,0.963,2.056c0.497,0.396,1.273,0.595,2.33,0.595
		c0.334,0,0.762-0.015,1.291-0.049c0.527-0.032,1.066-0.075,1.611-0.124c0.543-0.049,1.032-0.09,1.463-0.127l0.247,3.225
		c-0.726,0.1-1.587,0.214-2.577,0.348C2680.777,732.883,2679.953,732.952,2679.291,732.952z"/>
	<path d="M2693.963,732.9c-2.278,0-4.016-0.644-5.207-1.934c-1.188-1.288-1.783-3.173-1.783-5.651c0-1.618,0.279-2.939,0.844-3.965
		c0.562-1.026,1.412-1.811,2.553-2.357c1.141-0.544,2.555-0.885,4.238-1.016l7.635-0.743v-2.134c0-1.683-0.373-2.873-1.114-3.567
		c-0.746-0.696-1.845-1.041-3.297-1.041c-0.827,0-1.811,0.031-2.95,0.097c-1.14,0.068-2.273,0.151-3.393,0.248
		c-1.125,0.1-2.118,0.199-2.977,0.298l-0.197-2.927c0.792-0.162,1.75-0.328,2.875-0.493c1.125-0.166,2.297-0.306,3.52-0.423
		c1.222-0.117,2.347-0.173,3.371-0.173c1.884,0,3.42,0.29,4.611,0.867c1.189,0.578,2.057,1.454,2.602,2.627
		c0.547,1.174,0.818,2.671,0.818,4.485v12.541c0.066,0.729,0.354,1.259,0.867,1.588c0.513,0.332,1.168,0.544,1.959,0.646
		l-0.149,3.024c-0.729,0-1.39-0.04-1.983-0.126c-0.596-0.08-1.157-0.205-1.684-0.371c-0.434-0.165-0.836-0.362-1.218-0.596
		c-0.38-0.23-0.751-0.51-1.112-0.844c-0.631,0.269-1.432,0.547-2.406,0.844s-2.017,0.554-3.125,0.771
		C2696.152,732.793,2695.055,732.9,2693.963,732.9z M2694.609,729.679c0.891,0,1.817-0.082,2.775-0.248
		c0.959-0.165,1.867-0.364,2.726-0.596c0.86-0.229,1.57-0.443,2.132-0.645v-8.081l-7.188,0.694
		c-1.487,0.133-2.552,0.564-3.197,1.289c-0.645,0.728-0.968,1.769-0.968,3.126c0,1.384,0.315,2.475,0.946,3.27
		C2692.459,729.282,2693.387,729.679,2694.609,729.679z"/>
	<path d="M2721.281,732.952c-1.719,0-3.082-0.266-4.09-0.795c-1.01-0.53-1.729-1.446-2.156-2.754
		c-0.43-1.305-0.646-3.146-0.646-5.524v-12.94h-3.518v-3.321h3.518v-7.586h3.818v7.586h7.783v3.321h-7.783v11.798
		c0,1.755,0.075,3.118,0.223,4.093c0.151,0.975,0.473,1.659,0.968,2.056c0.495,0.396,1.271,0.595,2.329,0.595
		c0.33,0,0.762-0.015,1.289-0.049c0.528-0.032,1.066-0.075,1.611-0.124c0.546-0.049,1.031-0.09,1.463-0.127l0.246,3.225
		c-0.727,0.1-1.584,0.214-2.575,0.348C2722.77,732.883,2721.943,732.952,2721.281,732.952z"/>
	<path d="M2740.068,732.9c-2.774,0-4.932-0.479-6.467-1.437c-1.536-0.959-2.613-2.412-3.225-4.364
		c-0.61-1.948-0.917-4.41-0.917-7.388c0-2.84,0.339-5.187,1.017-7.038c0.678-1.85,1.792-3.238,3.348-4.165
		c1.553-0.926,3.635-1.387,6.244-1.387c2.646,0,4.744,0.461,6.298,1.387c1.555,0.927,2.671,2.313,3.347,4.165
		s1.015,4.198,1.015,7.038c0,2.978-0.306,5.438-0.916,7.388c-0.612,1.949-1.685,3.405-3.222,4.364
		C2745.051,732.422,2742.879,732.9,2740.068,732.9z M2740.068,729.58c1.917,0,3.355-0.339,4.314-1.017
		c0.959-0.679,1.595-1.742,1.907-3.196c0.313-1.457,0.473-3.338,0.473-5.652c0-2.281-0.198-4.099-0.595-5.455
		c-0.398-1.354-1.074-2.329-2.032-2.925c-0.96-0.595-2.315-0.892-4.067-0.892c-1.717,0-3.065,0.297-4.041,0.892
		c-0.974,0.596-1.661,1.571-2.055,2.925c-0.396,1.356-0.599,3.174-0.599,5.455c0,2.314,0.158,4.195,0.472,5.652
		c0.313,1.454,0.953,2.518,1.91,3.196C2736.717,729.241,2738.15,729.58,2740.068,729.58z"/>
	<path d="M2767.682,702.165v-4.463h3.815v4.463H2767.682z M2767.682,732.404v-24.787h3.815v24.787H2767.682z"/>
	<path d="M2778.639,732.404v-24.787h3.816v1.735c0.563-0.331,1.266-0.659,2.107-0.992c0.844-0.33,1.742-0.619,2.701-0.864
		c0.96-0.248,1.887-0.374,2.775-0.374c2.282,0,4.023,0.405,5.23,1.215c1.205,0.809,2.041,2.106,2.503,3.892
		c0.465,1.786,0.697,4.134,0.697,7.041v13.137h-3.867v-12.991c0-2.146-0.124-3.864-0.373-5.155
		c-0.247-1.289-0.742-2.223-1.485-2.801c-0.744-0.578-1.877-0.868-3.395-0.868c-0.826,0-1.679,0.091-2.557,0.275
		c-0.875,0.18-1.691,0.41-2.453,0.692c-0.761,0.281-1.389,0.554-1.885,0.819v20.026H2778.639L2778.639,732.404z"/>
	<path d="M2821.62,732.9c-2.28,0-4.017-0.644-5.208-1.934c-1.188-1.288-1.782-3.173-1.782-5.651c0-1.618,0.28-2.939,0.843-3.965
		c0.561-1.026,1.412-1.811,2.554-2.357c1.14-0.544,2.552-0.885,4.237-1.016l7.635-0.743v-2.134c0-1.683-0.373-2.873-1.114-3.567
		c-0.746-0.696-1.845-1.041-3.297-1.041c-0.827,0-1.81,0.031-2.948,0.097c-1.141,0.068-2.274,0.151-3.395,0.248
		c-1.127,0.1-2.117,0.199-2.979,0.298l-0.198-2.927c0.794-0.162,1.753-0.328,2.878-0.493c1.121-0.166,2.297-0.306,3.52-0.423
		s2.348-0.173,3.371-0.173c1.885,0,3.42,0.29,4.61,0.867c1.191,0.578,2.057,1.454,2.603,2.627c0.547,1.174,0.818,2.671,0.818,4.485
		v12.541c0.066,0.729,0.355,1.259,0.867,1.588c0.511,0.332,1.166,0.544,1.959,0.646l-0.15,3.024c-0.727,0-1.387-0.04-1.982-0.126
		c-0.596-0.08-1.157-0.205-1.684-0.371c-0.433-0.165-0.838-0.362-1.218-0.596c-0.379-0.23-0.75-0.51-1.114-0.844
		c-0.629,0.269-1.43,0.547-2.404,0.844c-0.977,0.297-2.016,0.554-3.124,0.771C2823.809,732.793,2822.711,732.9,2821.62,732.9z
		 M2822.264,729.679c0.892,0,1.817-0.082,2.775-0.248c0.959-0.165,1.868-0.364,2.728-0.596c0.858-0.229,1.567-0.443,2.132-0.645
		v-8.081l-7.188,0.694c-1.487,0.133-2.554,0.564-3.197,1.289c-0.647,0.728-0.968,1.769-0.968,3.126c0,1.384,0.314,2.475,0.943,3.27
		C2820.115,729.282,2821.041,729.679,2822.264,729.679z"/>
	<path d="M2848.938,732.952c-1.722,0-3.084-0.266-4.09-0.795c-1.008-0.53-1.73-1.446-2.158-2.754
		c-0.43-1.305-0.644-3.146-0.644-5.524v-12.94h-3.521v-3.321h3.521v-7.586h3.817v7.586h7.781v3.321h-7.781v11.798
		c0,1.755,0.074,3.118,0.22,4.093c0.152,0.975,0.476,1.659,0.968,2.056c0.496,0.396,1.273,0.595,2.33,0.595
		c0.332,0,0.761-0.015,1.289-0.049c0.529-0.032,1.068-0.075,1.611-0.124c0.545-0.049,1.033-0.09,1.463-0.127l0.248,3.225
		c-0.728,0.1-1.587,0.214-2.577,0.348C2850.422,732.883,2849.598,732.952,2848.938,732.952z"/>
	<path d="M2866.337,732.952c-1.72,0-3.083-0.266-4.091-0.795c-1.006-0.53-1.728-1.446-2.155-2.754
		c-0.431-1.305-0.646-3.146-0.646-5.524v-12.94h-3.52v-3.321h3.52v-7.586h3.818v7.586h7.782v3.321h-7.782v11.798
		c0,1.755,0.072,3.118,0.222,4.093c0.151,0.975,0.472,1.659,0.967,2.056c0.495,0.396,1.271,0.595,2.33,0.595
		c0.33,0,0.761-0.015,1.29-0.049c0.527-0.032,1.064-0.075,1.611-0.124c0.543-0.049,1.033-0.09,1.462-0.127l0.248,3.225
		c-0.727,0.1-1.586,0.214-2.578,0.348C2867.824,732.883,2866.998,732.952,2866.337,732.952z"/>
	<path d="M2884.38,732.9c-2.476,0-4.434-0.479-5.872-1.437c-1.438-0.959-2.473-2.381-3.101-4.264
		c-0.626-1.885-0.94-4.229-0.94-7.041c0-3.139,0.429-5.658,1.289-7.558c0.859-1.9,2.064-3.29,3.619-4.165
		c1.553-0.875,3.387-1.314,5.5-1.314c3.307,0,5.803,0.916,7.488,2.75c1.684,1.835,2.527,4.786,2.527,8.849l-0.196,2.929h-16.311
		c0.031,2.575,0.513,4.526,1.438,5.848c0.924,1.321,2.592,1.982,5.004,1.982c0.927,0,1.946-0.024,3.051-0.076
		c1.106-0.048,2.203-0.106,3.296-0.171c1.091-0.066,2.015-0.132,2.774-0.2l0.1,3.024c-0.795,0.132-1.761,0.266-2.9,0.396
		c-1.139,0.132-2.307,0.24-3.496,0.323C2886.462,732.858,2885.374,732.9,2884.38,732.9z M2878.384,718.524h12.642
		c0-3.04-0.491-5.163-1.465-6.369c-0.975-1.207-2.538-1.809-4.686-1.809c-2.08,0-3.685,0.626-4.807,1.882
		C2878.945,713.486,2878.384,715.582,2878.384,718.524z"/>
	<path d="M2908.375,732.9c-0.761,0-1.678-0.049-2.753-0.148c-1.073-0.099-2.137-0.224-3.194-0.371c-1.059-0.149-2-0.289-2.826-0.421
		l0.197-3.32c0.825,0.097,1.762,0.214,2.801,0.344c1.043,0.133,2.058,0.24,3.049,0.321c0.992,0.085,1.787,0.126,2.381,0.126
		c1.354,0,2.478-0.126,3.371-0.372c0.892-0.246,1.569-0.667,2.034-1.265c0.462-0.596,0.69-1.439,0.69-2.526
		c0-0.827-0.17-1.474-0.519-1.935c-0.346-0.464-0.991-0.843-1.935-1.142c-0.939-0.298-2.305-0.576-4.09-0.841
		c-1.85-0.301-3.393-0.671-4.635-1.118c-1.238-0.443-2.155-1.113-2.75-2.004c-0.598-0.894-0.895-2.165-0.895-3.819
		c0-1.851,0.431-3.305,1.287-4.362c0.861-1.057,1.976-1.81,3.35-2.257c1.369-0.444,2.801-0.668,4.285-0.668
		c0.925,0,1.944,0.048,3.049,0.148c1.107,0.1,2.191,0.224,3.248,0.371c1.059,0.148,1.966,0.29,2.727,0.423l-0.1,3.321
		c-0.794-0.13-1.717-0.255-2.777-0.371c-1.056-0.116-2.113-0.217-3.172-0.3c-1.057-0.079-1.983-0.124-2.775-0.124
		c-0.991,0-1.886,0.107-2.674,0.324c-0.795,0.216-1.426,0.588-1.888,1.115c-0.463,0.526-0.693,1.271-0.693,2.229
		c0,0.728,0.165,1.315,0.495,1.759c0.33,0.447,0.957,0.819,1.883,1.116c0.927,0.297,2.265,0.595,4.019,0.891
		c2.047,0.334,3.693,0.746,4.933,1.242c1.24,0.493,2.138,1.188,2.701,2.083c0.563,0.892,0.844,2.147,0.844,3.766
		c0,2.907-0.859,4.934-2.578,6.074C2913.745,732.332,2911.383,732.9,2908.375,732.9z"/>
	<path d="M2929.147,732.9c-2.278,0-4.015-0.644-5.205-1.934c-1.19-1.288-1.786-3.173-1.786-5.651c0-1.618,0.279-2.939,0.842-3.965
		c0.563-1.026,1.416-1.811,2.555-2.357c1.141-0.544,2.555-0.885,4.238-1.016l7.636-0.743v-2.134c0-1.683-0.374-2.873-1.116-3.567
		c-0.743-0.696-1.842-1.041-3.297-1.041c-0.826,0-1.807,0.031-2.949,0.097c-1.14,0.068-2.271,0.151-3.393,0.248
		c-1.125,0.1-2.117,0.199-2.979,0.298l-0.196-2.927c0.793-0.162,1.753-0.328,2.874-0.493c1.125-0.166,2.299-0.306,3.521-0.423
		s2.348-0.173,3.369-0.173c1.887,0,3.421,0.29,4.612,0.867c1.19,0.578,2.058,1.454,2.602,2.627c0.548,1.174,0.819,2.671,0.819,4.485
		v12.541c0.064,0.729,0.355,1.259,0.867,1.588c0.513,0.332,1.166,0.544,1.959,0.646l-0.149,3.024c-0.728,0-1.39-0.04-1.981-0.126
		c-0.598-0.08-1.159-0.205-1.688-0.371c-0.43-0.165-0.835-0.362-1.215-0.596c-0.381-0.23-0.752-0.51-1.113-0.844
		c-0.63,0.269-1.432,0.547-2.407,0.844c-0.974,0.297-2.016,0.554-3.124,0.771C2931.336,732.793,2930.237,732.9,2929.147,732.9z
		 M2929.793,729.679c0.891,0,1.817-0.082,2.773-0.248c0.961-0.165,1.869-0.364,2.73-0.596c0.855-0.229,1.566-0.443,2.13-0.645
		v-8.081l-7.189,0.694c-1.484,0.133-2.551,0.564-3.194,1.289c-0.646,0.728-0.967,1.769-0.967,3.126c0,1.384,0.313,2.475,0.943,3.27
		C2927.643,729.282,2928.567,729.679,2929.793,729.679z"/>
	<path d="M2967.37,732.9c-0.991,0-1.934-0.107-2.827-0.321c-0.891-0.215-1.709-0.587-2.453-1.115
		c-0.742-0.526-1.396-1.265-1.959-2.206c-0.561-0.942-0.99-2.158-1.286-3.643c-0.299-1.489-0.447-3.29-0.447-5.405
		c0-2.941,0.347-5.378,1.042-7.313c0.694-1.934,1.799-3.381,3.321-4.337c1.521-0.96,3.538-1.438,6.048-1.438
		c0.961,0,2.033,0.075,3.222,0.224c1.19,0.15,2.115,0.289,2.776,0.422v-10.908h3.865v35.545h-3.816v-1.635
		c-0.527,0.296-1.215,0.612-2.056,0.942c-0.843,0.331-1.737,0.613-2.678,0.844C2969.178,732.786,2968.262,732.9,2967.37,732.9z
		 M2967.865,729.431c0.857,0,1.725-0.101,2.602-0.296c0.875-0.199,1.693-0.44,2.457-0.719c0.758-0.282,1.386-0.538,1.883-0.771
		v-16.606c-0.395-0.065-0.942-0.14-1.635-0.224c-0.695-0.082-1.414-0.155-2.156-0.224c-0.744-0.065-1.412-0.099-2.009-0.099
		c-1.685,0-3.008,0.364-3.965,1.091c-0.96,0.729-1.644,1.81-2.058,3.246c-0.413,1.438-0.619,3.23-0.619,5.379
		c0,1.983,0.15,3.579,0.446,4.785c0.298,1.206,0.7,2.133,1.216,2.775c0.512,0.644,1.098,1.085,1.759,1.314
		C2966.446,729.314,2967.137,729.431,2967.865,729.431z"/>
	<path d="M2985.811,702.165v-4.463h3.817v4.463H2985.811z M2985.811,732.404v-24.787h3.817v24.787H2985.811z"/>
	<path d="M1986.337,791.895l-6.94-24.786h4.164l5.653,21.465h1.883l5.851-21.465h3.965l-6.941,24.786H1986.337z"/>
	<path d="M2010.827,792.393c-2.279,0-4.015-0.646-5.204-1.934c-1.191-1.29-1.786-3.173-1.786-5.654c0-1.618,0.279-2.938,0.841-3.965
		c0.563-1.023,1.414-1.811,2.554-2.356c1.142-0.544,2.554-0.882,4.24-1.014l7.634-0.746v-2.13c0-1.687-0.373-2.877-1.116-3.569
		c-0.742-0.694-1.841-1.043-3.296-1.043c-0.827,0-1.812,0.034-2.95,0.101c-1.14,0.064-2.271,0.147-3.396,0.248
		c-1.125,0.1-2.117,0.195-2.974,0.296l-0.2-2.926c0.795-0.165,1.752-0.329,2.877-0.495c1.122-0.165,2.296-0.305,3.52-0.423
		c1.223-0.115,2.349-0.172,3.372-0.172c1.884,0,3.421,0.288,4.611,0.867c1.19,0.578,2.057,1.454,2.602,2.629
		c0.544,1.171,0.819,2.667,0.819,4.484v12.542c0.065,0.727,0.354,1.257,0.867,1.587c0.512,0.33,1.166,0.544,1.958,0.644
		l-0.151,3.024c-0.726,0-1.387-0.04-1.981-0.123c-0.596-0.082-1.161-0.208-1.687-0.372c-0.43-0.165-0.833-0.364-1.215-0.599
		c-0.381-0.229-0.751-0.51-1.116-0.84c-0.626,0.265-1.428,0.544-2.401,0.84c-0.978,0.3-2.017,0.555-3.125,0.772
		C2013.016,792.284,2011.918,792.393,2010.827,792.393z M2011.472,789.169c0.894,0,1.817-0.08,2.775-0.247
		c0.958-0.166,1.868-0.363,2.728-0.597c0.858-0.23,1.568-0.444,2.133-0.643v-8.082l-7.189,0.696
		c-1.486,0.13-2.554,0.561-3.197,1.287c-0.644,0.729-0.967,1.768-0.967,3.124c0,1.387,0.313,2.479,0.942,3.271
		C2009.323,788.772,2010.248,789.169,2011.472,789.169z"/>
	<path d="M2030.609,791.895V756.35h3.816v35.545H2030.609z"/>
	<path d="M2041.862,761.655v-4.462h3.816v4.462H2041.862z M2041.862,791.895v-24.786h3.816v24.786H2041.862z"/>
	<path d="M2060.648,792.393c-0.99,0-1.933-0.108-2.824-0.322c-0.892-0.217-1.71-0.588-2.455-1.115
		c-0.743-0.527-1.396-1.266-1.957-2.206c-0.562-0.943-0.992-2.155-1.288-3.645c-0.299-1.487-0.447-3.287-0.447-5.404
		c0-2.939,0.349-5.38,1.039-7.311c0.696-1.937,1.804-3.382,3.323-4.339c1.521-0.959,3.534-1.436,6.049-1.436
		c0.958,0,2.032,0.074,3.222,0.224c1.191,0.146,2.112,0.288,2.777,0.42v-10.907h3.865v35.546h-3.816v-1.638
		c-0.53,0.299-1.215,0.612-2.059,0.945c-0.843,0.33-1.737,0.609-2.678,0.841C2062.459,792.274,2061.541,792.393,2060.648,792.393z
		 M2061.146,788.922c0.856,0,1.727-0.098,2.601-0.297c0.878-0.199,1.693-0.44,2.454-0.719c0.76-0.28,1.39-0.538,1.886-0.769v-16.609
		c-0.396-0.065-0.939-0.139-1.636-0.224c-0.694-0.081-1.414-0.155-2.155-0.223c-0.745-0.066-1.413-0.098-2.008-0.098
		c-1.687,0-3.009,0.362-3.966,1.088c-0.961,0.73-1.646,1.811-2.06,3.248c-0.411,1.439-0.618,3.232-0.618,5.38
		c0,1.982,0.147,3.576,0.444,4.785c0.299,1.206,0.702,2.13,1.218,2.773c0.513,0.647,1.098,1.084,1.758,1.314
		C2059.724,788.805,2060.419,788.922,2061.146,788.922z"/>
	<path d="M2084.494,792.393c-2.278,0-4.014-0.646-5.205-1.934c-1.19-1.29-1.785-3.173-1.785-5.654c0-1.618,0.279-2.938,0.843-3.965
		c0.563-1.023,1.412-1.811,2.552-2.356c1.143-0.544,2.554-0.882,4.24-1.014l7.635-0.746v-2.13c0-1.687-0.373-2.877-1.117-3.569
		c-0.743-0.694-1.841-1.043-3.296-1.043c-0.827,0-1.81,0.034-2.95,0.101c-1.14,0.064-2.272,0.147-3.396,0.248
		c-1.123,0.1-2.114,0.195-2.975,0.296l-0.198-2.926c0.794-0.165,1.751-0.329,2.876-0.495c1.122-0.165,2.296-0.305,3.521-0.423
		c1.224-0.115,2.348-0.172,3.372-0.172c1.884,0,3.421,0.288,4.61,0.867c1.19,0.578,2.057,1.454,2.602,2.629
		c0.544,1.171,0.819,2.667,0.819,4.484v12.542c0.065,0.727,0.354,1.257,0.866,1.587c0.513,0.33,1.167,0.544,1.958,0.644
		l-0.149,3.024c-0.726,0-1.387-0.04-1.982-0.123c-0.596-0.082-1.156-0.208-1.684-0.372c-0.433-0.165-0.836-0.364-1.218-0.599
		c-0.379-0.229-0.75-0.51-1.113-0.84c-0.629,0.265-1.43,0.544-2.405,0.84c-0.978,0.3-2.017,0.555-3.124,0.772
		C2086.684,792.284,2085.585,792.393,2084.494,792.393z M2085.141,789.169c0.892,0,1.817-0.08,2.774-0.247
		c0.961-0.166,1.866-0.363,2.726-0.597c0.86-0.23,1.57-0.444,2.134-0.643v-8.082l-7.189,0.696c-1.487,0.13-2.554,0.561-3.196,1.287
		c-0.646,0.729-0.968,1.768-0.968,3.124c0,1.387,0.313,2.479,0.943,3.271C2082.99,788.772,2083.915,789.169,2085.141,789.169z"/>
	<path d="M2102.49,791.895v-3.469l13.684-17.849h-13.684v-3.469h18.393v3.469l-13.682,17.849h13.682v3.469H2102.49z"/>
	<path d="M2126.534,761.655v-4.462h3.817v4.462H2126.534z M2126.534,791.895v-24.786h3.817v24.786H2126.534z"/>
	<path d="M2147.01,792.393c-2.777,0-4.933-0.48-6.471-1.438c-1.536-0.96-2.611-2.413-3.222-4.364
		c-0.612-1.948-0.915-4.413-0.915-7.387c0-2.842,0.337-5.189,1.016-7.041c0.675-1.849,1.793-3.238,3.345-4.164
		c1.555-0.924,3.635-1.387,6.247-1.387c2.643,0,4.742,0.463,6.295,1.387c1.555,0.926,2.671,2.315,3.345,4.164
		c0.679,1.852,1.019,4.199,1.019,7.041c0,2.977-0.306,5.438-0.918,7.387c-0.613,1.951-1.686,3.404-3.222,4.364
		C2151.99,791.912,2149.817,792.393,2147.01,792.393z M2147.01,789.069c1.916,0,3.354-0.338,4.313-1.016
		c0.957-0.676,1.594-1.741,1.908-3.198c0.313-1.452,0.471-3.336,0.471-5.651c0-2.279-0.197-4.096-0.596-5.451
		c-0.396-1.356-1.074-2.33-2.031-2.929c-0.959-0.592-2.316-0.892-4.066-0.892c-1.718,0-3.067,0.3-4.041,0.892
		c-0.975,0.599-1.66,1.572-2.057,2.929c-0.398,1.355-0.595,3.172-0.595,5.451c0,2.315,0.155,4.199,0.47,5.651
		c0.313,1.457,0.949,2.522,1.91,3.198C2143.654,788.731,2145.092,789.069,2147.01,789.069z"/>
	<path d="M2163.715,791.895v-24.786h3.818v1.733c0.561-0.33,1.263-0.661,2.105-0.991c0.844-0.33,1.743-0.619,2.702-0.865
		c0.957-0.247,1.883-0.373,2.774-0.373c2.282,0,4.023,0.406,5.231,1.215c1.207,0.808,2.04,2.105,2.505,3.892
		c0.462,1.786,0.692,4.131,0.692,7.038v13.141h-3.865v-12.989c0-2.147-0.124-3.866-0.372-5.155c-0.247-1.29-0.743-2.223-1.486-2.802
		c-0.744-0.578-1.876-0.867-3.396-0.867c-0.827,0-1.676,0.09-2.552,0.273c-0.878,0.181-1.696,0.411-2.454,0.693
		c-0.76,0.281-1.39,0.554-1.885,0.816v20.03h-3.818V791.895z"/>
	<path d="M2199.161,792.393c-2.479,0-4.438-0.48-5.877-1.438c-1.438-0.96-2.472-2.379-3.099-4.265
		c-0.628-1.886-0.942-4.23-0.942-7.039c0-3.139,0.431-5.657,1.29-7.561c0.86-1.9,2.065-3.29,3.618-4.165
		c1.556-0.873,3.388-1.313,5.504-1.313c3.304,0,5.802,0.918,7.485,2.75c1.686,1.837,2.529,4.787,2.529,8.851l-0.198,2.926h-16.309
		c0.032,2.578,0.512,4.529,1.438,5.848c0.923,1.325,2.591,1.983,5.005,1.983c0.925,0,1.944-0.024,3.049-0.073
		c1.108-0.051,2.206-0.106,3.298-0.175c1.091-0.066,2.017-0.131,2.775-0.196l0.101,3.021c-0.795,0.134-1.762,0.267-2.901,0.398
		c-1.141,0.13-2.306,0.238-3.496,0.321C2201.244,792.349,2200.153,792.393,2199.161,792.393z M2193.163,778.015h12.641
		c0-3.04-0.487-5.164-1.462-6.372c-0.974-1.205-2.537-1.809-4.685-1.809c-2.081,0-3.686,0.629-4.812,1.885
		C2193.724,772.976,2193.163,775.071,2193.163,778.015z"/>
	<path d="M2234.158,792.393c-0.99,0-1.935-0.108-2.824-0.322c-0.893-0.217-1.713-0.588-2.456-1.115
		c-0.741-0.527-1.396-1.266-1.957-2.206c-0.562-0.943-0.991-2.155-1.287-3.645c-0.298-1.487-0.447-3.287-0.447-5.404
		c0-2.939,0.347-5.38,1.042-7.311c0.692-1.937,1.801-3.382,3.32-4.339c1.519-0.959,3.535-1.436,6.048-1.436
		c0.958,0,2.033,0.074,3.223,0.224c1.189,0.146,2.113,0.288,2.776,0.42v-10.907h3.866v35.546h-3.818v-1.638
		c-0.529,0.299-1.214,0.612-2.057,0.945c-0.844,0.33-1.735,0.609-2.678,0.841C2235.969,792.274,2235.053,792.393,2234.158,792.393z
		 M2234.653,788.922c0.861,0,1.729-0.098,2.605-0.297c0.874-0.199,1.69-0.44,2.454-0.719c0.76-0.28,1.387-0.538,1.883-0.769v-16.609
		c-0.396-0.065-0.94-0.139-1.635-0.224c-0.694-0.081-1.414-0.155-2.156-0.223c-0.743-0.066-1.414-0.098-2.008-0.098
		c-1.684,0-3.009,0.362-3.966,1.088c-0.96,0.73-1.645,1.811-2.059,3.248c-0.413,1.439-0.619,3.232-0.619,5.38
		c0,1.982,0.148,3.576,0.447,4.785c0.296,1.206,0.7,2.13,1.215,2.773c0.512,0.647,1.098,1.084,1.759,1.314
		C2233.232,788.805,2233.927,788.922,2234.653,788.922z"/>
	<path d="M2261.376,792.393c-2.479,0-4.437-0.48-5.875-1.438c-1.438-0.96-2.472-2.379-3.099-4.265
		c-0.629-1.886-0.942-4.23-0.942-7.039c0-3.139,0.431-5.657,1.287-7.561c0.86-1.9,2.065-3.29,3.621-4.165
		c1.554-0.873,3.387-1.313,5.504-1.313c3.302,0,5.799,0.918,7.485,2.75c1.686,1.837,2.528,4.787,2.528,8.851l-0.198,2.926h-16.311
		c0.033,2.578,0.513,4.529,1.438,5.848c0.926,1.325,2.594,1.983,5.008,1.983c0.925,0,1.94-0.024,3.049-0.073
		c1.107-0.051,2.206-0.106,3.298-0.175c1.09-0.066,2.016-0.131,2.772-0.196l0.101,3.021c-0.792,0.134-1.76,0.267-2.901,0.398
		c-1.138,0.13-2.303,0.238-3.493,0.321C2263.457,792.349,2262.367,792.393,2261.376,792.393z M2255.377,778.015h12.642
		c0-3.04-0.487-5.164-1.461-6.372c-0.977-1.205-2.538-1.809-4.686-1.809c-2.083,0-3.687,0.629-4.81,1.885
		C2255.94,772.976,2255.377,775.071,2255.377,778.015z"/>
	<path d="M2277.934,791.895V756.35h3.816v35.545H2277.934z"/>
	<path d="M2289.484,791.895V756.35h3.816v35.545H2289.484z"/>
	<path d="M2306.142,792.393c-2.279,0-4.017-0.646-5.206-1.934c-1.191-1.29-1.783-3.173-1.783-5.654c0-1.618,0.279-2.938,0.84-3.965
		c0.563-1.023,1.414-1.811,2.555-2.356c1.139-0.544,2.552-0.882,4.238-1.014l7.635-0.746v-2.13c0-1.687-0.373-2.877-1.116-3.569
		c-0.745-0.694-1.844-1.043-3.297-1.043c-0.827,0-1.81,0.034-2.949,0.101c-1.142,0.064-2.273,0.147-3.396,0.248
		c-1.124,0.1-2.115,0.195-2.974,0.296l-0.199-2.926c0.795-0.165,1.752-0.329,2.877-0.495c1.121-0.165,2.296-0.305,3.521-0.423
		c1.222-0.115,2.344-0.172,3.37-0.172c1.883,0,3.421,0.288,4.611,0.867c1.189,0.578,2.058,1.454,2.602,2.629
		c0.543,1.171,0.819,2.667,0.819,4.484v12.542c0.064,0.727,0.354,1.257,0.867,1.587c0.514,0.33,1.163,0.544,1.958,0.644
		l-0.151,3.024c-0.726,0-1.387-0.04-1.981-0.123c-0.595-0.082-1.159-0.208-1.687-0.372c-0.43-0.165-0.833-0.364-1.215-0.599
		c-0.382-0.229-0.751-0.51-1.115-0.84c-0.627,0.265-1.431,0.544-2.403,0.84c-0.977,0.3-2.017,0.555-3.123,0.772
		S2307.232,792.393,2306.142,792.393z M2306.785,789.169c0.893,0,1.818-0.08,2.777-0.247c0.958-0.166,1.865-0.363,2.726-0.597
		c0.86-0.23,1.57-0.444,2.132-0.643v-8.082l-7.188,0.696c-1.487,0.13-2.553,0.561-3.197,1.287c-0.646,0.729-0.967,1.768-0.967,3.124
		c0,1.387,0.313,2.479,0.939,3.271C2304.635,788.772,2305.562,789.169,2306.785,789.169z"/>
	<path d="M2336.53,802.852V767.11h3.816v1.782c0.529-0.33,1.2-0.667,2.009-1.016c0.81-0.344,1.678-0.643,2.602-0.892
		c0.928-0.247,1.819-0.37,2.678-0.37c3.139,0,5.436,1,6.891,2.997c1.454,2,2.183,5.197,2.183,9.592c0,3.242-0.372,5.826-1.118,7.761
		c-0.742,1.932-1.917,3.321-3.518,4.162c-1.604,0.843-3.678,1.266-6.222,1.266c-1.026,0-2.06-0.067-3.099-0.196
		c-1.042-0.134-1.844-0.247-2.405-0.348v11.007h-3.816V802.852z M2345.652,789.021c1.783,0,3.194-0.33,4.237-0.991
		c1.044-0.661,1.777-1.711,2.206-3.146c0.429-1.438,0.646-3.331,0.646-5.679c0-3.338-0.497-5.692-1.488-7.063
		c-0.991-1.373-2.378-2.058-4.165-2.058c-0.794,0-1.609,0.101-2.453,0.296c-0.844,0.199-1.646,0.44-2.404,0.719
		c-0.761,0.282-1.388,0.571-1.884,0.868v16.559c0.529,0.067,1.305,0.165,2.33,0.299
		C2343.703,788.955,2344.693,789.021,2345.652,789.021z"/>
	<path d="M2362.707,791.895v-24.786h3.817v3.321c0.627-0.431,1.42-0.902,2.378-1.415c0.96-0.51,2.016-0.998,3.173-1.463
		c1.156-0.46,2.313-0.79,3.469-0.991v3.916c-1.121,0.231-2.262,0.538-3.42,0.917c-1.157,0.381-2.221,0.785-3.197,1.215
		c-0.975,0.429-1.775,0.809-2.405,1.142v18.145H2362.707L2362.707,791.895z"/>
	<path d="M2388.932,792.393c-2.773,0-4.931-0.48-6.467-1.438c-1.541-0.96-2.614-2.413-3.227-4.364
		c-0.613-1.948-0.915-4.413-0.915-7.387c0-2.842,0.336-5.189,1.015-7.041c0.678-1.849,1.796-3.238,3.35-4.164
		c1.553-0.924,3.635-1.387,6.244-1.387c2.646,0,4.743,0.463,6.298,1.387c1.554,0.926,2.671,2.315,3.346,4.164
		c0.679,1.852,1.018,4.199,1.018,7.041c0,2.977-0.308,5.438-0.917,7.387c-0.613,1.951-1.686,3.404-3.223,4.364
		C2393.916,791.912,2391.744,792.393,2388.932,792.393z M2388.932,789.069c1.918,0,3.354-0.338,4.316-1.016
		c0.957-0.676,1.594-1.741,1.906-3.198c0.314-1.452,0.473-3.336,0.473-5.651c0-2.279-0.201-4.096-0.598-5.451
		c-0.395-1.356-1.072-2.33-2.031-2.929c-0.957-0.592-2.314-0.892-4.068-0.892c-1.717,0-3.063,0.3-4.038,0.892
		c-0.978,0.599-1.661,1.572-2.058,2.929c-0.395,1.355-0.596,3.172-0.596,5.451c0,2.315,0.155,4.199,0.472,5.651
		c0.313,1.457,0.95,2.522,1.907,3.198C2385.58,788.731,2387.015,789.069,2388.932,789.069z"/>
	<path d="M2405.639,802.852V767.11h3.816v1.782c0.53-0.33,1.198-0.667,2.008-1.016c0.811-0.344,1.68-0.643,2.604-0.892
		c0.925-0.247,1.817-0.37,2.675-0.37c3.142,0,5.438,1,6.892,2.997c1.454,2,2.181,5.197,2.181,9.592c0,3.242-0.373,5.826-1.113,7.761
		c-0.745,1.932-1.916,3.321-3.521,4.162c-1.603,0.843-3.677,1.266-6.222,1.266c-1.023,0-2.057-0.067-3.098-0.196
		c-1.04-0.134-1.842-0.247-2.406-0.348v11.007h-3.816V802.852z M2414.762,789.021c1.787,0,3.197-0.33,4.237-0.991
		c1.042-0.661,1.776-1.711,2.206-3.146c0.43-1.438,0.646-3.331,0.646-5.679c0-3.338-0.496-5.692-1.49-7.063
		c-0.99-1.373-2.377-2.058-4.164-2.058c-0.791,0-1.61,0.101-2.453,0.296c-0.844,0.199-1.643,0.44-2.405,0.719
		c-0.76,0.28-1.388,0.571-1.884,0.868v16.559c0.528,0.067,1.304,0.165,2.331,0.299
		C2412.809,788.955,2413.803,789.021,2414.762,789.021z"/>
	<path d="M2431.815,791.895v-24.786h3.817v3.321c0.627-0.431,1.422-0.902,2.379-1.415c0.957-0.51,2.016-0.998,3.173-1.463
		c1.157-0.46,2.313-0.79,3.473-0.991v3.916c-1.126,0.231-2.265,0.538-3.422,0.917c-1.158,0.381-2.223,0.785-3.196,1.215
		c-0.979,0.429-1.779,0.809-2.406,1.142v18.145H2431.815L2431.815,791.895z"/>
	<path d="M2449.019,761.655v-4.462h3.816v4.462H2449.019z M2449.019,791.895v-24.786h3.816v24.786H2449.019z"/>
	<path d="M2465.377,792.393c-2.282,0-4.017-0.646-5.207-1.934c-1.189-1.29-1.786-3.173-1.786-5.654c0-1.618,0.282-2.938,0.843-3.965
		c0.563-1.023,1.414-1.811,2.555-2.356c1.139-0.544,2.554-0.882,4.239-1.014l7.635-0.746v-2.13c0-1.687-0.372-2.877-1.115-3.569
		c-0.745-0.694-1.842-1.043-3.298-1.043c-0.826,0-1.807,0.034-2.95,0.101c-1.14,0.064-2.271,0.147-3.395,0.248
		c-1.121,0.1-2.113,0.195-2.976,0.296l-0.197-2.926c0.795-0.165,1.753-0.329,2.877-0.495c1.123-0.165,2.296-0.305,3.518-0.423
		c1.223-0.115,2.349-0.172,3.372-0.172c1.884,0,3.423,0.288,4.614,0.867c1.187,0.578,2.053,1.454,2.601,2.629
		c0.548,1.171,0.816,2.667,0.816,4.484v12.542c0.068,0.727,0.356,1.257,0.869,1.587c0.511,0.33,1.164,0.544,1.956,0.644
		l-0.148,3.024c-0.728,0-1.387-0.04-1.981-0.123c-0.595-0.082-1.16-0.208-1.687-0.372c-0.43-0.165-0.833-0.364-1.215-0.599
		c-0.382-0.229-0.751-0.51-1.115-0.84c-0.627,0.265-1.428,0.544-2.406,0.84c-0.973,0.3-2.016,0.555-3.121,0.772
		C2467.565,792.284,2466.467,792.393,2465.377,792.393z M2466.021,789.169c0.893,0,1.817-0.08,2.777-0.247
		c0.957-0.166,1.866-0.363,2.726-0.597c0.857-0.23,1.567-0.444,2.132-0.643v-8.082l-7.188,0.696
		c-1.486,0.13-2.553,0.561-3.196,1.287c-0.647,0.729-0.968,1.768-0.968,3.124c0,1.387,0.313,2.479,0.943,3.271
		C2463.872,788.772,2464.797,789.169,2466.021,789.169z"/>
	<path d="M2495.764,791.895v-24.786h3.818v3.321c0.629-0.431,1.421-0.902,2.378-1.415c0.96-0.51,2.017-0.998,3.176-1.463
		c1.157-0.46,2.31-0.79,3.469-0.991v3.916c-1.123,0.231-2.265,0.538-3.421,0.917c-1.158,0.381-2.224,0.785-3.197,1.215
		c-0.974,0.429-1.775,0.809-2.404,1.142v18.145H2495.764L2495.764,791.895z"/>
	<path d="M2521.247,792.393c-2.476,0-4.435-0.48-5.874-1.438c-1.438-0.96-2.473-2.379-3.1-4.265s-0.939-4.23-0.939-7.039
		c0-3.139,0.428-5.657,1.287-7.561c0.861-1.9,2.064-3.29,3.62-4.165c1.553-0.873,3.388-1.313,5.501-1.313
		c3.307,0,5.803,0.918,7.488,2.75c1.684,1.837,2.526,4.787,2.526,8.851l-0.197,2.926h-16.31c0.031,2.578,0.512,4.529,1.436,5.848
		c0.926,1.325,2.596,1.983,5.009,1.983c0.925,0,1.94-0.024,3.048-0.073c1.109-0.051,2.204-0.106,3.295-0.175
		c1.093-0.066,2.018-0.131,2.777-0.196l0.1,3.021c-0.793,0.134-1.762,0.267-2.9,0.398c-1.141,0.13-2.306,0.238-3.494,0.321
		C2523.328,792.349,2522.24,792.393,2521.247,792.393z M2515.25,778.015h12.643c0-3.04-0.491-5.164-1.467-6.372
		c-0.974-1.205-2.535-1.809-4.684-1.809c-2.082,0-3.686,0.629-4.809,1.885C2515.813,772.976,2515.25,775.071,2515.25,778.015z"/>
	<path d="M2547.076,803.546c-2.578,0-4.653-0.224-6.223-0.669c-1.572-0.446-2.711-1.218-3.42-2.307
		c-0.711-1.091-1.065-2.579-1.065-4.462c0-0.957,0.149-1.776,0.446-2.454c0.297-0.679,0.734-1.306,1.313-1.886
		c0.579-0.577,1.298-1.179,2.158-1.81c-0.433-0.328-0.77-0.8-1.018-1.412s-0.373-1.298-0.373-2.055c0-0.365,0.19-0.952,0.571-1.763
		c0.38-0.808,0.751-1.527,1.113-2.154c-0.692-0.33-1.329-0.785-1.907-1.364c-0.578-0.577-1.05-1.364-1.414-2.356
		c-0.364-0.991-0.545-2.247-0.545-3.766c0-3.043,0.857-5.214,2.578-6.519c1.721-1.308,3.951-1.958,6.695-1.958
		c0.891,0,1.832,0.064,2.825,0.196c0.989,0.132,1.765,0.283,2.329,0.445l7.387-0.196v3.272l-4.66-0.101
		c0.465,0.465,0.85,1.074,1.166,1.835c0.314,0.76,0.471,1.769,0.471,3.024c0,2.15-0.364,3.834-1.089,5.057
		c-0.731,1.222-1.802,2.082-3.226,2.577c-1.421,0.496-3.205,0.744-5.354,0.744c-0.232,0-0.619-0.025-1.166-0.076
		c-0.543-0.048-0.948-0.09-1.214-0.124c-0.198,0.465-0.396,0.991-0.595,1.587c-0.199,0.596-0.298,1.008-0.298,1.24
		c0,0.629,0.116,1.106,0.345,1.438c0.231,0.328,0.77,0.545,1.614,0.644c0.841,0.101,2.171,0.149,3.989,0.149
		c2.379,0,4.279,0.198,5.703,0.594c1.419,0.396,2.437,1.116,3.047,2.158c0.611,1.039,0.916,2.552,0.916,4.537
		c0,2.807-0.975,4.832-2.924,6.071C2553.307,802.925,2550.58,803.546,2547.076,803.546z M2547.125,800.274
		c2.447,0,4.246-0.347,5.402-1.042c1.156-0.694,1.738-1.834,1.738-3.42c0-1.224-0.189-2.125-0.572-2.702
		c-0.381-0.581-1.015-0.96-1.906-1.143c-0.894-0.18-2.085-0.271-3.569-0.271c-0.299,0-0.712-0.008-1.238-0.025
		c-0.53-0.017-1.077-0.03-1.639-0.048c-0.562-0.02-1.063-0.042-1.511-0.078c-0.445-0.028-0.751-0.049-0.92-0.049
		c-1.021,0.727-1.733,1.381-2.129,1.959c-0.396,0.578-0.596,1.346-0.596,2.306c0,1.091,0.199,1.966,0.596,2.627
		c0.396,0.66,1.1,1.142,2.106,1.438C2543.896,800.123,2545.308,800.274,2547.125,800.274z M2545.986,780.394
		c2.046,0,3.5-0.404,4.362-1.213c0.857-0.813,1.288-2.174,1.288-4.092c0-1.917-0.431-3.29-1.288-4.116
		c-0.86-0.826-2.316-1.237-4.362-1.237c-1.917,0-3.299,0.411-4.141,1.237c-0.844,0.826-1.267,2.199-1.267,4.116
		c0,1.918,0.423,3.279,1.267,4.092C2542.688,779.989,2544.069,780.394,2545.986,780.394z"/>
	<path d="M2563.039,761.655v-4.462h3.815v4.462H2563.039z M2563.039,791.895v-24.786h3.815v24.786H2563.039z"/>
	<path d="M2581.727,792.393c-0.759,0-1.678-0.051-2.752-0.147c-1.071-0.101-2.138-0.227-3.194-0.374
		c-1.06-0.148-2.001-0.287-2.825-0.421l0.195-3.32c0.828,0.097,1.764,0.213,2.803,0.345c1.042,0.133,2.058,0.24,3.048,0.322
		c0.993,0.082,1.786,0.125,2.382,0.125c1.352,0,2.479-0.125,3.369-0.373c0.893-0.247,1.569-0.668,2.034-1.263
		c0.462-0.599,0.694-1.438,0.694-2.529c0-0.825-0.174-1.471-0.521-1.934c-0.344-0.462-0.992-0.845-1.936-1.141
		c-0.939-0.296-2.305-0.578-4.088-0.843c-1.852-0.296-3.395-0.668-4.637-1.115c-1.238-0.444-2.154-1.115-2.75-2.007
		c-0.596-0.895-0.893-2.164-0.893-3.817c0-1.851,0.429-3.304,1.287-4.363c0.86-1.058,1.975-1.807,3.348-2.254
		c1.37-0.447,2.801-0.671,4.285-0.671c0.928,0,1.945,0.049,3.049,0.149c1.109,0.098,2.193,0.224,3.25,0.37
		c1.057,0.151,1.965,0.291,2.723,0.423l-0.097,3.32c-0.794-0.13-1.72-0.254-2.776-0.37c-1.057-0.117-2.115-0.218-3.174-0.297
		c-1.059-0.083-1.982-0.126-2.773-0.126c-0.992,0-1.887,0.108-2.676,0.322c-0.795,0.217-1.424,0.588-1.885,1.115
		c-0.465,0.53-0.695,1.271-0.695,2.23c0,0.729,0.164,1.314,0.494,1.762c0.332,0.444,0.958,0.816,1.883,1.112
		c0.927,0.299,2.264,0.598,4.018,0.895c2.048,0.33,3.692,0.743,4.934,1.238c1.238,0.496,2.139,1.189,2.701,2.083
		c0.563,0.892,0.844,2.147,0.844,3.767c0,2.907-0.859,4.934-2.576,6.074C2587.098,791.822,2584.736,792.393,2581.727,792.393z"/>
	<path d="M2605.228,792.441c-1.72,0-3.083-0.264-4.091-0.794c-1.009-0.528-1.728-1.446-2.155-2.751
		c-0.431-1.305-0.646-3.148-0.646-5.527v-12.938h-3.52v-3.321h3.52v-7.588h3.815v7.588h7.783v3.321h-7.783v11.796
		c0,1.754,0.075,3.117,0.224,4.091c0.15,0.976,0.471,1.66,0.968,2.059c0.495,0.396,1.27,0.596,2.33,0.596
		c0.329,0,0.759-0.018,1.286-0.051c0.531-0.032,1.068-0.076,1.612-0.125c0.546-0.048,1.032-0.09,1.462-0.123l0.248,3.221
		c-0.727,0.1-1.583,0.217-2.576,0.347C2606.715,792.374,2605.889,792.441,2605.228,792.441z"/>
	<path d="M2614.496,791.895v-24.786h3.817v3.321c0.628-0.431,1.421-0.902,2.378-1.415c0.961-0.51,2.018-0.998,3.174-1.463
		c1.159-0.46,2.313-0.79,3.473-0.991v3.916c-1.125,0.231-2.265,0.538-3.421,0.917c-1.161,0.381-2.224,0.785-3.199,1.215
		c-0.972,0.429-1.776,0.809-2.404,1.142v18.145H2614.496L2614.496,791.895z"/>
	<path d="M2637.103,792.393c-2.282,0-4.017-0.646-5.207-1.934c-1.191-1.29-1.786-3.173-1.786-5.654c0-1.618,0.282-2.938,0.844-3.965
		c0.561-1.023,1.412-1.811,2.553-2.356c1.141-0.544,2.553-0.882,4.24-1.014l7.635-0.746v-2.13c0-1.687-0.373-2.877-1.117-3.569
		c-0.742-0.694-1.84-1.043-3.297-1.043c-0.826,0-1.807,0.034-2.947,0.101c-1.141,0.064-2.272,0.147-3.395,0.248
		c-1.123,0.1-2.115,0.195-2.979,0.296l-0.195-2.926c0.794-0.165,1.752-0.329,2.877-0.495c1.121-0.165,2.295-0.305,3.518-0.423
		c1.225-0.115,2.348-0.172,3.371-0.172c1.885,0,3.422,0.288,4.613,0.867c1.188,0.578,2.056,1.454,2.602,2.629
		c0.547,1.171,0.816,2.667,0.816,4.484v12.542c0.068,0.727,0.357,1.257,0.869,1.587c0.51,0.33,1.164,0.544,1.956,0.644l-0.148,3.024
		c-0.728,0-1.387-0.04-1.983-0.123c-0.594-0.082-1.158-0.208-1.684-0.372c-0.431-0.165-0.836-0.364-1.217-0.599
		c-0.381-0.229-0.75-0.51-1.114-0.84c-0.628,0.265-1.429,0.544-2.405,0.84c-0.975,0.3-2.014,0.555-3.122,0.772
		S2638.193,792.393,2637.103,792.393z M2637.746,789.169c0.891,0,1.816-0.08,2.777-0.247c0.957-0.166,1.865-0.363,2.726-0.597
		c0.856-0.23,1.569-0.444,2.132-0.643v-8.082l-7.188,0.696c-1.488,0.13-2.554,0.561-3.197,1.287
		c-0.647,0.729-0.967,1.768-0.967,3.124c0,1.387,0.313,2.479,0.942,3.271C2635.599,788.772,2636.523,789.169,2637.746,789.169z"/>
	<path d="M2655.099,791.895v-3.469l13.681-17.849h-13.681v-3.469h18.394v3.469l-13.686,17.849h13.686v3.469H2655.099z"/>
	<path d="M2679.143,761.655v-4.462h3.814v4.462H2679.143z M2679.143,791.895v-24.786h3.814v24.786H2679.143z"/>
	<path d="M2699.615,792.393c-2.773,0-4.933-0.48-6.469-1.438c-1.536-0.96-2.611-2.413-3.223-4.364
		c-0.61-1.948-0.918-4.413-0.918-7.387c0-2.842,0.34-5.189,1.016-7.041c0.679-1.849,1.791-3.238,3.348-4.164
		c1.553-0.924,3.633-1.387,6.246-1.387c2.645,0,4.742,0.463,6.297,1.387c1.553,0.926,2.67,2.315,3.346,4.164
		c0.678,1.852,1.017,4.199,1.017,7.041c0,2.977-0.308,5.438-0.917,7.387c-0.611,1.951-1.686,3.404-3.225,4.364
		C2704.598,791.912,2702.426,792.393,2699.615,792.393z M2699.615,789.069c1.916,0,3.354-0.338,4.314-1.016
		c0.957-0.676,1.594-1.741,1.908-3.198c0.313-1.452,0.471-3.336,0.471-5.651c0-2.279-0.199-4.096-0.595-5.451
		c-0.396-1.356-1.075-2.33-2.035-2.929c-0.956-0.592-2.312-0.892-4.063-0.892c-1.719,0-3.066,0.3-4.04,0.892
		c-0.976,0.599-1.663,1.572-2.06,2.929c-0.394,1.355-0.596,3.172-0.596,5.451c0,2.315,0.16,4.199,0.472,5.651
		c0.313,1.457,0.951,2.522,1.91,3.198C2696.261,788.731,2697.697,789.069,2699.615,789.069z"/>
	<path d="M2716.321,791.895v-24.786h3.817v1.733c0.563-0.33,1.265-0.661,2.106-0.991c0.843-0.33,1.744-0.619,2.7-0.865
		c0.961-0.25,1.886-0.373,2.777-0.373c2.278,0,4.022,0.406,5.23,1.215c1.206,0.808,2.039,2.105,2.504,3.892
		c0.461,1.786,0.695,4.131,0.695,7.038v13.141h-3.865v-12.989c0-2.147-0.127-3.866-0.373-5.155c-0.25-1.29-0.746-2.223-1.488-2.802
		c-0.744-0.578-1.876-0.867-3.395-0.867c-0.828,0-1.68,0.09-2.554,0.273c-0.878,0.181-1.694,0.411-2.454,0.693
		c-0.764,0.281-1.387,0.554-1.885,0.816v20.03h-3.817V791.895z"/>
	<path d="M2751.767,792.393c-2.478,0-4.437-0.48-5.872-1.438c-1.438-0.96-2.474-2.379-3.1-4.265
		c-0.627-1.886-0.939-4.23-0.939-7.039c0-3.139,0.426-5.657,1.287-7.561c0.856-1.9,2.064-3.29,3.617-4.165
		c1.553-0.873,3.39-1.313,5.504-1.313c3.305,0,5.799,0.918,7.488,2.75c1.683,1.837,2.525,4.787,2.525,8.851l-0.195,2.926h-16.313
		c0.033,2.578,0.511,4.529,1.438,5.848c0.926,1.325,2.595,1.983,5.007,1.983c0.927,0,1.942-0.024,3.048-0.073
		c1.109-0.051,2.206-0.106,3.297-0.175c1.091-0.066,2.016-0.131,2.776-0.196l0.098,3.021c-0.793,0.134-1.759,0.267-2.899,0.398
		c-1.142,0.13-2.305,0.238-3.496,0.321C2753.85,792.349,2752.762,792.393,2751.767,792.393z M2745.77,778.015h12.643
		c0-3.04-0.489-5.164-1.461-6.372c-0.979-1.205-2.538-1.809-4.688-1.809c-2.084,0-3.687,0.629-4.81,1.885
		C2746.332,772.976,2745.77,775.071,2745.77,778.015z"/>
</g>
</svg>
