<?xml version="1.0" encoding="utf-8"?>
<!-- Generator: Adobe Illustrator 16.0.0, SVG Export Plug-In . SVG Version: 6.00 Build 0)  -->
<!DOCTYPE svg PUBLIC "-//W3C//DTD SVG 1.1//EN" "http://www.w3.org/Graphics/SVG/1.1/DTD/svg11.dtd">
<svg version="1.1" id="Capa_1" xmlns="http://www.w3.org/2000/svg" xmlns:xlink="http://www.w3.org/1999/xlink" x="0px" y="0px"
	 width="120px" height="120px" viewBox="0 0 120 120" enable-background="new 0 0 120 120" xml:space="preserve">
<circle fill="#F5834E" cx="60" cy="59.997" r="52.333"/>
<g>
	<defs>
		<circle id="SVGID_17_" cx="60" cy="59.997" r="52.333"/>
	</defs>
	<clipPath id="SVGID_2_">
		<use xlink:href="#SVGID_17_"  overflow="visible"/>
	</clipPath>
	<g clip-path="url(#SVGID_2_)">
		<rect x="49.979" y="77.225" fill="#FBBCA0" width="20.042" height="13.504"/>
		<path fill="#E6E7E8" d="M54.84,86.993c3.019,1.197,6.333,1.924,9.585,1.949c1.862,0.016,3.758-0.217,5.596-0.541V77.225H49.979
			v6.985C51.387,85.45,53.184,86.336,54.84,86.993z"/>
		<g>
			<path fill="#FBBCA0" d="M80.923,52.219c0.064-0.49,0.88-1.289,1.235-1.559c0.794-0.602,1.595,0.016,1.826,0.799
				c0.208,0.699,0.228,1.487,0.276,2.215c0.122,1.77-0.14,3.509-0.92,5.107c-0.521,1.064-1.336,1.941-2.3,2.602
				c0,0-1.041,0.529-1.248-0.688C79.793,60.696,80.922,52.225,80.923,52.219z"/>
			<path fill="#DDA78F" d="M80.758,53.283c0.046-0.351,0.629-0.923,0.883-1.116c0.569-0.43,1.141,0.012,1.307,0.572
				c0.149,0.502,0.162,1.064,0.198,1.585c0.087,1.268-0.101,2.511-0.658,3.654c-0.372,0.763-0.956,1.39-1.646,1.863
				c0,0-0.744,0.378-0.892-0.492C79.949,59.349,80.756,53.288,80.758,53.283z"/>
		</g>
		<g>
			<path fill="#FBBCA0" d="M38.566,52.219c-0.065-0.49-0.88-1.289-1.236-1.559c-0.793-0.602-1.594,0.016-1.826,0.799
				c-0.207,0.699-0.227,1.487-0.276,2.215c-0.122,1.77,0.141,3.509,0.921,5.107c0.519,1.064,1.335,1.941,2.3,2.602
				c0,0,1.04,0.529,1.247-0.688C39.695,60.696,38.566,52.225,38.566,52.219z"/>
			<path fill="#DDA78F" d="M38.731,53.283c-0.047-0.351-0.629-0.923-0.885-1.116c-0.567-0.43-1.14,0.012-1.306,0.572
				c-0.149,0.502-0.162,1.064-0.198,1.585c-0.086,1.268,0.101,2.511,0.658,3.654c0.373,0.763,0.956,1.39,1.646,1.863
				c0,0,0.744,0.378,0.892-0.492C39.539,59.349,38.733,53.288,38.731,53.283z"/>
		</g>
		<path fill="#FBBCA0" d="M81.558,53.815c0,5.588-0.941,11.238-3.517,16.075c-2.25,4.229-5.628,7.616-9.252,10.32
			c-2.941,2.194-6.094,4.751-9.816,4.438c-3.879-0.326-6.9-3.711-9.735-6.352c-3.986-3.716-7.133-8.33-9.071-13.759
			c-1.194-3.345-1.743-7.122-1.743-10.724c0-18.066,9.656-29.431,21.567-29.431S81.558,35.749,81.558,53.815z"/>
		<path fill="#FBBCA0" d="M94.996,96.835l-24.976-6.531H60H49.979l-24.977,6.531c0,0-11.574,4.288-12.86,17.862H60h47.857
			C106.57,101.124,94.996,96.835,94.996,96.835z"/>
		<path fill="#FFFFFF" d="M94.996,96.835l-24.976-6.531H60H49.979l-24.977,6.531c0,0-11.574,4.288-12.86,17.862H60h47.857
			C106.57,101.124,94.996,96.835,94.996,96.835z"/>
		<path fill="#3C0000" d="M94.996,96.835l-18.483-4.833L60,114.698L43.665,91.956l-18.663,4.88c0,0-11.574,4.288-12.86,17.862H60
			h47.857C106.57,101.124,94.996,96.835,94.996,96.835z"/>
		<polygon fill="#14BAAB" points="57.808,103.327 53.207,114.698 66.282,114.698 61.797,103.327 		"/>
		<g>
			<polygon fill="#14BAAB" points="59.698,90.527 53.84,98.385 57.912,103.358 59.905,103.326 61.899,103.293 65.808,98.191 			"/>
			<path fill="#D1D3D4" d="M63.612,97.356c-0.75,1.48-2.145,3.166-4.036,2.75c-1.955-0.43-2.855-2.279-2.403-4.16
				c0.44-1.834,1.624-3.359,2.282-5.094l-5.615,7.533l4.072,4.973l3.987-0.064l3.908-5.103l-1.653-2.073
				C63.992,96.54,63.814,96.954,63.612,97.356z"/>
		</g>
		<polygon fill="#250000" points="60,114.698 43.665,91.956 30.604,95.372 47.295,107.122 43.008,109.012 50.723,114.698 		"/>
		<polygon fill="#250000" points="60,114.729 76.334,91.987 89.395,95.402 72.704,107.153 76.991,109.043 69.274,114.729 		"/>
		<polygon fill="#E2E3E4" points="40.149,90.783 49.945,86.188 59.932,90.358 69.918,86.188 80.385,90.783 65.586,100.69 
			59.932,92.591 53.84,100.69 		"/>
		<path fill="#160100" d="M72.625,76.945c0,0,5.415-5.12,6.611-9.64c0,0-6.39,5.764-8.616,5.15L72.625,76.945z"/>
		<path fill="#160100" d="M48.877,78.477c0,0-6.275-5.379-8.002-12.117c0,0,7.162,8.267,9.388,7.652L48.877,78.477z"/>
		<path fill="#1E0500" d="M63.816,69.61c3.545,0.049,5.476,1.273,5.476,1.273c3.114,1.467,3.909,5.461,3.909,5.461
			s-2.143,2.369-4.756,4.047c-5.91,4.897-8.621,4.278-8.621,4.278c-3.362,0.005-5.721-2.098-5.721-2.098l-5.53-4.333
			c-0.688-4.924,3.607-7.355,3.607-7.355c2.577-1.253,3.043-1.085,3.043-1.085s3.859-0.451,4.804,1.081c0,0,0.971-1.27,3.596-1.27"
			/>
		<g>
			<path fill="#FBBCA0" d="M60.516,73.663c0,0-2.428-1.214-5.957,0.09c0,0,5.359,5.684,11.443,0.074
				C66.002,73.827,62.741,72.305,60.516,73.663z"/>
		</g>
		<path fill="#160100" d="M81.751,27.166c4.858-3.537,4.328-8.979,4.328-8.979c-2.825,3.107-6.972,3.514-6.972,3.514
			c4.287-2.572,2.159-7.93,2.159-7.93c-1.34,3-7.305,4.715-7.305,4.715c2.895-1.93,1.092-6.324,1.092-6.324
			c-2.016,3.431-8.057,4.931-8.057,4.931c3.966-2.251,4.395-5.466,4.395-5.466c-3.538,3.107-13.183,4.608-13.183,4.608
			s-10.626,0.968-13.266,9.796c-7.77,1.119-7.842,14.258-7.302,21.35c0,0,0,0,0,0.001l0.491,8.578h1.726
			c-0.772-4.108,0-9.682,0-9.682l0,0c1.187-3.993,1.797-6.354,2.563-8.024c1.843-4.02,4.712-5.239,6.545-5.598l1.741-0.131
			c7.608-1.114,9.853,4.287,9.853,4.287c1.179-3.107,5.152-3.857,5.152-3.857c11.573-1.544,13.233,7.608,13.233,7.608l1.307,5.823
			c0.181,1.939,0.493,6.431-0.099,9.573h1.726l0.492-8.578c0.014-0.265,0.012-0.498-0.001-0.709
			C83.241,41.888,84.015,34.092,81.751,27.166z"/>
	</g>
</g>
</svg>
