<?xml version="1.0" encoding="utf-8"?>
<!-- Generator: Adobe Illustrator 16.0.0, SVG Export Plug-In . SVG Version: 6.00 Build 0)  -->
<!DOCTYPE svg PUBLIC "-//W3C//DTD SVG 1.1//EN" "http://www.w3.org/Graphics/SVG/1.1/DTD/svg11.dtd">
<svg version="1.1" id="Capa_1" xmlns="http://www.w3.org/2000/svg" xmlns:xlink="http://www.w3.org/1999/xlink" x="0px" y="0px"
	 width="120px" height="120px" viewBox="0 0 120 120" enable-background="new 0 0 120 120" xml:space="preserve">
<circle fill="#14BAAB" cx="61" cy="59.603" r="52.333"/>
<g>
	<defs>
		<circle id="SVGID_3_" cx="61" cy="59.603" r="52.333"/>
	</defs>
	<clipPath id="SVGID_2_">
		<use xlink:href="#SVGID_3_"  overflow="visible"/>
	</clipPath>
	<g clip-path="url(#SVGID_2_)">
		<path fill="#0E0000" d="M37.049,55.199c-0.293,0.43-1.19,36.823,5.204,44.273H78.45c0,0,9.886-27.939,3.151-44.273H36.834"/>
		<g>
			<rect x="51.557" y="75.203" fill="#FBBCA0" width="20.041" height="13.503"/>
			<path fill="#E6E7E8" d="M56.418,84.97c3.019,1.197,6.333,1.923,9.584,1.95c1.864,0.014,3.758-0.217,5.596-0.542V75.203H51.557
				v6.984C52.964,83.426,54.762,84.313,56.418,84.97z"/>
			<g>
				<path fill="#FBBCA0" d="M83.271,49.796c0.067-0.498,0.911-1.307,1.28-1.579c0.823-0.609,1.653,0.017,1.893,0.809
					c0.215,0.709,0.235,1.507,0.286,2.242c0.127,1.792-0.146,3.553-0.953,5.17c-0.539,1.079-1.384,1.966-2.384,2.635
					c0,0-1.079,0.536-1.292-0.696C82.102,58.377,83.271,49.802,83.271,49.796z"/>
				<path fill="#DDA78F" d="M83.1,50.873c0.048-0.355,0.652-0.934,0.915-1.13c0.591-0.435,1.184,0.013,1.355,0.579
					c0.154,0.507,0.169,1.078,0.206,1.604c0.089,1.283-0.106,2.542-0.684,3.7c-0.386,0.772-0.991,1.407-1.706,1.886
					c0,0-0.771,0.383-0.924-0.499C82.263,57.013,83.099,50.877,83.1,50.873z"/>
			</g>
			<g>
				<path fill="#FBBCA0" d="M39.374,49.796c-0.067-0.498-0.912-1.307-1.28-1.579c-0.822-0.609-1.651,0.017-1.892,0.809
					c-0.217,0.709-0.236,1.507-0.287,2.242c-0.125,1.792,0.146,3.553,0.953,5.17c0.539,1.079,1.384,1.966,2.385,2.635
					c0,0,1.078,0.536,1.291-0.696C40.544,58.377,39.376,49.802,39.374,49.796z"/>
				<path fill="#DDA78F" d="M39.546,50.873c-0.048-0.355-0.651-0.934-0.916-1.13c-0.59-0.435-1.184,0.013-1.354,0.579
					c-0.154,0.507-0.168,1.078-0.207,1.604c-0.089,1.283,0.105,2.542,0.684,3.7c0.386,0.772,0.99,1.407,1.707,1.886
					c0,0,0.771,0.383,0.925-0.499C40.385,57.013,39.548,50.877,39.546,50.873z"/>
			</g>
			<path fill="#FBBCA0" d="M83.929,51.41c0,5.658-0.976,11.379-3.645,16.275c-2.333,4.282-5.832,7.709-9.588,10.448
				c-3.048,2.221-6.315,4.809-10.172,4.493c-4.021-0.331-7.153-3.757-10.09-6.431c-4.133-3.761-7.393-8.432-9.4-13.928
				c-1.238-3.386-1.809-7.21-1.809-10.857c0-18.289,10.008-29.793,22.352-29.793C73.922,21.617,83.929,33.121,83.929,51.41z"/>
			<path fill="#FBBCA0" d="M92.069,94.812l-21.761-6.531h-8.731h-8.729l-21.763,6.531c0,0-10.084,4.288-11.204,17.862h41.696h41.697
				C102.155,99.1,92.069,94.812,92.069,94.812z"/>
			<path fill="#EC524F" d="M92.069,94.812l-12.034-3.611l-18.458,18.444L43.065,91.217l-11.98,3.595c0,0-10.084,4.288-11.204,17.862
				h41.696h41.697C102.155,99.1,92.069,94.812,92.069,94.812z"/>
		</g>
		<path fill="#3C2415" d="M46.409,28.881c0,0,10.764,17.071,37.45,19.975c0,0,5.05-19.447-13.72-28.903
			C70.14,19.953,55.776,14.025,46.409,28.881z"/>
		<path fill="#3C2415" d="M49.168,32.334c0,0-6.95,4.497-9.968,17.047c0,0-3.234-23.65,13.494-26.604L49.168,32.334z"/>
		<path fill="#3C2415" d="M76.443,46.889c0,0,7.164,45.563-4.154,58.458c0,0,14.471-2.149,15.188-22.065
			c0,0,2.579-40.691-7.215-54.733L76.443,46.889z"/>
		<path fill="#3C2415" d="M45.822,105.347c0,0-16.661-1.975-12.075-53.213c0,0,1.146-28.457,17.81-29.111L50.593,33.82
			c0,0-9.577,2.852-8.34,25.369C42.253,59.189,41.278,95.46,45.822,105.347z"/>
	</g>
</g>
</svg>
