<?xml version="1.0" encoding="utf-8"?>
<!-- Generator: Adobe Illustrator 16.0.0, SVG Export Plug-In . SVG Version: 6.00 Build 0)  -->
<!DOCTYPE svg PUBLIC "-//W3C//DTD SVG 1.1//EN" "http://www.w3.org/Graphics/SVG/1.1/DTD/svg11.dtd">
<svg version="1.1" id="Capa_1" xmlns="http://www.w3.org/2000/svg" xmlns:xlink="http://www.w3.org/1999/xlink" x="0px" y="0px"
	 width="120px" height="120px" viewBox="0 0 120 120" enable-background="new 0 0 120 120" xml:space="preserve">
<circle fill="#FBB040" cx="60" cy="60" r="52.333"/>
<g>
	<defs>
		<circle id="SVGID_5_" cx="60" cy="60" r="52.333"/>
	</defs>
	<clipPath id="SVGID_2_">
		<use xlink:href="#SVGID_5_"  overflow="visible"/>
	</clipPath>
	<g clip-path="url(#SVGID_2_)">
		<rect x="51.753" y="76.105" fill="#FBBCA0" width="20.041" height="13.504"/>
		<path fill="#E6E7E8" d="M56.613,85.873c3.019,1.196,6.333,1.923,9.585,1.949c1.863,0.015,3.758-0.217,5.596-0.543V76.105H51.753
			v6.984C53.159,84.328,54.958,85.215,56.613,85.873z"/>
		<g>
			<path fill="#FBBCA0" d="M83.467,50.698c0.067-0.497,0.911-1.306,1.28-1.579c0.824-0.609,1.653,0.017,1.893,0.809
				c0.215,0.708,0.235,1.507,0.287,2.242c0.125,1.792-0.146,3.553-0.954,5.17c-0.538,1.079-1.384,1.966-2.384,2.636
				c0,0-1.078,0.535-1.292-0.697C82.297,59.279,83.466,50.704,83.467,50.698z"/>
			<path fill="#DDA78F" d="M83.295,51.775c0.049-0.355,0.651-0.935,0.917-1.131c0.588-0.435,1.182,0.014,1.354,0.58
				c0.154,0.508,0.169,1.077,0.205,1.604c0.09,1.283-0.104,2.543-0.682,3.699c-0.387,0.773-0.991,1.407-1.707,1.887
				c0,0-0.771,0.383-0.925-0.499C82.457,57.915,83.294,51.779,83.295,51.775z"/>
		</g>
		<g>
			<path fill="#FBBCA0" d="M39.57,50.698c-0.067-0.497-0.911-1.306-1.281-1.579c-0.822-0.609-1.652,0.017-1.893,0.809
				c-0.214,0.708-0.233,1.507-0.286,2.242c-0.126,1.792,0.146,3.553,0.953,5.17c0.539,1.079,1.384,1.966,2.385,2.636
				c0,0,1.078,0.535,1.293-0.697C40.741,59.279,39.571,50.704,39.57,50.698z"/>
			<path fill="#DDA78F" d="M39.742,51.775c-0.049-0.355-0.651-0.935-0.917-1.131c-0.589-0.435-1.183,0.014-1.354,0.58
				c-0.153,0.508-0.168,1.077-0.204,1.604c-0.091,1.283,0.104,2.543,0.682,3.699c0.386,0.773,0.99,1.407,1.706,1.887
				c0,0,0.771,0.383,0.926-0.499C40.58,57.915,39.742,51.779,39.742,51.775z"/>
		</g>
		<path fill="#FBBCA0" d="M84.124,52.313c0,5.657-0.976,11.379-3.645,16.274c-2.332,4.282-5.831,7.71-9.587,10.448
			c-3.048,2.221-6.316,4.809-10.173,4.493c-4.021-0.331-7.152-3.757-10.09-6.431c-4.131-3.761-7.392-8.434-9.401-13.928
			c-1.237-3.387-1.807-7.211-1.807-10.857c0-18.29,10.008-29.793,22.352-29.793S84.124,34.023,84.124,52.313z"/>
		<path fill="#FBBCA0" d="M96.771,95.715l-24.977-6.531H61.773H51.753l-24.977,6.531c0,0-11.575,4.287-12.861,17.862h47.858h47.857
			C108.345,100.002,96.771,95.715,96.771,95.715z"/>
		<path fill="#FFFFFF" d="M96.771,95.715l-24.977-6.531H61.773H51.753l-24.977,6.531c0,0-11.575,4.287-12.861,17.862h47.858h47.857
			C108.345,100.002,96.771,95.715,96.771,95.715z"/>
		<path fill="#3C2415" d="M45.438,31.263c0,0,7.498,11.148,26.355,12.435c0,0-1.577-0.715-3.435-5.574c0,0,6.153,5.288,13.938,8.717
			l1.792,3.628c0,0-0.014-1.852,1.703-1.526c0,0,1.43-14.534-4.572-21.68c0,0,2.868,0.143,4.721,1.715c0,0-2.72-5.716-12.008-8.86
			c0,0,2.287-1.857,6.431-0.572c0,0-5.483-2.572-14.674-2.143C65.689,17.404,47.666,16.684,45.438,31.263z"/>
		<path fill="#3C2415" d="M48.354,33.914L39.46,50.396c0,0-0.793-0.955-1.171-1.277c0,0-0.456-22.641,12.078-26.928L48.354,33.914z"
			/>
		<path fill="#414042" d="M96.771,95.715l-18.484-4.834l-16.513,22.696L45.438,90.834l-18.662,4.881c0,0-11.575,4.287-12.861,17.862
			h47.858h47.857C108.345,100.002,96.771,95.715,96.771,95.715z"/>
		<polygon fill="#BD1E2D" points="59.582,102.206 54.98,113.577 68.056,113.577 63.57,102.206 		"/>
		<g>
			<polygon fill="#BE1E2D" points="61.472,89.406 55.613,97.266 59.686,102.237 61.68,102.205 63.673,102.172 67.581,97.07 			"/>
			<path fill="#D1D3D4" d="M65.386,96.234c-0.749,1.481-2.144,3.168-4.035,2.752c-1.955-0.43-2.855-2.28-2.404-4.162
				c0.441-1.832,1.625-3.357,2.283-5.093l-5.616,7.534l4.072,4.972l3.987-0.065l3.908-5.102l-1.652-2.074
				C65.767,95.418,65.588,95.833,65.386,96.234z"/>
		</g>
		<polygon fill="#2E2E2F" points="61.773,113.577 45.438,90.834 32.378,94.25 49.068,106 44.781,107.892 52.497,113.577 		"/>
		<polygon fill="#2E2E2F" points="61.773,113.608 78.108,90.866 91.168,94.281 74.479,106.032 78.766,107.923 71.048,113.608 		"/>
		<polygon fill="#E2E3E4" points="41.923,89.661 51.72,85.066 61.705,89.237 71.692,85.066 82.159,89.661 67.359,99.57 
			61.705,91.471 55.613,99.57 		"/>
	</g>
</g>
</svg>
