<?xml version="1.0" encoding="utf-8"?>
<!-- Generator: Adobe Illustrator 16.0.0, SVG Export Plug-In . SVG Version: 6.00 Build 0)  -->
<!DOCTYPE svg PUBLIC "-//W3C//DTD SVG 1.1//EN" "http://www.w3.org/Graphics/SVG/1.1/DTD/svg11.dtd">
<svg version="1.1" id="Capa_1" xmlns="http://www.w3.org/2000/svg" xmlns:xlink="http://www.w3.org/1999/xlink" x="0px" y="0px"
	 width="120px" height="120px" viewBox="0 0 120 120" enable-background="new 0 0 120 120" xml:space="preserve">
<g>
	<defs>
		<circle id="SVGID_1_" cx="60" cy="60" r="52.333"/>
	</defs>
	<use xlink:href="#SVGID_1_"  overflow="visible" fill="#003A54"/>
	<clipPath id="SVGID_2_">
		<use xlink:href="#SVGID_1_"  overflow="visible"/>
	</clipPath>
	<g clip-path="url(#SVGID_2_)">
		<rect x="49.98" y="74.807" fill="#FBBCA0" width="20.041" height="13.504"/>
		<path fill="#E6E7E8" d="M54.842,84.574c3.019,1.197,6.332,1.924,9.584,1.949c1.863,0.016,3.758-0.217,5.596-0.543V74.807H49.98
			v6.984C51.387,83.029,53.186,83.916,54.842,84.574z"/>
		<g>
			<path fill="#FBBCA0" d="M82.119,49.8c0.068-0.49,0.929-1.29,1.305-1.56c0.839-0.601,1.686,0.018,1.93,0.8
				c0.219,0.699,0.239,1.487,0.291,2.214c0.129,1.771-0.147,3.509-0.971,5.108c-0.55,1.064-1.41,1.94-2.432,2.603
				c0,0-1.098,0.529-1.316-0.689C80.926,58.275,82.117,49.806,82.119,49.8z"/>
			<path fill="#DDA78F" d="M81.943,50.863c0.049-0.351,0.665-0.924,0.934-1.115c0.601-0.431,1.206,0.012,1.381,0.571
				c0.156,0.501,0.172,1.064,0.209,1.585c0.092,1.267-0.105,2.511-0.695,3.654c-0.393,0.763-1.01,1.39-1.738,1.862
				c0,0-0.787,0.379-0.943-0.492C81.09,56.929,81.943,50.868,81.943,50.863z"/>
		</g>
		<g>
			<path fill="#FBBCA0" d="M37.373,49.8c-0.068-0.49-0.929-1.29-1.305-1.56c-0.839-0.601-1.685,0.018-1.93,0.8
				c-0.219,0.699-0.239,1.487-0.291,2.214c-0.129,1.771,0.148,3.509,0.971,5.108c0.551,1.064,1.41,1.94,2.431,2.603
				c0,0,1.099,0.529,1.317-0.689C38.566,58.275,37.374,49.806,37.373,49.8z"/>
			<path fill="#DDA78F" d="M37.549,50.863c-0.049-0.351-0.664-0.924-0.934-1.115c-0.601-0.431-1.206,0.012-1.381,0.571
				c-0.156,0.501-0.172,1.064-0.21,1.585c-0.091,1.267,0.107,2.511,0.696,3.654c0.393,0.763,1.01,1.39,1.738,1.862
				c0,0,0.787,0.379,0.943-0.492C38.402,56.929,37.55,50.868,37.549,50.863z"/>
		</g>
		<path fill="#FBBCA0" d="M82.789,51.395c0,5.589-0.994,11.24-3.715,16.076c-2.378,4.229-5.945,7.615-9.773,10.32
			c-3.105,2.193-6.438,4.75-10.369,4.438c-4.098-0.324-7.291-3.709-10.285-6.352c-4.211-3.715-7.535-8.33-9.582-13.759
			c-1.262-3.345-1.842-7.121-1.842-10.724c0-18.066,10.201-29.431,22.783-29.431C72.589,21.964,82.789,33.328,82.789,51.395z"/>
		<path fill="#FBBCA0" d="M94.998,94.416l-24.977-6.531H60.001H49.98l-24.977,6.531c0,0-11.575,4.287-12.861,17.861h47.858h47.858
			C106.572,98.703,94.998,94.416,94.998,94.416z"/>
		<path fill="#FFFFFF" d="M94.998,94.416l-24.977-6.531H60.001H49.98l-24.977,6.531c0,0-11.575,4.287-12.861,17.861h47.858h47.858
			C106.572,98.703,94.998,94.416,94.998,94.416z"/>
		<path fill="#002C41" d="M94.998,94.416l-18.484-4.834l-16.513,22.695L43.666,89.535l-18.662,4.881c0,0-11.575,4.287-12.861,17.861
			h47.858h47.858C106.572,98.703,94.998,94.416,94.998,94.416z"/>
		<polygon fill="#FBB040" points="57.81,100.908 53.207,112.277 66.283,112.277 61.797,100.908 		"/>
		<g>
			<polygon fill="#FBB040" points="59.7,88.107 53.842,95.967 57.914,100.939 59.908,100.906 61.9,100.873 65.81,95.771 			"/>
			<path fill="#D1D3D4" d="M63.613,94.936c-0.75,1.482-2.143,3.168-4.035,2.752c-1.956-0.43-2.856-2.281-2.403-4.162
				c0.44-1.832,1.624-3.357,2.282-5.094l-5.615,7.535l4.072,4.973l3.986-0.066l3.909-5.102l-1.653-2.074
				C63.994,94.119,63.815,94.535,63.613,94.936z"/>
		</g>
		<path fill="#3C2415" d="M83.113,49.171c0,0-3.716,17.378-16.192,22.378c0,0-1.556,3.859-6.726,3.859s-6.727-3.859-6.727-3.859
			c-12.476-5-16.191-22.378-16.191-22.378c-1.085,19.448,12.911,27.905,12.911,27.905c7.627,6.24,10.007,5.168,10.007,5.168
			s2.381,1.072,10.006-5.168C70.201,77.076,84.061,69.191,83.113,49.171z"/>
		<path fill="#3C2415" d="M60.001,65.742c0,0-5.157-1.571-6.532,5.807c0,0-1.457-0.188-3.772-2.037
			C49.696,69.512,53.16,60.865,60.001,65.742z"/>
		<path fill="#3C2415" d="M60.442,65.742c0,0,5.157-1.571,6.531,5.807c0,0,1.458-0.188,3.773-2.037
			C70.747,69.512,67.283,60.865,60.442,65.742z"/>
		<path fill="#3C2415" d="M37.277,49.171c0,0,3.344-20.348,13.774-18.348c0,0,9.431,5.868,17.291-0.138
			c0,0,9.536-0.321,14.771,18.485c0,0,1.306-20.062-13.092-27.207c0,0-13.319-6.145-24.719,3.001
			C45.303,24.965,34.506,33.497,37.277,49.171z"/>
		<polygon fill="#001E2F" points="60.001,112.277 43.666,89.535 30.605,92.951 47.296,104.701 43.01,106.592 50.725,112.277 		"/>
		<polygon fill="#001E2F" points="60.001,112.309 76.336,89.566 89.396,92.982 72.705,104.732 76.993,106.623 69.277,112.309 		"/>
		<polygon fill="#E2E3E4" points="40.15,88.361 49.946,83.768 59.934,87.939 69.92,83.768 80.386,88.361 65.587,98.271 
			59.934,90.172 53.842,98.271 		"/>
	</g>
</g>
</svg>
